%TF.GenerationSoftware,KiCad,Pcbnew,(6.0.6)*%
%TF.CreationDate,2023-01-19T12:46:02-03:00*%
%TF.ProjectId,mod_sensores,6d6f645f-7365-46e7-936f-7265732e6b69,rev?*%
%TF.SameCoordinates,Original*%
%TF.FileFunction,Copper,L1,Top*%
%TF.FilePolarity,Positive*%
%FSLAX46Y46*%
G04 Gerber Fmt 4.6, Leading zero omitted, Abs format (unit mm)*
G04 Created by KiCad (PCBNEW (6.0.6)) date 2023-01-19 12:46:02*
%MOMM*%
%LPD*%
G01*
G04 APERTURE LIST*
G04 Aperture macros list*
%AMRoundRect*
0 Rectangle with rounded corners*
0 $1 Rounding radius*
0 $2 $3 $4 $5 $6 $7 $8 $9 X,Y pos of 4 corners*
0 Add a 4 corners polygon primitive as box body*
4,1,4,$2,$3,$4,$5,$6,$7,$8,$9,$2,$3,0*
0 Add four circle primitives for the rounded corners*
1,1,$1+$1,$2,$3*
1,1,$1+$1,$4,$5*
1,1,$1+$1,$6,$7*
1,1,$1+$1,$8,$9*
0 Add four rect primitives between the rounded corners*
20,1,$1+$1,$2,$3,$4,$5,0*
20,1,$1+$1,$4,$5,$6,$7,0*
20,1,$1+$1,$6,$7,$8,$9,0*
20,1,$1+$1,$8,$9,$2,$3,0*%
G04 Aperture macros list end*
%TA.AperFunction,SMDPad,CuDef*%
%ADD10R,2.000000X1.500000*%
%TD*%
%TA.AperFunction,SMDPad,CuDef*%
%ADD11R,2.000000X3.800000*%
%TD*%
%TA.AperFunction,SMDPad,CuDef*%
%ADD12RoundRect,0.250000X-0.337500X-0.475000X0.337500X-0.475000X0.337500X0.475000X-0.337500X0.475000X0*%
%TD*%
%TA.AperFunction,SMDPad,CuDef*%
%ADD13RoundRect,0.250000X-0.350000X-0.450000X0.350000X-0.450000X0.350000X0.450000X-0.350000X0.450000X0*%
%TD*%
%TA.AperFunction,SMDPad,CuDef*%
%ADD14RoundRect,0.250000X0.350000X0.450000X-0.350000X0.450000X-0.350000X-0.450000X0.350000X-0.450000X0*%
%TD*%
%TA.AperFunction,SMDPad,CuDef*%
%ADD15R,0.350000X0.500000*%
%TD*%
%TA.AperFunction,ComponentPad*%
%ADD16O,5.000000X2.500000*%
%TD*%
%TA.AperFunction,ComponentPad*%
%ADD17O,4.500000X2.250000*%
%TD*%
%TA.AperFunction,ComponentPad*%
%ADD18O,2.250000X4.500000*%
%TD*%
%TA.AperFunction,SMDPad,CuDef*%
%ADD19RoundRect,0.250000X0.475000X-0.337500X0.475000X0.337500X-0.475000X0.337500X-0.475000X-0.337500X0*%
%TD*%
%TA.AperFunction,SMDPad,CuDef*%
%ADD20R,2.000000X1.200000*%
%TD*%
%TA.AperFunction,SMDPad,CuDef*%
%ADD21R,1.100000X1.700000*%
%TD*%
%TA.AperFunction,ComponentPad*%
%ADD22R,1.651000X1.651000*%
%TD*%
%TA.AperFunction,ComponentPad*%
%ADD23C,1.651000*%
%TD*%
%TA.AperFunction,Conductor*%
%ADD24C,0.300000*%
%TD*%
%TA.AperFunction,Conductor*%
%ADD25C,0.250000*%
%TD*%
%TA.AperFunction,Conductor*%
%ADD26C,0.500000*%
%TD*%
%TA.AperFunction,Conductor*%
%ADD27C,0.200000*%
%TD*%
G04 APERTURE END LIST*
D10*
%TO.P,U2,1,GND*%
%TO.N,GND*%
X93950000Y-101400000D03*
D11*
%TO.P,U2,2,VO*%
%TO.N,+3.3V*%
X87650000Y-99100000D03*
D10*
X93950000Y-99100000D03*
%TO.P,U2,3,VI*%
%TO.N,+5V*%
X93950000Y-96800000D03*
%TD*%
D12*
%TO.P,C3,1*%
%TO.N,+3.3V*%
X109562500Y-77900000D03*
%TO.P,C3,2*%
%TO.N,GND*%
X111637500Y-77900000D03*
%TD*%
D13*
%TO.P,R3,1*%
%TO.N,Net-(R3-Pad1)*%
X87200000Y-91800000D03*
%TO.P,R3,2*%
%TO.N,+3.3V*%
X89200000Y-91800000D03*
%TD*%
D14*
%TO.P,R6,1*%
%TO.N,GND*%
X115600000Y-77900000D03*
%TO.P,R6,2*%
%TO.N,Net-(R6-Pad2)*%
X113600000Y-77900000D03*
%TD*%
D13*
%TO.P,R5,1*%
%TO.N,scl*%
X113600000Y-74200000D03*
%TO.P,R5,2*%
%TO.N,+3.3V*%
X115600000Y-74200000D03*
%TD*%
D15*
%TO.P,U4,1,GND*%
%TO.N,GND*%
X109425000Y-74200000D03*
%TO.P,U4,2,CSB*%
%TO.N,Net-(R7-Pad1)*%
X110075000Y-74200000D03*
%TO.P,U4,3,SDI*%
%TO.N,sda*%
X110725000Y-74200000D03*
%TO.P,U4,4,SCK*%
%TO.N,scl*%
X111375000Y-74200000D03*
%TO.P,U4,5,SDO*%
%TO.N,Net-(R6-Pad2)*%
X111375000Y-75800000D03*
%TO.P,U4,6,VDDIO*%
%TO.N,+3.3V*%
X110725000Y-75800000D03*
%TO.P,U4,7,GND*%
%TO.N,GND*%
X110075000Y-75800000D03*
%TO.P,U4,8,VDD*%
%TO.N,+3.3V*%
X109425000Y-75800000D03*
%TD*%
D13*
%TO.P,R4,1*%
%TO.N,sda*%
X105600000Y-74300000D03*
%TO.P,R4,2*%
%TO.N,+3.3V*%
X107600000Y-74300000D03*
%TD*%
D14*
%TO.P,R1,1*%
%TO.N,data_dht11*%
X111000000Y-101300000D03*
%TO.P,R1,2*%
%TO.N,+3.3V*%
X109000000Y-101300000D03*
%TD*%
D16*
%TO.P,J1,1*%
%TO.N,+5V*%
X100725000Y-100687500D03*
D17*
%TO.P,J1,2*%
%TO.N,GND*%
X100725000Y-106687500D03*
D18*
%TO.P,J1,3*%
%TO.N,unconnected-(J1-Pad3)*%
X105425000Y-103687500D03*
%TD*%
D19*
%TO.P,C1,1*%
%TO.N,+5V*%
X94100000Y-106037500D03*
%TO.P,C1,2*%
%TO.N,GND*%
X94100000Y-103962500D03*
%TD*%
D20*
%TO.P,U3,1,RESET*%
%TO.N,Net-(R3-Pad1)*%
X87900000Y-73700000D03*
%TO.P,U3,2,ADC*%
%TO.N,unconnected-(U3-Pad2)*%
X87900000Y-75700000D03*
%TO.P,U3,3,EN*%
%TO.N,+3.3V*%
X87900000Y-77700000D03*
%TO.P,U3,4,IO16*%
%TO.N,unconnected-(U3-Pad4)*%
X87900000Y-79700000D03*
%TO.P,U3,5,IO14*%
%TO.N,unconnected-(U3-Pad5)*%
X87900000Y-81700000D03*
%TO.P,U3,6,IO12*%
%TO.N,unconnected-(U3-Pad6)*%
X87900000Y-83700000D03*
%TO.P,U3,7,IO13*%
%TO.N,unconnected-(U3-Pad7)*%
X87900000Y-85700000D03*
%TO.P,U3,8,VCC*%
%TO.N,+3.3V*%
X87900000Y-87700000D03*
D21*
%TO.P,U3,9,CS0*%
%TO.N,unconnected-(U3-Pad9)*%
X90400000Y-89200000D03*
%TO.P,U3,10,MISO*%
%TO.N,unconnected-(U3-Pad10)*%
X92400000Y-89200000D03*
%TO.P,U3,11,IO9*%
%TO.N,GND*%
X94400000Y-89200000D03*
%TO.P,U3,12,IO10*%
%TO.N,data_dht11*%
X96400000Y-89200000D03*
%TO.P,U3,13,MOSI*%
%TO.N,unconnected-(U3-Pad13)*%
X98400000Y-89200000D03*
%TO.P,U3,14,SCLK*%
%TO.N,unconnected-(U3-Pad14)*%
X100400000Y-89200000D03*
D20*
%TO.P,U3,15,GND*%
%TO.N,GND*%
X102900000Y-87700000D03*
%TO.P,U3,16,IO15*%
%TO.N,unconnected-(U3-Pad16)*%
X102900000Y-85700000D03*
%TO.P,U3,17,IO2*%
%TO.N,unconnected-(U3-Pad17)*%
X102900000Y-83700000D03*
%TO.P,U3,18,IO0*%
%TO.N,Net-(R2-Pad1)*%
X102900000Y-81700000D03*
%TO.P,U3,19,IO4*%
%TO.N,sda*%
X102900000Y-79700000D03*
%TO.P,U3,20,IO5*%
%TO.N,scl*%
X102900000Y-77700000D03*
%TO.P,U3,21,RXD*%
%TO.N,unconnected-(U3-Pad21)*%
X102900000Y-75700000D03*
%TO.P,U3,22,TXD*%
%TO.N,unconnected-(U3-Pad22)*%
X102900000Y-73700000D03*
%TD*%
D14*
%TO.P,R7,2*%
%TO.N,+3.3V*%
X105600000Y-76400000D03*
%TO.P,R7,1*%
%TO.N,Net-(R7-Pad1)*%
X107600000Y-76400000D03*
%TD*%
D22*
%TO.P,U1,1,VDD*%
%TO.N,+3.3V*%
X107290000Y-99069000D03*
D23*
%TO.P,U1,2,DATA*%
%TO.N,data_dht11*%
X109830000Y-99069000D03*
%TO.P,U1,3,NC*%
%TO.N,unconnected-(U1-Pad3)*%
X112370000Y-99069000D03*
%TO.P,U1,4,GND*%
%TO.N,GND*%
X114910000Y-99069000D03*
%TD*%
D12*
%TO.P,C2,1*%
%TO.N,+3.3V*%
X88962500Y-94100000D03*
%TO.P,C2,2*%
%TO.N,GND*%
X91037500Y-94100000D03*
%TD*%
D13*
%TO.P,R2,2*%
%TO.N,+3.3V*%
X107600000Y-78500000D03*
%TO.P,R2,1*%
%TO.N,Net-(R2-Pad1)*%
X105600000Y-78500000D03*
%TD*%
D24*
%TO.N,+3.3V*%
X113600000Y-91100000D02*
X107600000Y-85100000D01*
X111650000Y-102500000D02*
X113600000Y-100550000D01*
X113600000Y-100550000D02*
X113600000Y-91100000D01*
X110200000Y-102500000D02*
X111650000Y-102500000D01*
X109000000Y-101300000D02*
X110200000Y-102500000D01*
X107600000Y-85100000D02*
X107600000Y-78500000D01*
X109000000Y-100779000D02*
X107290000Y-99069000D01*
X109000000Y-101300000D02*
X109000000Y-100779000D01*
D25*
%TO.N,data_dht11*%
X111000000Y-100239000D02*
X109830000Y-99069000D01*
X111000000Y-101300000D02*
X111000000Y-100239000D01*
D26*
%TO.N,+5V*%
X100725000Y-101775000D02*
X100725000Y-100687500D01*
X92200000Y-97400000D02*
X92200000Y-104137500D01*
X92800000Y-96800000D02*
X92200000Y-97400000D01*
X93950000Y-96800000D02*
X92800000Y-96800000D01*
X94100000Y-106037500D02*
X96462500Y-106037500D01*
X92200000Y-104137500D02*
X94100000Y-106037500D01*
X96462500Y-106037500D02*
X100725000Y-101775000D01*
D27*
%TO.N,GND*%
X109800000Y-74800000D02*
X110740685Y-74800000D01*
X109425000Y-74425000D02*
X109800000Y-74800000D01*
X114750000Y-77750000D02*
X114900000Y-77900000D01*
X109425000Y-74200000D02*
X109425000Y-74425000D01*
X113000000Y-76000000D02*
X114250000Y-76000000D01*
X110075000Y-76337500D02*
X110075000Y-75800000D01*
X114750000Y-76500000D02*
X114750000Y-77750000D01*
X114900000Y-77900000D02*
X115600000Y-77900000D01*
X112000000Y-75000000D02*
X113000000Y-76000000D01*
X114250000Y-76000000D02*
X114750000Y-76500000D01*
X111637500Y-77900000D02*
X110075000Y-76337500D01*
X110740685Y-74800000D02*
X110940685Y-75000000D01*
X110940685Y-75000000D02*
X112000000Y-75000000D01*
D26*
%TO.N,+3.3V*%
X87650000Y-99100000D02*
X87650000Y-95412500D01*
X89800000Y-86300000D02*
X89800000Y-79000000D01*
X88962500Y-94100000D02*
X88962500Y-92037500D01*
D27*
X110575000Y-75200000D02*
X110725000Y-75350000D01*
D26*
X88400000Y-87700000D02*
X89800000Y-86300000D01*
X89800000Y-79000000D02*
X88500000Y-77700000D01*
X89200000Y-89000000D02*
X87900000Y-87700000D01*
X104800000Y-96800000D02*
X107069000Y-99069000D01*
D27*
X109575000Y-75200000D02*
X110575000Y-75200000D01*
X107600000Y-78500000D02*
X108962500Y-78500000D01*
X105600000Y-76400000D02*
X107600000Y-78400000D01*
D26*
X88962500Y-92037500D02*
X89200000Y-91800000D01*
D27*
X109425000Y-75800000D02*
X109425000Y-75350000D01*
D26*
X94200000Y-99100000D02*
X96500000Y-96800000D01*
X93950000Y-99100000D02*
X94200000Y-99100000D01*
D27*
X108962500Y-78500000D02*
X109562500Y-77900000D01*
X107600000Y-74400000D02*
X105600000Y-76400000D01*
D26*
X89200000Y-91800000D02*
X89200000Y-89000000D01*
D27*
X107600000Y-74300000D02*
X107600000Y-74400000D01*
D26*
X96500000Y-96800000D02*
X104800000Y-96800000D01*
X88500000Y-77700000D02*
X87900000Y-77700000D01*
D27*
X93700000Y-72300000D02*
X88300000Y-77700000D01*
X109425000Y-75350000D02*
X109575000Y-75200000D01*
X109562500Y-77900000D02*
X109425000Y-77762500D01*
X110725000Y-75350000D02*
X110725000Y-75800000D01*
X88300000Y-77700000D02*
X87900000Y-77700000D01*
X109425000Y-77762500D02*
X109425000Y-75800000D01*
D26*
X87650000Y-95412500D02*
X88962500Y-94100000D01*
X107069000Y-99069000D02*
X107290000Y-99069000D01*
D27*
X113700000Y-72300000D02*
X93700000Y-72300000D01*
X115600000Y-74200000D02*
X113700000Y-72300000D01*
X107600000Y-78400000D02*
X107600000Y-78500000D01*
D26*
X87900000Y-87700000D02*
X88400000Y-87700000D01*
D25*
%TO.N,data_dht11*%
X96400000Y-90400000D02*
X96400000Y-89200000D01*
X103061000Y-92300000D02*
X98300000Y-92300000D01*
X98300000Y-92300000D02*
X96400000Y-90400000D01*
X109830000Y-99069000D02*
X103061000Y-92300000D01*
D27*
%TO.N,Net-(R2-Pad1)*%
X104600000Y-80400000D02*
X103300000Y-81700000D01*
X105600000Y-78500000D02*
X104600000Y-79500000D01*
X103300000Y-81700000D02*
X102900000Y-81700000D01*
X104600000Y-79500000D02*
X104600000Y-80400000D01*
%TO.N,Net-(R3-Pad1)*%
X87700000Y-73700000D02*
X87900000Y-73700000D01*
X87200000Y-91800000D02*
X86200000Y-90800000D01*
X86200000Y-90800000D02*
X86200000Y-75200000D01*
X86200000Y-75200000D02*
X87700000Y-73700000D01*
%TO.N,sda*%
X104400000Y-73600000D02*
X104900000Y-73100000D01*
X105600000Y-74300000D02*
X104500000Y-74300000D01*
X110000000Y-73100000D02*
X110725000Y-73825000D01*
X104500000Y-74300000D02*
X104400000Y-74400000D01*
X110725000Y-73825000D02*
X110725000Y-74200000D01*
X104900000Y-73100000D02*
X110000000Y-73100000D01*
X103300000Y-79700000D02*
X104400000Y-78600000D01*
X104400000Y-74400000D02*
X104400000Y-73600000D01*
X102900000Y-79700000D02*
X103300000Y-79700000D01*
X104400000Y-78600000D02*
X104400000Y-74400000D01*
%TO.N,scl*%
X110325000Y-72700000D02*
X100700000Y-72700000D01*
X111375000Y-74200000D02*
X111375000Y-73750000D01*
X113300000Y-74200000D02*
X111375000Y-74200000D01*
X100000000Y-73400000D02*
X100000000Y-76600000D01*
X111375000Y-73750000D02*
X110325000Y-72700000D01*
X100000000Y-76600000D02*
X101100000Y-77700000D01*
X100700000Y-72700000D02*
X100000000Y-73400000D01*
X113700000Y-73800000D02*
X113300000Y-74200000D01*
X101100000Y-77700000D02*
X102900000Y-77700000D01*
%TO.N,Net-(R7-Pad1)*%
X107600000Y-76400000D02*
X108700000Y-75300000D01*
X109600000Y-73500000D02*
X110075000Y-73975000D01*
X108700000Y-73900000D02*
X109100000Y-73500000D01*
X108700000Y-75300000D02*
X108700000Y-73900000D01*
X109100000Y-73500000D02*
X109600000Y-73500000D01*
X110075000Y-73975000D02*
X110075000Y-74200000D01*
%TO.N,Net-(R6-Pad2)*%
X111500000Y-75800000D02*
X113600000Y-77900000D01*
X111375000Y-75800000D02*
X111500000Y-75800000D01*
%TD*%
%TA.AperFunction,Conductor*%
%TO.N,GND*%
G36*
X116933621Y-72270002D02*
G01*
X116980114Y-72323658D01*
X116991500Y-72376000D01*
X116991500Y-108615500D01*
X116971498Y-108683621D01*
X116917842Y-108730114D01*
X116865500Y-108741500D01*
X86384500Y-108741500D01*
X86316379Y-108721498D01*
X86269886Y-108667842D01*
X86258500Y-108615500D01*
X86258500Y-106357655D01*
X86989858Y-106357655D01*
X87025104Y-106616638D01*
X87026412Y-106621124D01*
X87026412Y-106621126D01*
X87042980Y-106677967D01*
X87098243Y-106867567D01*
X87207668Y-107104928D01*
X87219673Y-107123238D01*
X87348410Y-107319596D01*
X87348414Y-107319601D01*
X87350976Y-107323509D01*
X87525018Y-107518506D01*
X87725970Y-107685637D01*
X87729973Y-107688066D01*
X87945422Y-107818804D01*
X87945426Y-107818806D01*
X87949419Y-107821229D01*
X88190455Y-107922303D01*
X88443783Y-107986641D01*
X88448434Y-107987109D01*
X88448438Y-107987110D01*
X88641308Y-108006531D01*
X88660867Y-108008500D01*
X88816354Y-108008500D01*
X88818679Y-108008327D01*
X88818685Y-108008327D01*
X89006000Y-107994407D01*
X89006004Y-107994406D01*
X89010652Y-107994061D01*
X89015200Y-107993032D01*
X89015206Y-107993031D01*
X89201601Y-107950853D01*
X89265577Y-107936377D01*
X89301769Y-107922303D01*
X89504824Y-107843340D01*
X89504827Y-107843339D01*
X89509177Y-107841647D01*
X89736098Y-107711951D01*
X89941357Y-107550138D01*
X90120443Y-107359763D01*
X90269424Y-107145009D01*
X90275100Y-107133500D01*
X90382960Y-106914781D01*
X90382961Y-106914778D01*
X90385025Y-106910593D01*
X90421574Y-106796415D01*
X90463280Y-106666123D01*
X90464707Y-106661665D01*
X90506721Y-106403693D01*
X90510142Y-106142345D01*
X90474896Y-105883362D01*
X90460473Y-105833877D01*
X90403068Y-105636932D01*
X90401757Y-105632433D01*
X90292332Y-105395072D01*
X90216232Y-105279000D01*
X90151590Y-105180404D01*
X90151586Y-105180399D01*
X90149024Y-105176491D01*
X89974982Y-104981494D01*
X89774030Y-104814363D01*
X89695583Y-104766760D01*
X89554578Y-104681196D01*
X89554574Y-104681194D01*
X89550581Y-104678771D01*
X89309545Y-104577697D01*
X89056217Y-104513359D01*
X89051566Y-104512891D01*
X89051562Y-104512890D01*
X88842271Y-104491816D01*
X88839133Y-104491500D01*
X88683646Y-104491500D01*
X88681321Y-104491673D01*
X88681315Y-104491673D01*
X88494000Y-104505593D01*
X88493996Y-104505594D01*
X88489348Y-104505939D01*
X88484800Y-104506968D01*
X88484794Y-104506969D01*
X88336717Y-104540476D01*
X88234423Y-104563623D01*
X88230071Y-104565315D01*
X88230069Y-104565316D01*
X87995176Y-104656660D01*
X87995173Y-104656661D01*
X87990823Y-104658353D01*
X87763902Y-104788049D01*
X87558643Y-104949862D01*
X87379557Y-105140237D01*
X87316410Y-105231263D01*
X87252483Y-105323413D01*
X87230576Y-105354991D01*
X87228510Y-105359181D01*
X87228508Y-105359184D01*
X87129178Y-105560607D01*
X87114975Y-105589407D01*
X87035293Y-105838335D01*
X86993279Y-106096307D01*
X86989858Y-106357655D01*
X86258500Y-106357655D01*
X86258500Y-101578132D01*
X86278502Y-101510011D01*
X86332158Y-101463518D01*
X86402432Y-101453414D01*
X86428729Y-101460150D01*
X86539684Y-101501745D01*
X86601866Y-101508500D01*
X88698134Y-101508500D01*
X88760316Y-101501745D01*
X88896705Y-101450615D01*
X89013261Y-101363261D01*
X89100615Y-101246705D01*
X89151745Y-101110316D01*
X89158500Y-101048134D01*
X89158500Y-97151866D01*
X89151745Y-97089684D01*
X89100615Y-96953295D01*
X89013261Y-96836739D01*
X88896705Y-96749385D01*
X88760316Y-96698255D01*
X88698134Y-96691500D01*
X88534500Y-96691500D01*
X88466379Y-96671498D01*
X88419886Y-96617842D01*
X88408500Y-96565500D01*
X88408500Y-95778871D01*
X88428502Y-95710750D01*
X88445405Y-95689776D01*
X88764776Y-95370405D01*
X88827088Y-95336379D01*
X88853871Y-95333500D01*
X89350400Y-95333500D01*
X89353646Y-95333163D01*
X89353650Y-95333163D01*
X89449308Y-95323238D01*
X89449312Y-95323237D01*
X89456166Y-95322526D01*
X89462702Y-95320345D01*
X89462704Y-95320345D01*
X89616998Y-95268868D01*
X89623946Y-95266550D01*
X89774348Y-95173478D01*
X89899305Y-95048303D01*
X89902102Y-95043765D01*
X89959353Y-95003176D01*
X90030276Y-94999946D01*
X90091687Y-95035572D01*
X90099062Y-95044068D01*
X90107098Y-95054207D01*
X90221829Y-95168739D01*
X90233240Y-95177751D01*
X90371243Y-95262816D01*
X90384424Y-95268963D01*
X90538710Y-95320138D01*
X90552086Y-95323005D01*
X90646438Y-95332672D01*
X90652854Y-95333000D01*
X90765385Y-95333000D01*
X90780624Y-95328525D01*
X90781829Y-95327135D01*
X90783500Y-95319452D01*
X90783500Y-95314884D01*
X91291500Y-95314884D01*
X91295975Y-95330123D01*
X91297365Y-95331328D01*
X91305048Y-95332999D01*
X91422095Y-95332999D01*
X91428614Y-95332662D01*
X91524206Y-95322743D01*
X91537600Y-95319851D01*
X91691784Y-95268412D01*
X91704962Y-95262239D01*
X91842807Y-95176937D01*
X91854208Y-95167901D01*
X91968739Y-95053171D01*
X91977751Y-95041760D01*
X92062816Y-94903757D01*
X92068963Y-94890576D01*
X92120138Y-94736290D01*
X92123005Y-94722914D01*
X92132672Y-94628562D01*
X92133000Y-94622146D01*
X92133000Y-94372115D01*
X92128525Y-94356876D01*
X92127135Y-94355671D01*
X92119452Y-94354000D01*
X91309615Y-94354000D01*
X91294376Y-94358475D01*
X91293171Y-94359865D01*
X91291500Y-94367548D01*
X91291500Y-95314884D01*
X90783500Y-95314884D01*
X90783500Y-93827885D01*
X91291500Y-93827885D01*
X91295975Y-93843124D01*
X91297365Y-93844329D01*
X91305048Y-93846000D01*
X92114884Y-93846000D01*
X92130123Y-93841525D01*
X92131328Y-93840135D01*
X92132999Y-93832452D01*
X92132999Y-93577905D01*
X92132662Y-93571386D01*
X92122743Y-93475794D01*
X92119851Y-93462400D01*
X92068412Y-93308216D01*
X92062239Y-93295038D01*
X91976937Y-93157193D01*
X91967901Y-93145792D01*
X91853171Y-93031261D01*
X91841760Y-93022249D01*
X91703757Y-92937184D01*
X91690576Y-92931037D01*
X91536290Y-92879862D01*
X91522914Y-92876995D01*
X91428562Y-92867328D01*
X91422145Y-92867000D01*
X91309615Y-92867000D01*
X91294376Y-92871475D01*
X91293171Y-92872865D01*
X91291500Y-92880548D01*
X91291500Y-93827885D01*
X90783500Y-93827885D01*
X90783500Y-92885116D01*
X90779025Y-92869877D01*
X90777635Y-92868672D01*
X90769952Y-92867001D01*
X90652905Y-92867001D01*
X90646386Y-92867338D01*
X90550794Y-92877257D01*
X90537400Y-92880149D01*
X90383216Y-92931588D01*
X90370038Y-92937761D01*
X90232193Y-93023063D01*
X90220792Y-93032099D01*
X90106262Y-93146828D01*
X90099206Y-93155762D01*
X90041288Y-93196823D01*
X89970365Y-93200053D01*
X89908954Y-93164426D01*
X89902154Y-93156593D01*
X89898478Y-93150652D01*
X89893297Y-93145480D01*
X89893293Y-93145475D01*
X89872493Y-93124712D01*
X89838412Y-93062430D01*
X89843414Y-92991610D01*
X89885911Y-92934737D01*
X89895206Y-92928394D01*
X90018120Y-92852332D01*
X90024348Y-92848478D01*
X90149305Y-92723303D01*
X90242115Y-92572738D01*
X90297797Y-92404861D01*
X90308500Y-92300400D01*
X90308500Y-91299600D01*
X90297526Y-91193834D01*
X90241550Y-91026054D01*
X90148478Y-90875652D01*
X90046321Y-90773673D01*
X90012242Y-90711391D01*
X90017245Y-90640570D01*
X90059742Y-90583698D01*
X90126241Y-90558829D01*
X90135339Y-90558500D01*
X90998134Y-90558500D01*
X91060316Y-90551745D01*
X91196705Y-90500615D01*
X91313261Y-90413261D01*
X91314187Y-90412026D01*
X91373217Y-90379792D01*
X91444032Y-90384857D01*
X91485355Y-90411414D01*
X91486739Y-90413261D01*
X91603295Y-90500615D01*
X91739684Y-90551745D01*
X91801866Y-90558500D01*
X92998134Y-90558500D01*
X93060316Y-90551745D01*
X93196705Y-90500615D01*
X93313261Y-90413261D01*
X93314392Y-90411752D01*
X93373574Y-90379435D01*
X93444389Y-90384500D01*
X93489452Y-90413461D01*
X93494276Y-90418285D01*
X93596351Y-90494786D01*
X93611946Y-90503324D01*
X93732394Y-90548478D01*
X93747649Y-90552105D01*
X93798514Y-90557631D01*
X93805328Y-90558000D01*
X94127885Y-90558000D01*
X94143124Y-90553525D01*
X94144329Y-90552135D01*
X94146000Y-90544452D01*
X94146000Y-87860116D01*
X94141525Y-87844877D01*
X94140135Y-87843672D01*
X94132452Y-87842001D01*
X93805331Y-87842001D01*
X93798510Y-87842371D01*
X93747648Y-87847895D01*
X93732396Y-87851521D01*
X93611946Y-87896676D01*
X93596351Y-87905214D01*
X93494276Y-87981715D01*
X93489452Y-87986539D01*
X93427140Y-88020565D01*
X93356325Y-88015500D01*
X93314829Y-87988832D01*
X93313261Y-87986739D01*
X93196705Y-87899385D01*
X93060316Y-87848255D01*
X92998134Y-87841500D01*
X91801866Y-87841500D01*
X91739684Y-87848255D01*
X91603295Y-87899385D01*
X91486739Y-87986739D01*
X91485813Y-87987974D01*
X91426783Y-88020208D01*
X91355968Y-88015143D01*
X91314645Y-87988586D01*
X91313261Y-87986739D01*
X91196705Y-87899385D01*
X91060316Y-87848255D01*
X90998134Y-87841500D01*
X89801866Y-87841500D01*
X89739684Y-87848255D01*
X89732288Y-87851027D01*
X89732282Y-87851029D01*
X89619936Y-87893146D01*
X89549129Y-87898329D01*
X89486760Y-87864408D01*
X89452631Y-87802153D01*
X89457578Y-87731329D01*
X89486612Y-87686069D01*
X90288911Y-86883770D01*
X90303323Y-86871384D01*
X90314918Y-86862851D01*
X90314923Y-86862846D01*
X90320818Y-86858508D01*
X90325557Y-86852930D01*
X90325560Y-86852927D01*
X90355035Y-86818232D01*
X90361965Y-86810716D01*
X90367660Y-86805021D01*
X90385281Y-86782749D01*
X90388072Y-86779345D01*
X90430591Y-86729297D01*
X90430592Y-86729295D01*
X90435333Y-86723715D01*
X90438661Y-86717199D01*
X90442028Y-86712150D01*
X90445195Y-86707021D01*
X90449734Y-86701284D01*
X90480655Y-86635125D01*
X90482561Y-86631225D01*
X90485815Y-86624852D01*
X90515769Y-86566192D01*
X90517508Y-86559084D01*
X90519607Y-86553441D01*
X90521524Y-86547678D01*
X90524622Y-86541050D01*
X90539487Y-86469583D01*
X90540457Y-86465299D01*
X90557808Y-86394390D01*
X90558500Y-86383236D01*
X90558536Y-86383238D01*
X90558775Y-86379245D01*
X90559149Y-86375053D01*
X90560640Y-86367885D01*
X90558546Y-86290479D01*
X90558500Y-86287072D01*
X90558500Y-79067070D01*
X90559933Y-79048120D01*
X90562099Y-79033885D01*
X90562099Y-79033881D01*
X90563199Y-79026651D01*
X90559188Y-78977332D01*
X90558915Y-78973982D01*
X90558500Y-78963767D01*
X90558500Y-78955707D01*
X90558061Y-78951937D01*
X90555211Y-78927497D01*
X90554778Y-78923121D01*
X90549454Y-78857662D01*
X90549453Y-78857659D01*
X90548860Y-78850364D01*
X90546604Y-78843400D01*
X90545417Y-78837461D01*
X90544030Y-78831590D01*
X90543182Y-78824319D01*
X90540686Y-78817443D01*
X90540684Y-78817434D01*
X90518275Y-78755702D01*
X90516865Y-78751598D01*
X90494352Y-78682101D01*
X90490556Y-78675846D01*
X90488057Y-78670387D01*
X90485329Y-78664939D01*
X90482833Y-78658063D01*
X90442805Y-78597010D01*
X90440481Y-78593327D01*
X90405504Y-78535686D01*
X90405501Y-78535682D01*
X90402595Y-78530893D01*
X90395197Y-78522517D01*
X90395224Y-78522493D01*
X90392579Y-78519511D01*
X90389872Y-78516274D01*
X90385856Y-78510148D01*
X90329617Y-78456872D01*
X90327176Y-78454495D01*
X89455710Y-77583029D01*
X89421684Y-77520717D01*
X89426749Y-77449902D01*
X89455710Y-77404839D01*
X93915144Y-72945405D01*
X93977456Y-72911379D01*
X94004239Y-72908500D01*
X99358075Y-72908500D01*
X99426196Y-72928502D01*
X99472689Y-72982158D01*
X99482793Y-73052432D01*
X99468900Y-73092571D01*
X99468476Y-73093124D01*
X99407162Y-73241149D01*
X99405081Y-73256960D01*
X99404832Y-73258849D01*
X99395662Y-73328502D01*
X99391500Y-73360115D01*
X99391500Y-73360120D01*
X99386250Y-73400000D01*
X99387328Y-73408188D01*
X99390422Y-73431690D01*
X99391500Y-73448136D01*
X99391500Y-76551864D01*
X99390422Y-76568307D01*
X99386250Y-76600000D01*
X99391500Y-76639880D01*
X99391500Y-76639885D01*
X99399740Y-76702474D01*
X99407162Y-76758851D01*
X99468476Y-76906876D01*
X99473503Y-76913427D01*
X99473504Y-76913429D01*
X99541520Y-77002069D01*
X99541526Y-77002075D01*
X99566013Y-77033987D01*
X99572568Y-77039017D01*
X99591379Y-77053452D01*
X99603770Y-77064319D01*
X100635678Y-78096226D01*
X100646545Y-78108616D01*
X100666013Y-78133987D01*
X100672559Y-78139010D01*
X100672562Y-78139013D01*
X100697927Y-78158476D01*
X100697929Y-78158477D01*
X100793124Y-78231524D01*
X100800750Y-78234683D01*
X100800752Y-78234684D01*
X100867137Y-78262181D01*
X100941149Y-78292838D01*
X100949336Y-78293916D01*
X100949337Y-78293916D01*
X100960542Y-78295391D01*
X100991738Y-78299498D01*
X101060115Y-78308500D01*
X101060118Y-78308500D01*
X101060126Y-78308501D01*
X101091811Y-78312672D01*
X101100000Y-78313750D01*
X101131693Y-78309578D01*
X101148136Y-78308500D01*
X101275507Y-78308500D01*
X101343628Y-78328502D01*
X101390121Y-78382158D01*
X101397543Y-78403763D01*
X101398255Y-78410316D01*
X101401027Y-78417711D01*
X101401028Y-78417714D01*
X101414817Y-78454495D01*
X101449385Y-78546705D01*
X101454770Y-78553890D01*
X101454771Y-78553892D01*
X101507640Y-78624435D01*
X101532488Y-78690942D01*
X101517435Y-78760324D01*
X101507640Y-78775565D01*
X101454771Y-78846108D01*
X101449385Y-78853295D01*
X101398255Y-78989684D01*
X101391500Y-79051866D01*
X101391500Y-80348134D01*
X101398255Y-80410316D01*
X101449385Y-80546705D01*
X101454770Y-80553890D01*
X101454771Y-80553892D01*
X101507640Y-80624435D01*
X101532488Y-80690942D01*
X101517435Y-80760324D01*
X101507640Y-80775565D01*
X101454771Y-80846108D01*
X101449385Y-80853295D01*
X101398255Y-80989684D01*
X101391500Y-81051866D01*
X101391500Y-82348134D01*
X101398255Y-82410316D01*
X101449385Y-82546705D01*
X101454770Y-82553890D01*
X101454771Y-82553892D01*
X101507640Y-82624435D01*
X101532488Y-82690942D01*
X101517435Y-82760324D01*
X101507640Y-82775565D01*
X101449385Y-82853295D01*
X101398255Y-82989684D01*
X101391500Y-83051866D01*
X101391500Y-84348134D01*
X101398255Y-84410316D01*
X101449385Y-84546705D01*
X101454770Y-84553890D01*
X101454771Y-84553892D01*
X101507640Y-84624435D01*
X101532488Y-84690942D01*
X101517435Y-84760324D01*
X101507640Y-84775565D01*
X101468912Y-84827240D01*
X101449385Y-84853295D01*
X101398255Y-84989684D01*
X101391500Y-85051866D01*
X101391500Y-86348134D01*
X101398255Y-86410316D01*
X101449385Y-86546705D01*
X101454771Y-86553891D01*
X101507953Y-86624852D01*
X101532801Y-86691358D01*
X101517748Y-86760741D01*
X101507953Y-86775982D01*
X101455214Y-86846352D01*
X101446676Y-86861946D01*
X101401522Y-86982394D01*
X101397895Y-86997649D01*
X101392369Y-87048514D01*
X101392000Y-87055328D01*
X101392000Y-87427885D01*
X101396475Y-87443124D01*
X101397865Y-87444329D01*
X101405548Y-87446000D01*
X104389884Y-87446000D01*
X104405123Y-87441525D01*
X104406328Y-87440135D01*
X104407999Y-87432452D01*
X104407999Y-87055331D01*
X104407629Y-87048510D01*
X104402105Y-86997648D01*
X104398479Y-86982396D01*
X104353324Y-86861946D01*
X104344786Y-86846352D01*
X104292047Y-86775982D01*
X104267199Y-86709476D01*
X104282252Y-86640093D01*
X104292047Y-86624852D01*
X104345229Y-86553891D01*
X104350615Y-86546705D01*
X104401745Y-86410316D01*
X104408500Y-86348134D01*
X104408500Y-85051866D01*
X104401745Y-84989684D01*
X104350615Y-84853295D01*
X104331088Y-84827240D01*
X104292360Y-84775565D01*
X104267512Y-84709058D01*
X104282565Y-84639676D01*
X104292360Y-84624435D01*
X104345229Y-84553892D01*
X104345230Y-84553890D01*
X104350615Y-84546705D01*
X104401745Y-84410316D01*
X104408500Y-84348134D01*
X104408500Y-83051866D01*
X104401745Y-82989684D01*
X104350615Y-82853295D01*
X104292360Y-82775565D01*
X104267512Y-82709058D01*
X104282565Y-82639676D01*
X104292360Y-82624435D01*
X104345229Y-82553892D01*
X104345230Y-82553890D01*
X104350615Y-82546705D01*
X104401745Y-82410316D01*
X104408500Y-82348134D01*
X104408500Y-81504239D01*
X104428502Y-81436118D01*
X104445405Y-81415144D01*
X104996234Y-80864315D01*
X105008625Y-80853448D01*
X105027437Y-80839013D01*
X105033987Y-80833987D01*
X105058474Y-80802075D01*
X105058478Y-80802071D01*
X105131524Y-80706876D01*
X105192838Y-80558851D01*
X105213751Y-80400000D01*
X105209578Y-80368301D01*
X105208500Y-80351856D01*
X105208500Y-79834500D01*
X105228502Y-79766379D01*
X105282158Y-79719886D01*
X105334500Y-79708500D01*
X106000400Y-79708500D01*
X106003646Y-79708163D01*
X106003650Y-79708163D01*
X106099308Y-79698238D01*
X106099312Y-79698237D01*
X106106166Y-79697526D01*
X106112702Y-79695345D01*
X106112704Y-79695345D01*
X106266998Y-79643868D01*
X106273946Y-79641550D01*
X106424348Y-79548478D01*
X106510784Y-79461891D01*
X106573066Y-79427812D01*
X106643886Y-79432815D01*
X106688976Y-79461736D01*
X106776697Y-79549305D01*
X106782927Y-79553145D01*
X106782928Y-79553146D01*
X106881616Y-79613978D01*
X106929109Y-79666750D01*
X106941500Y-79721238D01*
X106941500Y-85017944D01*
X106940941Y-85029800D01*
X106939212Y-85037537D01*
X106939461Y-85045459D01*
X106941438Y-85108369D01*
X106941500Y-85112327D01*
X106941500Y-85141432D01*
X106942056Y-85145832D01*
X106942988Y-85157664D01*
X106944438Y-85203831D01*
X106946650Y-85211444D01*
X106946650Y-85211445D01*
X106950419Y-85224416D01*
X106954430Y-85243782D01*
X106957118Y-85265064D01*
X106960034Y-85272429D01*
X106960035Y-85272433D01*
X106974126Y-85308021D01*
X106977965Y-85319231D01*
X106990855Y-85363600D01*
X107001775Y-85382065D01*
X107010466Y-85399805D01*
X107018365Y-85419756D01*
X107045516Y-85457126D01*
X107052033Y-85467048D01*
X107071507Y-85499977D01*
X107071510Y-85499981D01*
X107075547Y-85506807D01*
X107090711Y-85521971D01*
X107103551Y-85537004D01*
X107116159Y-85554357D01*
X107151752Y-85583802D01*
X107160532Y-85591792D01*
X112904595Y-91335854D01*
X112938621Y-91398166D01*
X112941500Y-91424949D01*
X112941500Y-97676867D01*
X112921498Y-97744988D01*
X112867842Y-97791481D01*
X112797568Y-97801585D01*
X112782889Y-97798574D01*
X112607847Y-97751672D01*
X112607845Y-97751672D01*
X112602532Y-97750248D01*
X112370000Y-97729904D01*
X112137468Y-97750248D01*
X112132155Y-97751672D01*
X112132153Y-97751672D01*
X111917312Y-97809238D01*
X111917310Y-97809239D01*
X111912002Y-97810661D01*
X111907022Y-97812983D01*
X111907020Y-97812984D01*
X111705439Y-97906983D01*
X111705434Y-97906986D01*
X111700452Y-97909309D01*
X111695945Y-97912465D01*
X111695943Y-97912466D01*
X111513757Y-98040034D01*
X111513754Y-98040036D01*
X111509246Y-98043193D01*
X111344193Y-98208246D01*
X111210309Y-98399452D01*
X111208726Y-98402847D01*
X111157734Y-98451466D01*
X111088020Y-98464900D01*
X111022110Y-98438512D01*
X110991353Y-98403017D01*
X110989691Y-98399452D01*
X110855807Y-98208246D01*
X110690754Y-98043193D01*
X110686246Y-98040036D01*
X110686243Y-98040034D01*
X110504057Y-97912466D01*
X110504055Y-97912465D01*
X110499548Y-97909309D01*
X110494566Y-97906986D01*
X110494561Y-97906983D01*
X110292980Y-97812984D01*
X110292978Y-97812983D01*
X110287998Y-97810661D01*
X110282690Y-97809239D01*
X110282688Y-97809238D01*
X110067847Y-97751672D01*
X110067845Y-97751672D01*
X110062532Y-97750248D01*
X109830000Y-97729904D01*
X109597468Y-97750248D01*
X109592149Y-97751673D01*
X109592150Y-97751673D01*
X109517635Y-97771638D01*
X109446658Y-97769948D01*
X109395930Y-97739026D01*
X106498021Y-94841116D01*
X103564652Y-91907747D01*
X103557112Y-91899461D01*
X103553000Y-91892982D01*
X103503348Y-91846356D01*
X103500507Y-91843602D01*
X103480770Y-91823865D01*
X103477573Y-91821385D01*
X103468551Y-91813680D01*
X103442100Y-91788841D01*
X103436321Y-91783414D01*
X103429375Y-91779595D01*
X103429372Y-91779593D01*
X103418566Y-91773652D01*
X103402047Y-91762801D01*
X103401583Y-91762441D01*
X103386041Y-91750386D01*
X103378772Y-91747241D01*
X103378768Y-91747238D01*
X103345463Y-91732826D01*
X103334813Y-91727609D01*
X103296060Y-91706305D01*
X103276437Y-91701267D01*
X103257734Y-91694863D01*
X103246420Y-91689967D01*
X103246419Y-91689967D01*
X103239145Y-91686819D01*
X103231322Y-91685580D01*
X103231312Y-91685577D01*
X103195476Y-91679901D01*
X103183856Y-91677495D01*
X103148711Y-91668472D01*
X103148710Y-91668472D01*
X103141030Y-91666500D01*
X103120776Y-91666500D01*
X103101065Y-91664949D01*
X103088886Y-91663020D01*
X103081057Y-91661780D01*
X103073165Y-91662526D01*
X103037039Y-91665941D01*
X103025181Y-91666500D01*
X98614594Y-91666500D01*
X98546473Y-91646498D01*
X98525503Y-91629599D01*
X97665056Y-90769151D01*
X97631032Y-90706841D01*
X97636097Y-90636025D01*
X97678644Y-90579190D01*
X97745164Y-90554379D01*
X97767760Y-90554795D01*
X97781872Y-90556328D01*
X97793867Y-90557631D01*
X97801866Y-90558500D01*
X98998134Y-90558500D01*
X99060316Y-90551745D01*
X99196705Y-90500615D01*
X99313261Y-90413261D01*
X99314187Y-90412026D01*
X99373217Y-90379792D01*
X99444032Y-90384857D01*
X99485355Y-90411414D01*
X99486739Y-90413261D01*
X99603295Y-90500615D01*
X99739684Y-90551745D01*
X99801866Y-90558500D01*
X100998134Y-90558500D01*
X101060316Y-90551745D01*
X101196705Y-90500615D01*
X101313261Y-90413261D01*
X101400615Y-90296705D01*
X101451745Y-90160316D01*
X101458500Y-90098134D01*
X101458500Y-88854572D01*
X101478502Y-88786451D01*
X101532158Y-88739958D01*
X101602432Y-88729854D01*
X101645008Y-88744052D01*
X101661939Y-88753321D01*
X101782394Y-88798478D01*
X101797649Y-88802105D01*
X101848514Y-88807631D01*
X101855328Y-88808000D01*
X102627885Y-88808000D01*
X102643124Y-88803525D01*
X102644329Y-88802135D01*
X102646000Y-88794452D01*
X102646000Y-88789884D01*
X103154000Y-88789884D01*
X103158475Y-88805123D01*
X103159865Y-88806328D01*
X103167548Y-88807999D01*
X103944669Y-88807999D01*
X103951490Y-88807629D01*
X104002352Y-88802105D01*
X104017604Y-88798479D01*
X104138054Y-88753324D01*
X104153649Y-88744786D01*
X104255724Y-88668285D01*
X104268285Y-88655724D01*
X104344786Y-88553649D01*
X104353324Y-88538054D01*
X104398478Y-88417606D01*
X104402105Y-88402351D01*
X104407631Y-88351486D01*
X104408000Y-88344672D01*
X104408000Y-87972115D01*
X104403525Y-87956876D01*
X104402135Y-87955671D01*
X104394452Y-87954000D01*
X103172115Y-87954000D01*
X103156876Y-87958475D01*
X103155671Y-87959865D01*
X103154000Y-87967548D01*
X103154000Y-88789884D01*
X102646000Y-88789884D01*
X102646000Y-87972115D01*
X102641525Y-87956876D01*
X102640135Y-87955671D01*
X102632452Y-87954000D01*
X101410116Y-87954000D01*
X101369697Y-87965868D01*
X101298700Y-87965868D01*
X101258634Y-87945798D01*
X101203892Y-87904771D01*
X101203890Y-87904770D01*
X101196705Y-87899385D01*
X101060316Y-87848255D01*
X100998134Y-87841500D01*
X99801866Y-87841500D01*
X99739684Y-87848255D01*
X99603295Y-87899385D01*
X99486739Y-87986739D01*
X99485813Y-87987974D01*
X99426783Y-88020208D01*
X99355968Y-88015143D01*
X99314645Y-87988586D01*
X99313261Y-87986739D01*
X99196705Y-87899385D01*
X99060316Y-87848255D01*
X98998134Y-87841500D01*
X97801866Y-87841500D01*
X97739684Y-87848255D01*
X97603295Y-87899385D01*
X97486739Y-87986739D01*
X97485813Y-87987974D01*
X97426783Y-88020208D01*
X97355968Y-88015143D01*
X97314645Y-87988586D01*
X97313261Y-87986739D01*
X97196705Y-87899385D01*
X97060316Y-87848255D01*
X96998134Y-87841500D01*
X95801866Y-87841500D01*
X95739684Y-87848255D01*
X95603295Y-87899385D01*
X95486739Y-87986739D01*
X95485608Y-87988248D01*
X95426426Y-88020565D01*
X95355611Y-88015500D01*
X95310548Y-87986539D01*
X95305724Y-87981715D01*
X95203649Y-87905214D01*
X95188054Y-87896676D01*
X95067606Y-87851522D01*
X95052351Y-87847895D01*
X95001486Y-87842369D01*
X94994672Y-87842000D01*
X94672115Y-87842000D01*
X94656876Y-87846475D01*
X94655671Y-87847865D01*
X94654000Y-87855548D01*
X94654000Y-90539884D01*
X94658475Y-90555123D01*
X94659865Y-90556328D01*
X94667548Y-90557999D01*
X94994669Y-90557999D01*
X95001490Y-90557629D01*
X95052352Y-90552105D01*
X95067604Y-90548479D01*
X95188054Y-90503324D01*
X95203649Y-90494786D01*
X95305724Y-90418285D01*
X95310548Y-90413461D01*
X95372860Y-90379435D01*
X95443675Y-90384500D01*
X95485171Y-90411168D01*
X95486739Y-90413261D01*
X95603295Y-90500615D01*
X95611703Y-90503767D01*
X95730713Y-90548382D01*
X95787477Y-90591024D01*
X95807480Y-90631213D01*
X95813982Y-90653593D01*
X95818015Y-90660412D01*
X95818017Y-90660417D01*
X95824293Y-90671028D01*
X95832988Y-90688776D01*
X95840448Y-90707617D01*
X95845110Y-90714033D01*
X95845110Y-90714034D01*
X95866436Y-90743387D01*
X95872952Y-90753307D01*
X95888883Y-90780244D01*
X95895458Y-90791362D01*
X95909779Y-90805683D01*
X95922619Y-90820716D01*
X95934528Y-90837107D01*
X95968605Y-90865298D01*
X95977384Y-90873288D01*
X97796348Y-92692253D01*
X97803888Y-92700539D01*
X97808000Y-92707018D01*
X97813777Y-92712443D01*
X97857651Y-92753643D01*
X97860493Y-92756398D01*
X97880230Y-92776135D01*
X97883427Y-92778615D01*
X97892447Y-92786318D01*
X97924679Y-92816586D01*
X97931625Y-92820405D01*
X97931628Y-92820407D01*
X97942434Y-92826348D01*
X97958953Y-92837199D01*
X97974959Y-92849614D01*
X97982228Y-92852759D01*
X97982232Y-92852762D01*
X98015537Y-92867174D01*
X98026187Y-92872391D01*
X98064940Y-92893695D01*
X98072615Y-92895666D01*
X98072616Y-92895666D01*
X98084562Y-92898733D01*
X98103266Y-92905137D01*
X98105596Y-92906145D01*
X98121855Y-92913181D01*
X98129678Y-92914420D01*
X98129688Y-92914423D01*
X98165524Y-92920099D01*
X98177144Y-92922505D01*
X98210377Y-92931037D01*
X98219970Y-92933500D01*
X98240224Y-92933500D01*
X98259934Y-92935051D01*
X98279943Y-92938220D01*
X98287835Y-92937474D01*
X98323961Y-92934059D01*
X98335819Y-92933500D01*
X102746406Y-92933500D01*
X102814527Y-92953502D01*
X102835501Y-92970405D01*
X107385001Y-97519905D01*
X107419027Y-97582217D01*
X107413962Y-97653032D01*
X107371415Y-97709868D01*
X107304895Y-97734679D01*
X107295906Y-97735000D01*
X106859871Y-97735000D01*
X106791750Y-97714998D01*
X106770776Y-97698095D01*
X105383770Y-96311089D01*
X105371384Y-96296677D01*
X105362851Y-96285082D01*
X105362846Y-96285077D01*
X105358508Y-96279182D01*
X105352930Y-96274443D01*
X105352927Y-96274440D01*
X105318232Y-96244965D01*
X105310716Y-96238035D01*
X105305021Y-96232340D01*
X105288736Y-96219456D01*
X105282749Y-96214719D01*
X105279345Y-96211928D01*
X105229297Y-96169409D01*
X105229295Y-96169408D01*
X105223715Y-96164667D01*
X105217199Y-96161339D01*
X105212150Y-96157972D01*
X105207021Y-96154805D01*
X105201284Y-96150266D01*
X105135125Y-96119345D01*
X105131225Y-96117439D01*
X105066192Y-96084231D01*
X105059084Y-96082492D01*
X105053441Y-96080393D01*
X105047678Y-96078476D01*
X105041050Y-96075378D01*
X104969583Y-96060513D01*
X104965299Y-96059543D01*
X104894390Y-96042192D01*
X104888788Y-96041844D01*
X104888785Y-96041844D01*
X104883236Y-96041500D01*
X104883238Y-96041464D01*
X104879245Y-96041225D01*
X104875053Y-96040851D01*
X104867885Y-96039360D01*
X104804120Y-96041085D01*
X104790479Y-96041454D01*
X104787072Y-96041500D01*
X96567069Y-96041500D01*
X96548121Y-96040067D01*
X96540780Y-96038950D01*
X96533883Y-96037901D01*
X96533881Y-96037901D01*
X96526651Y-96036801D01*
X96519359Y-96037394D01*
X96519356Y-96037394D01*
X96473982Y-96041085D01*
X96463767Y-96041500D01*
X96455707Y-96041500D01*
X96442417Y-96043049D01*
X96427493Y-96044789D01*
X96423118Y-96045222D01*
X96357661Y-96050546D01*
X96357658Y-96050547D01*
X96350363Y-96051140D01*
X96343399Y-96053396D01*
X96337440Y-96054587D01*
X96331585Y-96055971D01*
X96324319Y-96056818D01*
X96255673Y-96081735D01*
X96251545Y-96083152D01*
X96189064Y-96103393D01*
X96189062Y-96103394D01*
X96182101Y-96105649D01*
X96175846Y-96109445D01*
X96170372Y-96111951D01*
X96164942Y-96114670D01*
X96158063Y-96117167D01*
X96097016Y-96157191D01*
X96093327Y-96159518D01*
X96077028Y-96169409D01*
X96035693Y-96194491D01*
X96035688Y-96194495D01*
X96030892Y-96197405D01*
X96026685Y-96201121D01*
X96026684Y-96201122D01*
X96022516Y-96204803D01*
X96022493Y-96204777D01*
X96019503Y-96207426D01*
X96016264Y-96210134D01*
X96010148Y-96214144D01*
X96005121Y-96219451D01*
X96005117Y-96219454D01*
X95956872Y-96270383D01*
X95954494Y-96272825D01*
X95673595Y-96553724D01*
X95611283Y-96587750D01*
X95540468Y-96582685D01*
X95483632Y-96540138D01*
X95458821Y-96473618D01*
X95458500Y-96464629D01*
X95458500Y-96001866D01*
X95451745Y-95939684D01*
X95400615Y-95803295D01*
X95313261Y-95686739D01*
X95196705Y-95599385D01*
X95060316Y-95548255D01*
X94998134Y-95541500D01*
X92901866Y-95541500D01*
X92839684Y-95548255D01*
X92703295Y-95599385D01*
X92586739Y-95686739D01*
X92499385Y-95803295D01*
X92448255Y-95939684D01*
X92441500Y-96001866D01*
X92441500Y-96059362D01*
X92421498Y-96127483D01*
X92380867Y-96167080D01*
X92330893Y-96197405D01*
X92322516Y-96204803D01*
X92322492Y-96204776D01*
X92319500Y-96207429D01*
X92316267Y-96210132D01*
X92310148Y-96214144D01*
X92280951Y-96244965D01*
X92256872Y-96270383D01*
X92254494Y-96272825D01*
X91711089Y-96816230D01*
X91696677Y-96828616D01*
X91685082Y-96837149D01*
X91685077Y-96837154D01*
X91679182Y-96841492D01*
X91674443Y-96847070D01*
X91674440Y-96847073D01*
X91644965Y-96881768D01*
X91638035Y-96889284D01*
X91632340Y-96894979D01*
X91630060Y-96897861D01*
X91614719Y-96917251D01*
X91611928Y-96920655D01*
X91577055Y-96961703D01*
X91564667Y-96976285D01*
X91561339Y-96982801D01*
X91557972Y-96987850D01*
X91554805Y-96992979D01*
X91550266Y-96998716D01*
X91519345Y-97064875D01*
X91517442Y-97068769D01*
X91484231Y-97133808D01*
X91482492Y-97140916D01*
X91480393Y-97146559D01*
X91478476Y-97152322D01*
X91475378Y-97158950D01*
X91473888Y-97166112D01*
X91473888Y-97166113D01*
X91460514Y-97230412D01*
X91459544Y-97234696D01*
X91442192Y-97305610D01*
X91441500Y-97316764D01*
X91441464Y-97316762D01*
X91441225Y-97320755D01*
X91440851Y-97324947D01*
X91439360Y-97332115D01*
X91439558Y-97339432D01*
X91441454Y-97409521D01*
X91441500Y-97412928D01*
X91441500Y-104070430D01*
X91440067Y-104089380D01*
X91436801Y-104110849D01*
X91437394Y-104118141D01*
X91437394Y-104118144D01*
X91441085Y-104163518D01*
X91441500Y-104173733D01*
X91441500Y-104181793D01*
X91441925Y-104185437D01*
X91444789Y-104210007D01*
X91445222Y-104214382D01*
X91451140Y-104287137D01*
X91453396Y-104294101D01*
X91454587Y-104300060D01*
X91455971Y-104305915D01*
X91456818Y-104313181D01*
X91481735Y-104381827D01*
X91483152Y-104385955D01*
X91505649Y-104455399D01*
X91509445Y-104461654D01*
X91511951Y-104467128D01*
X91514670Y-104472558D01*
X91517167Y-104479437D01*
X91521180Y-104485557D01*
X91521180Y-104485558D01*
X91557186Y-104540476D01*
X91559523Y-104544180D01*
X91597405Y-104606607D01*
X91601121Y-104610815D01*
X91601122Y-104610816D01*
X91604803Y-104614984D01*
X91604776Y-104615008D01*
X91607429Y-104618000D01*
X91610132Y-104621233D01*
X91614144Y-104627352D01*
X91619456Y-104632384D01*
X91670383Y-104680628D01*
X91672825Y-104683006D01*
X92829595Y-105839776D01*
X92863621Y-105902088D01*
X92866500Y-105928871D01*
X92866500Y-106425400D01*
X92866837Y-106428646D01*
X92866837Y-106428650D01*
X92867109Y-106431266D01*
X92877474Y-106531166D01*
X92879655Y-106537702D01*
X92879655Y-106537704D01*
X92919469Y-106657041D01*
X92933450Y-106698946D01*
X93026522Y-106849348D01*
X93151697Y-106974305D01*
X93157927Y-106978145D01*
X93157928Y-106978146D01*
X93295090Y-107062694D01*
X93302262Y-107067115D01*
X93382005Y-107093564D01*
X93463611Y-107120632D01*
X93463613Y-107120632D01*
X93470139Y-107122797D01*
X93476975Y-107123497D01*
X93476978Y-107123498D01*
X93520031Y-107127909D01*
X93574600Y-107133500D01*
X94625400Y-107133500D01*
X94628646Y-107133163D01*
X94628650Y-107133163D01*
X94724308Y-107123238D01*
X94724312Y-107123237D01*
X94731166Y-107122526D01*
X94737702Y-107120345D01*
X94737704Y-107120345D01*
X94869806Y-107076272D01*
X94898946Y-107066550D01*
X95049348Y-106973478D01*
X95070608Y-106952181D01*
X97984142Y-106952181D01*
X98040967Y-107188873D01*
X98044016Y-107198258D01*
X98138592Y-107426585D01*
X98143073Y-107435379D01*
X98272208Y-107646108D01*
X98278001Y-107654081D01*
X98438516Y-107842020D01*
X98445480Y-107848984D01*
X98633419Y-108009499D01*
X98641392Y-108015292D01*
X98852121Y-108144427D01*
X98860915Y-108148908D01*
X99089242Y-108243484D01*
X99098627Y-108246533D01*
X99338940Y-108304228D01*
X99348687Y-108305771D01*
X99533376Y-108320307D01*
X99538302Y-108320500D01*
X100452885Y-108320500D01*
X100468124Y-108316025D01*
X100469329Y-108314635D01*
X100471000Y-108306952D01*
X100471000Y-108302385D01*
X100979000Y-108302385D01*
X100983475Y-108317624D01*
X100984865Y-108318829D01*
X100992548Y-108320500D01*
X101911698Y-108320500D01*
X101916624Y-108320307D01*
X102101313Y-108305771D01*
X102111060Y-108304228D01*
X102351373Y-108246533D01*
X102360758Y-108243484D01*
X102589085Y-108148908D01*
X102597879Y-108144427D01*
X102808608Y-108015292D01*
X102816581Y-108009499D01*
X103004520Y-107848984D01*
X103011484Y-107842020D01*
X103171999Y-107654081D01*
X103177792Y-107646108D01*
X103306927Y-107435379D01*
X103311408Y-107426585D01*
X103405984Y-107198258D01*
X103409033Y-107188873D01*
X103465447Y-106953892D01*
X103463469Y-106944471D01*
X103452002Y-106941500D01*
X100997115Y-106941500D01*
X100981876Y-106945975D01*
X100980671Y-106947365D01*
X100979000Y-106955048D01*
X100979000Y-108302385D01*
X100471000Y-108302385D01*
X100471000Y-106959615D01*
X100466525Y-106944376D01*
X100465135Y-106943171D01*
X100457452Y-106941500D01*
X98000055Y-106941500D01*
X97985262Y-106945844D01*
X97984142Y-106952181D01*
X95070608Y-106952181D01*
X95174305Y-106848303D01*
X95177261Y-106843507D01*
X95234614Y-106802845D01*
X95275578Y-106796000D01*
X96395430Y-106796000D01*
X96414380Y-106797433D01*
X96428615Y-106799599D01*
X96428619Y-106799599D01*
X96435849Y-106800699D01*
X96443141Y-106800106D01*
X96443144Y-106800106D01*
X96488518Y-106796415D01*
X96498733Y-106796000D01*
X96506793Y-106796000D01*
X96520083Y-106794451D01*
X96535007Y-106792711D01*
X96539382Y-106792278D01*
X96604839Y-106786954D01*
X96604842Y-106786953D01*
X96612137Y-106786360D01*
X96619101Y-106784104D01*
X96625060Y-106782913D01*
X96630915Y-106781529D01*
X96638181Y-106780682D01*
X96706827Y-106755765D01*
X96710955Y-106754348D01*
X96773436Y-106734107D01*
X96773438Y-106734106D01*
X96780399Y-106731851D01*
X96786654Y-106728055D01*
X96792128Y-106725549D01*
X96797558Y-106722830D01*
X96804437Y-106720333D01*
X96827555Y-106705176D01*
X96865476Y-106680314D01*
X96869180Y-106677977D01*
X96931607Y-106640095D01*
X96939984Y-106632697D01*
X96940008Y-106632724D01*
X96943000Y-106630071D01*
X96946233Y-106627368D01*
X96952352Y-106623356D01*
X97005628Y-106567117D01*
X97008006Y-106564675D01*
X97151573Y-106421108D01*
X97984553Y-106421108D01*
X97986531Y-106430529D01*
X97997998Y-106433500D01*
X100452885Y-106433500D01*
X100468124Y-106429025D01*
X100469329Y-106427635D01*
X100471000Y-106419952D01*
X100471000Y-106415385D01*
X100979000Y-106415385D01*
X100983475Y-106430624D01*
X100984865Y-106431829D01*
X100992548Y-106433500D01*
X103449945Y-106433500D01*
X103464738Y-106429156D01*
X103465858Y-106422819D01*
X103409033Y-106186127D01*
X103405984Y-106176742D01*
X103311408Y-105948415D01*
X103306927Y-105939621D01*
X103177792Y-105728892D01*
X103171999Y-105720919D01*
X103011484Y-105532980D01*
X103004520Y-105526016D01*
X102816581Y-105365501D01*
X102808608Y-105359708D01*
X102597879Y-105230573D01*
X102589085Y-105226092D01*
X102360758Y-105131516D01*
X102351373Y-105128467D01*
X102111060Y-105070772D01*
X102101313Y-105069229D01*
X101916624Y-105054693D01*
X101911697Y-105054500D01*
X100997115Y-105054500D01*
X100981876Y-105058975D01*
X100980671Y-105060365D01*
X100979000Y-105068048D01*
X100979000Y-106415385D01*
X100471000Y-106415385D01*
X100471000Y-105072615D01*
X100466525Y-105057376D01*
X100465135Y-105056171D01*
X100457452Y-105054500D01*
X99538303Y-105054500D01*
X99533376Y-105054693D01*
X99348687Y-105069229D01*
X99338940Y-105070772D01*
X99098627Y-105128467D01*
X99089242Y-105131516D01*
X98860915Y-105226092D01*
X98852121Y-105230573D01*
X98641392Y-105359708D01*
X98633419Y-105365501D01*
X98445480Y-105526016D01*
X98438516Y-105532980D01*
X98278001Y-105720919D01*
X98272208Y-105728892D01*
X98143073Y-105939621D01*
X98138592Y-105948415D01*
X98044016Y-106176742D01*
X98040967Y-106186127D01*
X97984553Y-106421108D01*
X97151573Y-106421108D01*
X98696001Y-104876680D01*
X103791500Y-104876680D01*
X103791693Y-104879128D01*
X103791693Y-104879137D01*
X103796601Y-104941500D01*
X103806622Y-105068826D01*
X103807776Y-105073633D01*
X103807777Y-105073639D01*
X103822948Y-105136829D01*
X103866645Y-105318840D01*
X103868538Y-105323411D01*
X103868539Y-105323413D01*
X103955345Y-105532980D01*
X103965040Y-105556387D01*
X104099384Y-105775616D01*
X104266369Y-105971131D01*
X104461884Y-106138116D01*
X104681113Y-106272460D01*
X104685683Y-106274353D01*
X104685687Y-106274355D01*
X104914087Y-106368961D01*
X104918660Y-106370855D01*
X105005502Y-106391704D01*
X105163861Y-106429723D01*
X105163867Y-106429724D01*
X105168674Y-106430878D01*
X105425000Y-106451051D01*
X105681326Y-106430878D01*
X105686133Y-106429724D01*
X105686139Y-106429723D01*
X105844498Y-106391704D01*
X105931340Y-106370855D01*
X105935913Y-106368961D01*
X105963208Y-106357655D01*
X112739858Y-106357655D01*
X112775104Y-106616638D01*
X112776412Y-106621124D01*
X112776412Y-106621126D01*
X112792980Y-106677967D01*
X112848243Y-106867567D01*
X112957668Y-107104928D01*
X112969673Y-107123238D01*
X113098410Y-107319596D01*
X113098414Y-107319601D01*
X113100976Y-107323509D01*
X113275018Y-107518506D01*
X113475970Y-107685637D01*
X113479973Y-107688066D01*
X113695422Y-107818804D01*
X113695426Y-107818806D01*
X113699419Y-107821229D01*
X113940455Y-107922303D01*
X114193783Y-107986641D01*
X114198434Y-107987109D01*
X114198438Y-107987110D01*
X114391308Y-108006531D01*
X114410867Y-108008500D01*
X114566354Y-108008500D01*
X114568679Y-108008327D01*
X114568685Y-108008327D01*
X114756000Y-107994407D01*
X114756004Y-107994406D01*
X114760652Y-107994061D01*
X114765200Y-107993032D01*
X114765206Y-107993031D01*
X114951601Y-107950853D01*
X115015577Y-107936377D01*
X115051769Y-107922303D01*
X115254824Y-107843340D01*
X115254827Y-107843339D01*
X115259177Y-107841647D01*
X115486098Y-107711951D01*
X115691357Y-107550138D01*
X115870443Y-107359763D01*
X116019424Y-107145009D01*
X116025100Y-107133500D01*
X116132960Y-106914781D01*
X116132961Y-106914778D01*
X116135025Y-106910593D01*
X116171574Y-106796415D01*
X116213280Y-106666123D01*
X116214707Y-106661665D01*
X116256721Y-106403693D01*
X116260142Y-106142345D01*
X116224896Y-105883362D01*
X116210473Y-105833877D01*
X116153068Y-105636932D01*
X116151757Y-105632433D01*
X116042332Y-105395072D01*
X115966232Y-105279000D01*
X115901590Y-105180404D01*
X115901586Y-105180399D01*
X115899024Y-105176491D01*
X115724982Y-104981494D01*
X115524030Y-104814363D01*
X115445583Y-104766760D01*
X115304578Y-104681196D01*
X115304574Y-104681194D01*
X115300581Y-104678771D01*
X115059545Y-104577697D01*
X114806217Y-104513359D01*
X114801566Y-104512891D01*
X114801562Y-104512890D01*
X114592271Y-104491816D01*
X114589133Y-104491500D01*
X114433646Y-104491500D01*
X114431321Y-104491673D01*
X114431315Y-104491673D01*
X114244000Y-104505593D01*
X114243996Y-104505594D01*
X114239348Y-104505939D01*
X114234800Y-104506968D01*
X114234794Y-104506969D01*
X114086717Y-104540476D01*
X113984423Y-104563623D01*
X113980071Y-104565315D01*
X113980069Y-104565316D01*
X113745176Y-104656660D01*
X113745173Y-104656661D01*
X113740823Y-104658353D01*
X113513902Y-104788049D01*
X113308643Y-104949862D01*
X113129557Y-105140237D01*
X113066410Y-105231263D01*
X113002483Y-105323413D01*
X112980576Y-105354991D01*
X112978510Y-105359181D01*
X112978508Y-105359184D01*
X112879178Y-105560607D01*
X112864975Y-105589407D01*
X112785293Y-105838335D01*
X112743279Y-106096307D01*
X112739858Y-106357655D01*
X105963208Y-106357655D01*
X106164313Y-106274355D01*
X106164317Y-106274353D01*
X106168887Y-106272460D01*
X106388116Y-106138116D01*
X106583631Y-105971131D01*
X106750616Y-105775616D01*
X106884960Y-105556387D01*
X106894656Y-105532980D01*
X106981461Y-105323413D01*
X106981462Y-105323411D01*
X106983355Y-105318840D01*
X107027052Y-105136829D01*
X107042223Y-105073639D01*
X107042224Y-105073633D01*
X107043378Y-105068826D01*
X107053399Y-104941500D01*
X107058307Y-104879137D01*
X107058307Y-104879128D01*
X107058500Y-104876680D01*
X107058500Y-102498320D01*
X107058289Y-102495632D01*
X107043766Y-102311108D01*
X107043378Y-102306174D01*
X107036890Y-102279147D01*
X106984510Y-102060972D01*
X106983355Y-102056160D01*
X106956170Y-101990529D01*
X106886855Y-101823187D01*
X106886853Y-101823183D01*
X106884960Y-101818613D01*
X106750616Y-101599384D01*
X106583631Y-101403869D01*
X106388116Y-101236884D01*
X106168887Y-101102540D01*
X106164317Y-101100647D01*
X106164313Y-101100645D01*
X105935913Y-101006039D01*
X105935911Y-101006038D01*
X105931340Y-101004145D01*
X105823017Y-100978139D01*
X105686139Y-100945277D01*
X105686133Y-100945276D01*
X105681326Y-100944122D01*
X105425000Y-100923949D01*
X105168674Y-100944122D01*
X105163867Y-100945276D01*
X105163861Y-100945277D01*
X105026983Y-100978139D01*
X104918660Y-101004145D01*
X104914089Y-101006038D01*
X104914087Y-101006039D01*
X104685687Y-101100645D01*
X104685683Y-101100647D01*
X104681113Y-101102540D01*
X104461884Y-101236884D01*
X104266369Y-101403869D01*
X104099384Y-101599384D01*
X103965040Y-101818613D01*
X103963147Y-101823183D01*
X103963145Y-101823187D01*
X103893830Y-101990529D01*
X103866645Y-102056160D01*
X103865490Y-102060972D01*
X103813111Y-102279147D01*
X103806622Y-102306174D01*
X103806234Y-102311108D01*
X103791712Y-102495632D01*
X103791500Y-102498320D01*
X103791500Y-104876680D01*
X98696001Y-104876680D01*
X101089776Y-102482905D01*
X101152088Y-102448879D01*
X101178871Y-102446000D01*
X102041354Y-102446000D01*
X102043679Y-102445827D01*
X102043685Y-102445827D01*
X102231000Y-102431907D01*
X102231004Y-102431906D01*
X102235652Y-102431561D01*
X102240200Y-102430532D01*
X102240206Y-102430531D01*
X102427924Y-102388054D01*
X102490577Y-102373877D01*
X102526769Y-102359803D01*
X102729824Y-102280840D01*
X102729827Y-102280839D01*
X102734177Y-102279147D01*
X102961098Y-102149451D01*
X103166357Y-101987638D01*
X103345443Y-101797263D01*
X103479792Y-101603601D01*
X103491759Y-101586351D01*
X103491761Y-101586348D01*
X103494424Y-101582509D01*
X103496492Y-101578316D01*
X103607960Y-101352281D01*
X103607961Y-101352278D01*
X103610025Y-101348093D01*
X103634383Y-101272000D01*
X103688280Y-101103623D01*
X103689707Y-101099165D01*
X103731721Y-100841193D01*
X103734444Y-100633188D01*
X103735081Y-100584522D01*
X103735081Y-100584519D01*
X103735142Y-100579845D01*
X103699896Y-100320862D01*
X103685473Y-100271377D01*
X103634560Y-100096705D01*
X103626757Y-100069933D01*
X103517332Y-99832572D01*
X103452257Y-99733316D01*
X103376590Y-99617904D01*
X103376586Y-99617899D01*
X103374024Y-99613991D01*
X103199982Y-99418994D01*
X102999030Y-99251863D01*
X102844505Y-99158095D01*
X102779578Y-99118696D01*
X102779574Y-99118694D01*
X102775581Y-99116271D01*
X102534545Y-99015197D01*
X102281217Y-98950859D01*
X102276566Y-98950391D01*
X102276562Y-98950390D01*
X102067271Y-98929316D01*
X102064133Y-98929000D01*
X99408646Y-98929000D01*
X99406321Y-98929173D01*
X99406315Y-98929173D01*
X99219000Y-98943093D01*
X99218996Y-98943094D01*
X99214348Y-98943439D01*
X99209800Y-98944468D01*
X99209794Y-98944469D01*
X99053192Y-98979905D01*
X98959423Y-99001123D01*
X98955071Y-99002815D01*
X98955069Y-99002816D01*
X98720176Y-99094160D01*
X98720173Y-99094161D01*
X98715823Y-99095853D01*
X98488902Y-99225549D01*
X98283643Y-99387362D01*
X98104557Y-99577737D01*
X97955576Y-99792491D01*
X97953510Y-99796681D01*
X97953508Y-99796684D01*
X97879859Y-99946031D01*
X97839975Y-100026907D01*
X97838553Y-100031350D01*
X97838552Y-100031352D01*
X97803388Y-100141205D01*
X97760293Y-100275835D01*
X97718279Y-100533807D01*
X97717794Y-100570849D01*
X97715141Y-100773566D01*
X97714858Y-100795155D01*
X97750104Y-101054138D01*
X97751412Y-101058624D01*
X97751412Y-101058626D01*
X97764966Y-101105126D01*
X97823243Y-101305067D01*
X97825203Y-101309320D01*
X97825204Y-101309321D01*
X97841029Y-101343648D01*
X97932668Y-101542428D01*
X97935231Y-101546337D01*
X98073410Y-101757096D01*
X98073414Y-101757101D01*
X98075976Y-101761009D01*
X98250018Y-101956006D01*
X98450970Y-102123137D01*
X98454973Y-102125566D01*
X98670422Y-102256304D01*
X98670426Y-102256306D01*
X98674419Y-102258729D01*
X98849511Y-102332151D01*
X98904594Y-102376937D01*
X98926721Y-102444398D01*
X98908864Y-102513112D01*
X98889878Y-102537441D01*
X96185224Y-105242095D01*
X96122912Y-105276121D01*
X96096129Y-105279000D01*
X95275590Y-105279000D01*
X95207469Y-105258998D01*
X95177086Y-105231482D01*
X95173478Y-105225652D01*
X95048303Y-105100695D01*
X95043765Y-105097898D01*
X95003176Y-105040647D01*
X94999946Y-104969724D01*
X95035572Y-104908313D01*
X95044068Y-104900938D01*
X95054207Y-104892902D01*
X95168739Y-104778171D01*
X95177751Y-104766760D01*
X95262816Y-104628757D01*
X95268963Y-104615576D01*
X95320138Y-104461290D01*
X95323005Y-104447914D01*
X95332672Y-104353562D01*
X95333000Y-104347146D01*
X95333000Y-104234615D01*
X95328525Y-104219376D01*
X95327135Y-104218171D01*
X95319452Y-104216500D01*
X93972000Y-104216500D01*
X93903879Y-104196498D01*
X93857386Y-104142842D01*
X93846000Y-104090500D01*
X93846000Y-103834500D01*
X93866002Y-103766379D01*
X93919658Y-103719886D01*
X93972000Y-103708500D01*
X95314884Y-103708500D01*
X95330123Y-103704025D01*
X95331328Y-103702635D01*
X95332999Y-103694952D01*
X95332999Y-103577905D01*
X95332662Y-103571386D01*
X95322743Y-103475794D01*
X95319851Y-103462400D01*
X95268412Y-103308216D01*
X95262239Y-103295038D01*
X95176937Y-103157193D01*
X95167901Y-103145792D01*
X95053171Y-103031261D01*
X95041760Y-103022249D01*
X94903757Y-102937184D01*
X94890576Y-102931037D01*
X94807833Y-102903592D01*
X94749473Y-102863161D01*
X94722237Y-102797597D01*
X94734771Y-102727715D01*
X94783096Y-102675703D01*
X94847501Y-102657999D01*
X94994669Y-102657999D01*
X95001490Y-102657629D01*
X95052352Y-102652105D01*
X95067604Y-102648479D01*
X95188054Y-102603324D01*
X95203649Y-102594786D01*
X95305724Y-102518285D01*
X95318285Y-102505724D01*
X95394786Y-102403649D01*
X95403324Y-102388054D01*
X95448478Y-102267606D01*
X95452105Y-102252351D01*
X95457631Y-102201486D01*
X95458000Y-102194672D01*
X95458000Y-101672115D01*
X95453525Y-101656876D01*
X95452135Y-101655671D01*
X95444452Y-101654000D01*
X93822000Y-101654000D01*
X93753879Y-101633998D01*
X93707386Y-101580342D01*
X93696000Y-101528000D01*
X93696000Y-101272000D01*
X93716002Y-101203879D01*
X93769658Y-101157386D01*
X93822000Y-101146000D01*
X95439884Y-101146000D01*
X95455123Y-101141525D01*
X95456328Y-101140135D01*
X95457999Y-101132452D01*
X95457999Y-100605331D01*
X95457629Y-100598510D01*
X95452105Y-100547648D01*
X95448479Y-100532396D01*
X95403324Y-100411946D01*
X95394786Y-100396352D01*
X95342047Y-100325982D01*
X95317199Y-100259476D01*
X95332252Y-100190093D01*
X95342047Y-100174852D01*
X95367264Y-100141205D01*
X95400615Y-100096705D01*
X95451745Y-99960316D01*
X95458500Y-99898134D01*
X95458500Y-98966371D01*
X95478502Y-98898250D01*
X95495405Y-98877276D01*
X96777276Y-97595405D01*
X96839588Y-97561379D01*
X96866371Y-97558500D01*
X104433629Y-97558500D01*
X104501750Y-97578502D01*
X104522724Y-97595405D01*
X105919095Y-98991776D01*
X105953121Y-99054088D01*
X105956000Y-99080871D01*
X105956000Y-99942634D01*
X105962755Y-100004816D01*
X106013885Y-100141205D01*
X106101239Y-100257761D01*
X106217795Y-100345115D01*
X106354184Y-100396245D01*
X106416366Y-100403000D01*
X107640550Y-100403000D01*
X107708671Y-100423002D01*
X107729645Y-100439905D01*
X107868953Y-100579213D01*
X107902979Y-100641525D01*
X107903055Y-100692571D01*
X107902203Y-100695139D01*
X107891500Y-100799600D01*
X107891500Y-101800400D01*
X107891837Y-101803646D01*
X107891837Y-101803650D01*
X107893390Y-101818613D01*
X107902474Y-101906166D01*
X107904655Y-101912702D01*
X107904655Y-101912704D01*
X107919102Y-101956006D01*
X107958450Y-102073946D01*
X108051522Y-102224348D01*
X108176697Y-102349305D01*
X108182927Y-102353145D01*
X108182928Y-102353146D01*
X108310702Y-102431907D01*
X108327262Y-102442115D01*
X108347655Y-102448879D01*
X108488611Y-102495632D01*
X108488613Y-102495632D01*
X108495139Y-102497797D01*
X108501975Y-102498497D01*
X108501978Y-102498498D01*
X108545031Y-102502909D01*
X108599600Y-102508500D01*
X109225051Y-102508500D01*
X109293172Y-102528502D01*
X109314146Y-102545405D01*
X109676341Y-102907600D01*
X109684331Y-102916381D01*
X109684339Y-102916390D01*
X109688584Y-102923080D01*
X109715385Y-102948248D01*
X109740273Y-102971619D01*
X109743115Y-102974374D01*
X109763667Y-102994926D01*
X109766801Y-102997357D01*
X109767163Y-102997638D01*
X109776191Y-103005348D01*
X109809867Y-103036972D01*
X109816818Y-103040793D01*
X109816819Y-103040794D01*
X109828655Y-103047301D01*
X109845184Y-103058158D01*
X109855869Y-103066447D01*
X109855871Y-103066448D01*
X109862131Y-103071304D01*
X109904544Y-103089657D01*
X109915181Y-103094868D01*
X109955663Y-103117124D01*
X109963342Y-103119096D01*
X109963343Y-103119096D01*
X109976434Y-103122457D01*
X109995136Y-103128859D01*
X110014823Y-103137379D01*
X110022652Y-103138619D01*
X110060448Y-103144605D01*
X110072074Y-103147013D01*
X110109135Y-103156529D01*
X110109136Y-103156529D01*
X110116812Y-103158500D01*
X110138258Y-103158500D01*
X110157968Y-103160051D01*
X110179151Y-103163406D01*
X110225140Y-103159059D01*
X110236995Y-103158500D01*
X111567944Y-103158500D01*
X111579800Y-103159059D01*
X111579803Y-103159059D01*
X111587537Y-103160788D01*
X111658369Y-103158562D01*
X111662327Y-103158500D01*
X111691432Y-103158500D01*
X111695832Y-103157944D01*
X111707664Y-103157012D01*
X111753831Y-103155562D01*
X111774421Y-103149580D01*
X111793782Y-103145570D01*
X111801424Y-103144605D01*
X111807204Y-103143875D01*
X111807205Y-103143875D01*
X111815064Y-103142882D01*
X111822429Y-103139966D01*
X111822433Y-103139965D01*
X111858021Y-103125874D01*
X111869231Y-103122035D01*
X111913600Y-103109145D01*
X111932065Y-103098225D01*
X111949805Y-103089534D01*
X111969756Y-103081635D01*
X112007129Y-103054482D01*
X112017048Y-103047967D01*
X112049977Y-103028493D01*
X112049981Y-103028490D01*
X112056807Y-103024453D01*
X112071971Y-103009289D01*
X112087005Y-102996448D01*
X112097943Y-102988501D01*
X112104357Y-102983841D01*
X112133803Y-102948247D01*
X112141792Y-102939468D01*
X114007600Y-101073659D01*
X114016381Y-101065669D01*
X114016390Y-101065661D01*
X114023080Y-101061416D01*
X114071621Y-101009725D01*
X114074375Y-101006884D01*
X114094926Y-100986333D01*
X114097638Y-100982837D01*
X114105349Y-100973808D01*
X114131544Y-100945913D01*
X114136972Y-100940133D01*
X114145656Y-100924337D01*
X114147301Y-100921345D01*
X114158158Y-100904816D01*
X114166447Y-100894131D01*
X114166448Y-100894129D01*
X114171304Y-100887869D01*
X114189657Y-100845456D01*
X114194868Y-100834819D01*
X114217124Y-100794337D01*
X114222457Y-100773566D01*
X114228859Y-100754864D01*
X114237379Y-100735177D01*
X114244605Y-100689552D01*
X114247013Y-100677926D01*
X114256529Y-100640865D01*
X114256529Y-100640864D01*
X114258500Y-100633188D01*
X114258500Y-100611742D01*
X114260051Y-100592031D01*
X114262166Y-100578678D01*
X114263406Y-100570849D01*
X114259059Y-100524864D01*
X114258500Y-100513006D01*
X114258500Y-100434336D01*
X114278502Y-100366215D01*
X114332158Y-100319722D01*
X114402432Y-100309618D01*
X114437750Y-100320141D01*
X114447192Y-100324544D01*
X114457484Y-100328290D01*
X114672241Y-100385834D01*
X114683036Y-100387737D01*
X114904525Y-100407115D01*
X114915475Y-100407115D01*
X115136964Y-100387737D01*
X115147759Y-100385834D01*
X115362516Y-100328290D01*
X115372808Y-100324544D01*
X115574316Y-100230579D01*
X115583802Y-100225101D01*
X115641358Y-100184801D01*
X115649733Y-100174323D01*
X115642665Y-100160875D01*
X114639885Y-99158095D01*
X114605859Y-99095783D01*
X114607694Y-99070132D01*
X115274408Y-99070132D01*
X115274539Y-99071965D01*
X115278790Y-99078580D01*
X116002597Y-99802387D01*
X116014371Y-99808817D01*
X116026387Y-99799520D01*
X116066101Y-99742802D01*
X116071579Y-99733316D01*
X116165544Y-99531808D01*
X116169290Y-99521516D01*
X116226834Y-99306759D01*
X116228737Y-99295964D01*
X116248115Y-99074475D01*
X116248115Y-99063525D01*
X116228737Y-98842036D01*
X116226834Y-98831241D01*
X116169290Y-98616484D01*
X116165544Y-98606192D01*
X116071579Y-98404684D01*
X116066101Y-98395198D01*
X116025801Y-98337642D01*
X116015323Y-98329267D01*
X116001875Y-98336335D01*
X115282022Y-99056188D01*
X115274408Y-99070132D01*
X114607694Y-99070132D01*
X114610924Y-99024968D01*
X114639885Y-98979905D01*
X115643387Y-97976403D01*
X115649817Y-97964629D01*
X115640520Y-97952613D01*
X115583802Y-97912899D01*
X115574316Y-97907421D01*
X115372808Y-97813456D01*
X115362516Y-97809710D01*
X115147759Y-97752166D01*
X115136964Y-97750263D01*
X114915475Y-97730885D01*
X114904525Y-97730885D01*
X114683036Y-97750263D01*
X114672241Y-97752166D01*
X114457484Y-97809710D01*
X114447192Y-97813456D01*
X114437750Y-97817859D01*
X114367558Y-97828520D01*
X114302745Y-97799540D01*
X114263889Y-97740120D01*
X114258500Y-97703664D01*
X114258500Y-91182056D01*
X114259059Y-91170200D01*
X114259059Y-91170197D01*
X114260788Y-91162463D01*
X114258562Y-91091631D01*
X114258500Y-91087673D01*
X114258500Y-91058568D01*
X114257944Y-91054168D01*
X114257012Y-91042330D01*
X114255811Y-91004094D01*
X114255562Y-90996169D01*
X114249580Y-90975579D01*
X114245570Y-90956216D01*
X114243875Y-90942796D01*
X114243875Y-90942795D01*
X114242882Y-90934936D01*
X114239966Y-90927571D01*
X114239965Y-90927567D01*
X114225874Y-90891979D01*
X114222035Y-90880769D01*
X114209145Y-90836400D01*
X114198229Y-90817943D01*
X114189534Y-90800193D01*
X114181635Y-90780244D01*
X114164532Y-90756704D01*
X114154477Y-90742864D01*
X114147960Y-90732943D01*
X114134835Y-90710750D01*
X114124452Y-90693193D01*
X114109291Y-90678032D01*
X114096449Y-90662997D01*
X114095525Y-90661725D01*
X114083841Y-90645643D01*
X114048241Y-90616192D01*
X114039462Y-90608203D01*
X108295405Y-84864145D01*
X108261379Y-84801833D01*
X108258500Y-84775050D01*
X108258500Y-79721311D01*
X108278502Y-79653190D01*
X108318196Y-79614167D01*
X108424348Y-79548478D01*
X108549305Y-79423303D01*
X108642115Y-79272738D01*
X108667955Y-79194833D01*
X108708386Y-79136473D01*
X108773950Y-79109236D01*
X108787548Y-79108500D01*
X108914364Y-79108500D01*
X108930807Y-79109578D01*
X108962500Y-79113750D01*
X108991363Y-79109950D01*
X109047472Y-79115279D01*
X109070139Y-79122797D01*
X109076975Y-79123497D01*
X109076978Y-79123498D01*
X109120031Y-79127909D01*
X109174600Y-79133500D01*
X109950400Y-79133500D01*
X109953646Y-79133163D01*
X109953650Y-79133163D01*
X110049308Y-79123238D01*
X110049312Y-79123237D01*
X110056166Y-79122526D01*
X110062702Y-79120345D01*
X110062704Y-79120345D01*
X110216998Y-79068868D01*
X110223946Y-79066550D01*
X110374348Y-78973478D01*
X110395852Y-78951937D01*
X110494131Y-78853486D01*
X110499305Y-78848303D01*
X110502102Y-78843765D01*
X110559353Y-78803176D01*
X110630276Y-78799946D01*
X110691687Y-78835572D01*
X110699062Y-78844068D01*
X110707098Y-78854207D01*
X110821829Y-78968739D01*
X110833240Y-78977751D01*
X110971243Y-79062816D01*
X110984424Y-79068963D01*
X111138710Y-79120138D01*
X111152086Y-79123005D01*
X111246438Y-79132672D01*
X111252854Y-79133000D01*
X111365385Y-79133000D01*
X111380624Y-79128525D01*
X111381829Y-79127135D01*
X111383500Y-79119452D01*
X111383500Y-77772000D01*
X111403502Y-77703879D01*
X111457158Y-77657386D01*
X111509500Y-77646000D01*
X111765500Y-77646000D01*
X111833621Y-77666002D01*
X111880114Y-77719658D01*
X111891500Y-77772000D01*
X111891500Y-79114884D01*
X111895975Y-79130123D01*
X111897365Y-79131328D01*
X111905048Y-79132999D01*
X112022095Y-79132999D01*
X112028614Y-79132662D01*
X112124206Y-79122743D01*
X112137600Y-79119851D01*
X112291784Y-79068412D01*
X112304962Y-79062239D01*
X112442807Y-78976937D01*
X112454208Y-78967901D01*
X112535452Y-78886516D01*
X112597735Y-78852437D01*
X112668555Y-78857440D01*
X112713644Y-78886361D01*
X112776697Y-78949305D01*
X112782927Y-78953145D01*
X112782928Y-78953146D01*
X112920288Y-79037816D01*
X112927262Y-79042115D01*
X112945367Y-79048120D01*
X113088611Y-79095632D01*
X113088613Y-79095632D01*
X113095139Y-79097797D01*
X113101975Y-79098497D01*
X113101978Y-79098498D01*
X113145031Y-79102909D01*
X113199600Y-79108500D01*
X114000400Y-79108500D01*
X114003646Y-79108163D01*
X114003650Y-79108163D01*
X114099308Y-79098238D01*
X114099312Y-79098237D01*
X114106166Y-79097526D01*
X114112702Y-79095345D01*
X114112704Y-79095345D01*
X114254253Y-79048120D01*
X114273946Y-79041550D01*
X114424348Y-78948478D01*
X114429915Y-78942901D01*
X114511138Y-78861537D01*
X114573421Y-78827458D01*
X114644241Y-78832461D01*
X114689329Y-78861382D01*
X114771829Y-78943739D01*
X114783240Y-78952751D01*
X114921243Y-79037816D01*
X114934424Y-79043963D01*
X115088710Y-79095138D01*
X115102086Y-79098005D01*
X115196438Y-79107672D01*
X115202854Y-79108000D01*
X115327885Y-79108000D01*
X115343124Y-79103525D01*
X115344329Y-79102135D01*
X115346000Y-79094452D01*
X115346000Y-79089884D01*
X115854000Y-79089884D01*
X115858475Y-79105123D01*
X115859865Y-79106328D01*
X115867548Y-79107999D01*
X115997095Y-79107999D01*
X116003614Y-79107662D01*
X116099206Y-79097743D01*
X116112600Y-79094851D01*
X116266784Y-79043412D01*
X116279962Y-79037239D01*
X116417807Y-78951937D01*
X116429208Y-78942901D01*
X116543739Y-78828171D01*
X116552751Y-78816760D01*
X116637816Y-78678757D01*
X116643963Y-78665576D01*
X116695138Y-78511290D01*
X116698005Y-78497914D01*
X116707672Y-78403562D01*
X116708000Y-78397146D01*
X116708000Y-78172115D01*
X116703525Y-78156876D01*
X116702135Y-78155671D01*
X116694452Y-78154000D01*
X115872115Y-78154000D01*
X115856876Y-78158475D01*
X115855671Y-78159865D01*
X115854000Y-78167548D01*
X115854000Y-79089884D01*
X115346000Y-79089884D01*
X115346000Y-77627885D01*
X115854000Y-77627885D01*
X115858475Y-77643124D01*
X115859865Y-77644329D01*
X115867548Y-77646000D01*
X116689884Y-77646000D01*
X116705123Y-77641525D01*
X116706328Y-77640135D01*
X116707999Y-77632452D01*
X116707999Y-77402905D01*
X116707662Y-77396386D01*
X116697743Y-77300794D01*
X116694851Y-77287400D01*
X116643412Y-77133216D01*
X116637239Y-77120038D01*
X116551937Y-76982193D01*
X116542901Y-76970792D01*
X116428171Y-76856261D01*
X116416760Y-76847249D01*
X116278757Y-76762184D01*
X116265576Y-76756037D01*
X116111290Y-76704862D01*
X116097914Y-76701995D01*
X116003562Y-76692328D01*
X115997145Y-76692000D01*
X115872115Y-76692000D01*
X115856876Y-76696475D01*
X115855671Y-76697865D01*
X115854000Y-76705548D01*
X115854000Y-77627885D01*
X115346000Y-77627885D01*
X115346000Y-76710116D01*
X115341525Y-76694877D01*
X115340135Y-76693672D01*
X115332452Y-76692001D01*
X115202905Y-76692001D01*
X115196386Y-76692338D01*
X115100794Y-76702257D01*
X115087400Y-76705149D01*
X114933216Y-76756588D01*
X114920038Y-76762761D01*
X114782193Y-76848063D01*
X114770792Y-76857099D01*
X114689570Y-76938462D01*
X114627287Y-76972541D01*
X114556467Y-76967538D01*
X114511380Y-76938617D01*
X114428488Y-76855870D01*
X114428483Y-76855866D01*
X114423303Y-76850695D01*
X114391135Y-76830866D01*
X114278968Y-76761725D01*
X114278966Y-76761724D01*
X114272738Y-76757885D01*
X114192360Y-76731225D01*
X114111389Y-76704368D01*
X114111387Y-76704368D01*
X114104861Y-76702203D01*
X114098025Y-76701503D01*
X114098022Y-76701502D01*
X114054969Y-76697091D01*
X114000400Y-76691500D01*
X113304239Y-76691500D01*
X113236118Y-76671498D01*
X113215144Y-76654595D01*
X112089399Y-75528850D01*
X112055373Y-75466538D01*
X112053231Y-75453363D01*
X112052598Y-75447540D01*
X112051745Y-75439684D01*
X112000615Y-75303295D01*
X111913261Y-75186739D01*
X111906080Y-75181357D01*
X111798628Y-75100826D01*
X111756113Y-75043967D01*
X111751087Y-74973148D01*
X111785147Y-74910855D01*
X111798628Y-74899174D01*
X111886024Y-74833674D01*
X111952530Y-74808826D01*
X111961589Y-74808500D01*
X112412462Y-74808500D01*
X112480583Y-74828502D01*
X112527076Y-74882158D01*
X112531986Y-74894624D01*
X112558450Y-74973946D01*
X112651522Y-75124348D01*
X112776697Y-75249305D01*
X112782927Y-75253145D01*
X112782928Y-75253146D01*
X112920090Y-75337694D01*
X112927262Y-75342115D01*
X113007005Y-75368564D01*
X113088611Y-75395632D01*
X113088613Y-75395632D01*
X113095139Y-75397797D01*
X113101975Y-75398497D01*
X113101978Y-75398498D01*
X113145031Y-75402909D01*
X113199600Y-75408500D01*
X114000400Y-75408500D01*
X114003646Y-75408163D01*
X114003650Y-75408163D01*
X114099308Y-75398238D01*
X114099312Y-75398237D01*
X114106166Y-75397526D01*
X114112702Y-75395345D01*
X114112704Y-75395345D01*
X114244806Y-75351272D01*
X114273946Y-75341550D01*
X114424348Y-75248478D01*
X114510784Y-75161891D01*
X114573066Y-75127812D01*
X114643886Y-75132815D01*
X114688976Y-75161736D01*
X114776697Y-75249305D01*
X114782927Y-75253145D01*
X114782928Y-75253146D01*
X114920090Y-75337694D01*
X114927262Y-75342115D01*
X115007005Y-75368564D01*
X115088611Y-75395632D01*
X115088613Y-75395632D01*
X115095139Y-75397797D01*
X115101975Y-75398497D01*
X115101978Y-75398498D01*
X115145031Y-75402909D01*
X115199600Y-75408500D01*
X116000400Y-75408500D01*
X116003646Y-75408163D01*
X116003650Y-75408163D01*
X116099308Y-75398238D01*
X116099312Y-75398237D01*
X116106166Y-75397526D01*
X116112702Y-75395345D01*
X116112704Y-75395345D01*
X116244806Y-75351272D01*
X116273946Y-75341550D01*
X116424348Y-75248478D01*
X116549305Y-75123303D01*
X116595434Y-75048469D01*
X116638275Y-74978968D01*
X116638276Y-74978966D01*
X116642115Y-74972738D01*
X116672159Y-74882158D01*
X116695632Y-74811389D01*
X116695632Y-74811387D01*
X116697797Y-74804861D01*
X116708500Y-74700400D01*
X116708500Y-73699600D01*
X116708163Y-73696350D01*
X116698238Y-73600692D01*
X116698237Y-73600688D01*
X116697526Y-73593834D01*
X116670798Y-73513719D01*
X116643868Y-73433002D01*
X116641550Y-73426054D01*
X116548478Y-73275652D01*
X116506275Y-73233522D01*
X116428483Y-73155866D01*
X116423303Y-73150695D01*
X116379339Y-73123595D01*
X116278968Y-73061725D01*
X116278966Y-73061724D01*
X116272738Y-73057885D01*
X116192995Y-73031436D01*
X116111389Y-73004368D01*
X116111387Y-73004368D01*
X116104861Y-73002203D01*
X116098025Y-73001503D01*
X116098022Y-73001502D01*
X116054969Y-72997091D01*
X116000400Y-72991500D01*
X115304239Y-72991500D01*
X115236118Y-72971498D01*
X115215144Y-72954595D01*
X114725644Y-72465095D01*
X114691618Y-72402783D01*
X114696683Y-72331968D01*
X114739230Y-72275132D01*
X114805750Y-72250321D01*
X114814739Y-72250000D01*
X116865500Y-72250000D01*
X116933621Y-72270002D01*
G37*
%TD.AperFunction*%
%TD*%
M02*
