%TF.GenerationSoftware,KiCad,Pcbnew,(6.0.6)*%
%TF.CreationDate,2023-01-19T12:46:02-03:00*%
%TF.ProjectId,mod_sensores,6d6f645f-7365-46e7-936f-7265732e6b69,rev?*%
%TF.SameCoordinates,Original*%
%TF.FileFunction,Legend,Top*%
%TF.FilePolarity,Positive*%
%FSLAX46Y46*%
G04 Gerber Fmt 4.6, Leading zero omitted, Abs format (unit mm)*
G04 Created by KiCad (PCBNEW (6.0.6)) date 2023-01-19 12:46:02*
%MOMM*%
%LPD*%
G01*
G04 APERTURE LIST*
%ADD10C,0.150000*%
%ADD11C,0.120000*%
%ADD12C,0.127000*%
%ADD13C,0.200000*%
%ADD14C,0.400000*%
%ADD15C,0.508000*%
G04 APERTURE END LIST*
D10*
%TO.C,U2*%
X89738095Y-98702380D02*
X89738095Y-99511904D01*
X89785714Y-99607142D01*
X89833333Y-99654761D01*
X89928571Y-99702380D01*
X90119047Y-99702380D01*
X90214285Y-99654761D01*
X90261904Y-99607142D01*
X90309523Y-99511904D01*
X90309523Y-98702380D01*
X90738095Y-98797619D02*
X90785714Y-98750000D01*
X90880952Y-98702380D01*
X91119047Y-98702380D01*
X91214285Y-98750000D01*
X91261904Y-98797619D01*
X91309523Y-98892857D01*
X91309523Y-98988095D01*
X91261904Y-99130952D01*
X90690476Y-99702380D01*
X91309523Y-99702380D01*
%TO.C,C3*%
X110433333Y-80107142D02*
X110385714Y-80154761D01*
X110242857Y-80202380D01*
X110147619Y-80202380D01*
X110004761Y-80154761D01*
X109909523Y-80059523D01*
X109861904Y-79964285D01*
X109814285Y-79773809D01*
X109814285Y-79630952D01*
X109861904Y-79440476D01*
X109909523Y-79345238D01*
X110004761Y-79250000D01*
X110147619Y-79202380D01*
X110242857Y-79202380D01*
X110385714Y-79250000D01*
X110433333Y-79297619D01*
X110766666Y-79202380D02*
X111385714Y-79202380D01*
X111052380Y-79583333D01*
X111195238Y-79583333D01*
X111290476Y-79630952D01*
X111338095Y-79678571D01*
X111385714Y-79773809D01*
X111385714Y-80011904D01*
X111338095Y-80107142D01*
X111290476Y-80154761D01*
X111195238Y-80202380D01*
X110909523Y-80202380D01*
X110814285Y-80154761D01*
X110766666Y-80107142D01*
%TO.C,R3*%
X91083333Y-92202380D02*
X90750000Y-91726190D01*
X90511904Y-92202380D02*
X90511904Y-91202380D01*
X90892857Y-91202380D01*
X90988095Y-91250000D01*
X91035714Y-91297619D01*
X91083333Y-91392857D01*
X91083333Y-91535714D01*
X91035714Y-91630952D01*
X90988095Y-91678571D01*
X90892857Y-91726190D01*
X90511904Y-91726190D01*
X91416666Y-91202380D02*
X92035714Y-91202380D01*
X91702380Y-91583333D01*
X91845238Y-91583333D01*
X91940476Y-91630952D01*
X91988095Y-91678571D01*
X92035714Y-91773809D01*
X92035714Y-92011904D01*
X91988095Y-92107142D01*
X91940476Y-92154761D01*
X91845238Y-92202380D01*
X91559523Y-92202380D01*
X91464285Y-92154761D01*
X91416666Y-92107142D01*
%TO.C,R6*%
X114433333Y-80002380D02*
X114100000Y-79526190D01*
X113861904Y-80002380D02*
X113861904Y-79002380D01*
X114242857Y-79002380D01*
X114338095Y-79050000D01*
X114385714Y-79097619D01*
X114433333Y-79192857D01*
X114433333Y-79335714D01*
X114385714Y-79430952D01*
X114338095Y-79478571D01*
X114242857Y-79526190D01*
X113861904Y-79526190D01*
X115290476Y-79002380D02*
X115100000Y-79002380D01*
X115004761Y-79050000D01*
X114957142Y-79097619D01*
X114861904Y-79240476D01*
X114814285Y-79430952D01*
X114814285Y-79811904D01*
X114861904Y-79907142D01*
X114909523Y-79954761D01*
X115004761Y-80002380D01*
X115195238Y-80002380D01*
X115290476Y-79954761D01*
X115338095Y-79907142D01*
X115385714Y-79811904D01*
X115385714Y-79573809D01*
X115338095Y-79478571D01*
X115290476Y-79430952D01*
X115195238Y-79383333D01*
X115004761Y-79383333D01*
X114909523Y-79430952D01*
X114861904Y-79478571D01*
X114814285Y-79573809D01*
%TO.C,R5*%
X114660397Y-76452380D02*
X114327064Y-75976190D01*
X114088968Y-76452380D02*
X114088968Y-75452380D01*
X114469921Y-75452380D01*
X114565159Y-75500000D01*
X114612778Y-75547619D01*
X114660397Y-75642857D01*
X114660397Y-75785714D01*
X114612778Y-75880952D01*
X114565159Y-75928571D01*
X114469921Y-75976190D01*
X114088968Y-75976190D01*
X115565159Y-75452380D02*
X115088968Y-75452380D01*
X115041349Y-75928571D01*
X115088968Y-75880952D01*
X115184206Y-75833333D01*
X115422302Y-75833333D01*
X115517540Y-75880952D01*
X115565159Y-75928571D01*
X115612778Y-76023809D01*
X115612778Y-76261904D01*
X115565159Y-76357142D01*
X115517540Y-76404761D01*
X115422302Y-76452380D01*
X115184206Y-76452380D01*
X115088968Y-76404761D01*
X115041349Y-76357142D01*
%TO.C,U4*%
X110012359Y-72899508D02*
X110012359Y-73417626D01*
X110042837Y-73478581D01*
X110073314Y-73509058D01*
X110134269Y-73539536D01*
X110256179Y-73539536D01*
X110317134Y-73509058D01*
X110347612Y-73478581D01*
X110378089Y-73417626D01*
X110378089Y-72899508D01*
X110957162Y-73112851D02*
X110957162Y-73539536D01*
X110804775Y-72869030D02*
X110652387Y-73326193D01*
X111048595Y-73326193D01*
%TO.C,H2*%
X114238095Y-103202380D02*
X114238095Y-102202380D01*
X114238095Y-102678571D02*
X114809523Y-102678571D01*
X114809523Y-103202380D02*
X114809523Y-102202380D01*
X115238095Y-102297619D02*
X115285714Y-102250000D01*
X115380952Y-102202380D01*
X115619047Y-102202380D01*
X115714285Y-102250000D01*
X115761904Y-102297619D01*
X115809523Y-102392857D01*
X115809523Y-102488095D01*
X115761904Y-102630952D01*
X115190476Y-103202380D01*
X115809523Y-103202380D01*
%TO.C,R4*%
X106433333Y-73102380D02*
X106100000Y-72626190D01*
X105861904Y-73102380D02*
X105861904Y-72102380D01*
X106242857Y-72102380D01*
X106338095Y-72150000D01*
X106385714Y-72197619D01*
X106433333Y-72292857D01*
X106433333Y-72435714D01*
X106385714Y-72530952D01*
X106338095Y-72578571D01*
X106242857Y-72626190D01*
X105861904Y-72626190D01*
X107290476Y-72435714D02*
X107290476Y-73102380D01*
X107052380Y-72054761D02*
X106814285Y-72769047D01*
X107433333Y-72769047D01*
%TO.C,H3*%
X86238095Y-103952380D02*
X86238095Y-102952380D01*
X86238095Y-103428571D02*
X86809523Y-103428571D01*
X86809523Y-103952380D02*
X86809523Y-102952380D01*
X87190476Y-102952380D02*
X87809523Y-102952380D01*
X87476190Y-103333333D01*
X87619047Y-103333333D01*
X87714285Y-103380952D01*
X87761904Y-103428571D01*
X87809523Y-103523809D01*
X87809523Y-103761904D01*
X87761904Y-103857142D01*
X87714285Y-103904761D01*
X87619047Y-103952380D01*
X87333333Y-103952380D01*
X87238095Y-103904761D01*
X87190476Y-103857142D01*
%TO.C,R1*%
X109933333Y-104402380D02*
X109600000Y-103926190D01*
X109361904Y-104402380D02*
X109361904Y-103402380D01*
X109742857Y-103402380D01*
X109838095Y-103450000D01*
X109885714Y-103497619D01*
X109933333Y-103592857D01*
X109933333Y-103735714D01*
X109885714Y-103830952D01*
X109838095Y-103878571D01*
X109742857Y-103926190D01*
X109361904Y-103926190D01*
X110885714Y-104402380D02*
X110314285Y-104402380D01*
X110600000Y-104402380D02*
X110600000Y-103402380D01*
X110504761Y-103545238D01*
X110409523Y-103640476D01*
X110314285Y-103688095D01*
%TO.C,J1*%
X105952040Y-107833540D02*
X106666770Y-107833540D01*
X106809716Y-107881189D01*
X106905013Y-107976486D01*
X106952662Y-108119432D01*
X106952662Y-108214730D01*
X106952662Y-106832918D02*
X106952662Y-107404702D01*
X106952662Y-107118810D02*
X105952040Y-107118810D01*
X106094986Y-107214108D01*
X106190283Y-107309405D01*
X106237932Y-107404702D01*
%TO.C,C1*%
X93833333Y-108107142D02*
X93785714Y-108154761D01*
X93642857Y-108202380D01*
X93547619Y-108202380D01*
X93404761Y-108154761D01*
X93309523Y-108059523D01*
X93261904Y-107964285D01*
X93214285Y-107773809D01*
X93214285Y-107630952D01*
X93261904Y-107440476D01*
X93309523Y-107345238D01*
X93404761Y-107250000D01*
X93547619Y-107202380D01*
X93642857Y-107202380D01*
X93785714Y-107250000D01*
X93833333Y-107297619D01*
X94785714Y-108202380D02*
X94214285Y-108202380D01*
X94500000Y-108202380D02*
X94500000Y-107202380D01*
X94404761Y-107345238D01*
X94309523Y-107440476D01*
X94214285Y-107488095D01*
%TO.C,U3*%
X96737507Y-90701958D02*
X96737507Y-91512106D01*
X96785162Y-91607418D01*
X96832818Y-91655074D01*
X96928130Y-91702730D01*
X97118753Y-91702730D01*
X97214065Y-91655074D01*
X97261720Y-91607418D01*
X97309376Y-91512106D01*
X97309376Y-90701958D01*
X97690623Y-90701958D02*
X98310148Y-90701958D01*
X97976558Y-91083204D01*
X98119525Y-91083204D01*
X98214837Y-91130860D01*
X98262492Y-91178516D01*
X98310148Y-91273827D01*
X98310148Y-91512106D01*
X98262492Y-91607418D01*
X98214837Y-91655074D01*
X98119525Y-91702730D01*
X97833590Y-91702730D01*
X97738279Y-91655074D01*
X97690623Y-91607418D01*
%TO.C,R7*%
X100083333Y-76952380D02*
X99750000Y-76476190D01*
X99511904Y-76952380D02*
X99511904Y-75952380D01*
X99892857Y-75952380D01*
X99988095Y-76000000D01*
X100035714Y-76047619D01*
X100083333Y-76142857D01*
X100083333Y-76285714D01*
X100035714Y-76380952D01*
X99988095Y-76428571D01*
X99892857Y-76476190D01*
X99511904Y-76476190D01*
X100416666Y-75952380D02*
X101083333Y-75952380D01*
X100654761Y-76952380D01*
%TO.C,H1*%
X109238095Y-69202380D02*
X109238095Y-68202380D01*
X109238095Y-68678571D02*
X109809523Y-68678571D01*
X109809523Y-69202380D02*
X109809523Y-68202380D01*
X110809523Y-69202380D02*
X110238095Y-69202380D01*
X110523809Y-69202380D02*
X110523809Y-68202380D01*
X110428571Y-68345238D01*
X110333333Y-68440476D01*
X110238095Y-68488095D01*
%TO.C,U1*%
X104966666Y-95616666D02*
X104966666Y-96183333D01*
X105000000Y-96250000D01*
X105033333Y-96283333D01*
X105100000Y-96316666D01*
X105233333Y-96316666D01*
X105300000Y-96283333D01*
X105333333Y-96250000D01*
X105366666Y-96183333D01*
X105366666Y-95616666D01*
X106066666Y-96316666D02*
X105666666Y-96316666D01*
X105866666Y-96316666D02*
X105866666Y-95616666D01*
X105800000Y-95716666D01*
X105733333Y-95783333D01*
X105666666Y-95816666D01*
%TO.C,C2*%
X92833333Y-94357142D02*
X92785714Y-94404761D01*
X92642857Y-94452380D01*
X92547619Y-94452380D01*
X92404761Y-94404761D01*
X92309523Y-94309523D01*
X92261904Y-94214285D01*
X92214285Y-94023809D01*
X92214285Y-93880952D01*
X92261904Y-93690476D01*
X92309523Y-93595238D01*
X92404761Y-93500000D01*
X92547619Y-93452380D01*
X92642857Y-93452380D01*
X92785714Y-93500000D01*
X92833333Y-93547619D01*
X93214285Y-93547619D02*
X93261904Y-93500000D01*
X93357142Y-93452380D01*
X93595238Y-93452380D01*
X93690476Y-93500000D01*
X93738095Y-93547619D01*
X93785714Y-93642857D01*
X93785714Y-93738095D01*
X93738095Y-93880952D01*
X93166666Y-94452380D01*
X93785714Y-94452380D01*
%TO.C,R2*%
X106583333Y-80702380D02*
X106250000Y-80226190D01*
X106011904Y-80702380D02*
X106011904Y-79702380D01*
X106392857Y-79702380D01*
X106488095Y-79750000D01*
X106535714Y-79797619D01*
X106583333Y-79892857D01*
X106583333Y-80035714D01*
X106535714Y-80130952D01*
X106488095Y-80178571D01*
X106392857Y-80226190D01*
X106011904Y-80226190D01*
X106964285Y-79797619D02*
X107011904Y-79750000D01*
X107107142Y-79702380D01*
X107345238Y-79702380D01*
X107440476Y-79750000D01*
X107488095Y-79797619D01*
X107535714Y-79892857D01*
X107535714Y-79988095D01*
X107488095Y-80130952D01*
X106916666Y-80702380D01*
X107535714Y-80702380D01*
D11*
%TO.C,U2*%
X94900000Y-102510000D02*
X88890000Y-102510000D01*
X92650000Y-95690000D02*
X88890000Y-95690000D01*
X88890000Y-95690000D02*
X88890000Y-96950000D01*
X88890000Y-102510000D02*
X88890000Y-101250000D01*
%TO.C,C3*%
X110338748Y-77165000D02*
X110861252Y-77165000D01*
X110338748Y-78635000D02*
X110861252Y-78635000D01*
%TO.C,R3*%
X87972936Y-91065000D02*
X88427064Y-91065000D01*
X87972936Y-92535000D02*
X88427064Y-92535000D01*
%TO.C,R6*%
X114827064Y-78635000D02*
X114372936Y-78635000D01*
X114827064Y-77165000D02*
X114372936Y-77165000D01*
%TO.C,R5*%
X114372936Y-74935000D02*
X114827064Y-74935000D01*
X114372936Y-73465000D02*
X114827064Y-73465000D01*
D12*
%TO.C,U4*%
X109050000Y-76000000D02*
X109050000Y-74000000D01*
X111750000Y-76000000D02*
X111750000Y-74000000D01*
D13*
X109350000Y-73305000D02*
G75*
G03*
X109350000Y-73305000I-100000J0D01*
G01*
D11*
%TO.C,R4*%
X106372936Y-73565000D02*
X106827064Y-73565000D01*
X106372936Y-75035000D02*
X106827064Y-75035000D01*
%TO.C,R1*%
X110227064Y-102035000D02*
X109772936Y-102035000D01*
X110227064Y-100565000D02*
X109772936Y-100565000D01*
D12*
%TO.C,J1*%
X96225000Y-99987500D02*
X98075000Y-99987500D01*
X105225000Y-114387500D02*
X96225000Y-114387500D01*
X96225000Y-114387500D02*
X96225000Y-99987500D01*
X105225000Y-106237500D02*
X105225000Y-114387500D01*
X103275000Y-99987500D02*
X105225000Y-99987500D01*
X105225000Y-99987500D02*
X105225000Y-101137500D01*
D14*
X100925000Y-98687500D02*
G75*
G03*
X100925000Y-98687500I-200000J0D01*
G01*
D11*
%TO.C,C1*%
X94835000Y-105261252D02*
X94835000Y-104738748D01*
X93365000Y-105261252D02*
X93365000Y-104738748D01*
D12*
%TO.C,U3*%
X89400000Y-87960000D02*
X89400000Y-72960000D01*
X103400000Y-65200000D02*
X103400000Y-72700000D01*
X101400000Y-72960000D02*
X101400000Y-87960000D01*
X87400000Y-89200000D02*
X89400000Y-89200000D01*
X89400000Y-72960000D02*
X101400000Y-72960000D01*
X103400000Y-88700000D02*
X103400000Y-89200000D01*
X87400000Y-65200000D02*
X103400000Y-65200000D01*
X87400000Y-88700000D02*
X87400000Y-89200000D01*
X101400000Y-87960000D02*
X89400000Y-87960000D01*
X87400000Y-72700000D02*
X87400000Y-65200000D01*
X103400000Y-89200000D02*
X101400000Y-89200000D01*
X86400000Y-72825000D02*
G75*
G03*
X86400000Y-72825000I-250000J0D01*
G01*
D11*
%TO.C,R7*%
X106827064Y-77135000D02*
X106372936Y-77135000D01*
X106827064Y-75665000D02*
X106372936Y-75665000D01*
D15*
%TO.C,U1*%
X112370000Y-97819000D02*
X112370000Y-95066000D01*
X109830000Y-97819000D02*
X109830000Y-95066000D01*
X107290000Y-97819000D02*
X107290000Y-95066000D01*
D12*
X105100000Y-95069000D02*
X105100000Y-79569000D01*
X117100000Y-95069000D02*
X105100000Y-95069000D01*
X117100000Y-79569000D02*
X117100000Y-95069000D01*
D15*
X114910000Y-97819000D02*
X114910000Y-95066000D01*
D12*
X105100000Y-79569000D02*
X117100000Y-79569000D01*
D11*
%TO.C,C2*%
X89738748Y-93365000D02*
X90261252Y-93365000D01*
X89738748Y-94835000D02*
X90261252Y-94835000D01*
%TO.C,R2*%
X106372936Y-79235000D02*
X106827064Y-79235000D01*
X106372936Y-77765000D02*
X106827064Y-77765000D01*
%TD*%
M02*
