M48
; DRILL file {KiCad (6.0.6)} date Thu Jan 19 19:18:17 2023
; FORMAT={-:-/ absolute / inch / decimal}
; #@! TF.CreationDate,2023-01-19T19:18:17-03:00
; #@! TF.GenerationSoftware,Kicad,Pcbnew,(6.0.6)
; #@! TF.FileFunction,Plated,1,2,PTH
FMAT,2
INCH
; #@! TA.AperFunction,Plated,PTH,ViaDrill
T1C0.0157
; #@! TA.AperFunction,Plated,PTH,ComponentDrill
T2C0.0315
; #@! TA.AperFunction,Plated,PTH,ComponentDrill
T3C0.0394
; #@! TA.AperFunction,Plated,PTH,ComponentDrill
T4C0.0400
; #@! TA.AperFunction,Plated,PTH,ComponentDrill
T5C0.0512
%
G90
G05
T1
X3.2087Y-3.7598
X3.6024Y-2.7067
X3.7894Y-3.3169
X3.8091Y-3.2283
X4.0256Y-3.7008
X4.0551Y-3.5728
X4.0748Y-2.2835
X4.1535Y-2.7067
X4.1831Y-3.061
X4.311Y-3.2382
T2
X3.5827Y-3.6641
X3.5827Y-3.7625
T3
X2.9449Y-3.4272
X2.9606Y-2.1654
X2.9606Y-2.4016
X3.4173Y-3.4272
X4.2835Y-1.9291
X4.2835Y-2.6378
T4
X3.9248Y-2.8331
X3.9248Y-2.9331
X4.0248Y-2.8331
X4.0248Y-2.9331
X4.1248Y-2.8331
X4.1248Y-2.9331
X4.2248Y-2.8331
X4.2248Y-2.9331
T5
X2.9429Y-2.9449
X3.1791Y-3.5039
X3.2646Y-1.5726
X3.4173Y-2.9469
X3.4646Y-1.5726
X3.7781Y-1.5726
X3.9781Y-1.5726
T0
M30
