%TF.GenerationSoftware,KiCad,Pcbnew,(6.0.6)*%
%TF.CreationDate,2023-01-19T19:18:13-03:00*%
%TF.ProjectId,mod_rele,6d6f645f-7265-46c6-952e-6b696361645f,rev?*%
%TF.SameCoordinates,Original*%
%TF.FileFunction,Copper,L2,Bot*%
%TF.FilePolarity,Positive*%
%FSLAX46Y46*%
G04 Gerber Fmt 4.6, Leading zero omitted, Abs format (unit mm)*
G04 Created by KiCad (PCBNEW (6.0.6)) date 2023-01-19 19:18:13*
%MOMM*%
%LPD*%
G01*
G04 APERTURE LIST*
%TA.AperFunction,ComponentPad*%
%ADD10C,2.600000*%
%TD*%
%TA.AperFunction,ComponentPad*%
%ADD11R,2.600000X2.600000*%
%TD*%
%TA.AperFunction,ComponentPad*%
%ADD12C,1.879600*%
%TD*%
%TA.AperFunction,ComponentPad*%
%ADD13C,1.500000*%
%TD*%
%TA.AperFunction,ComponentPad*%
%ADD14R,1.500000X1.500000*%
%TD*%
%TA.AperFunction,ComponentPad*%
%ADD15C,1.600000*%
%TD*%
%TA.AperFunction,ComponentPad*%
%ADD16R,1.600000X1.600000*%
%TD*%
%TA.AperFunction,ComponentPad*%
%ADD17C,2.500000*%
%TD*%
%TA.AperFunction,ComponentPad*%
%ADD18C,3.000000*%
%TD*%
%TA.AperFunction,ViaPad*%
%ADD19C,0.800000*%
%TD*%
%TA.AperFunction,Conductor*%
%ADD20C,0.500000*%
%TD*%
%TA.AperFunction,Conductor*%
%ADD21C,1.000000*%
%TD*%
G04 APERTURE END LIST*
D10*
%TO.P,J1,2,Pin_2*%
%TO.N,Earth*%
X82920000Y-39945000D03*
D11*
%TO.P,J1,1,Pin_1*%
%TO.N,AC*%
X88000000Y-39945000D03*
%TD*%
D12*
%TO.P,U2,8,RXD*%
%TO.N,unconnected-(U2-Pad8)*%
X99690000Y-74501350D03*
%TO.P,U2,7,VCC*%
%TO.N,+3.3V*%
X99690000Y-71961350D03*
%TO.P,U2,6,GPIO0*%
%TO.N,Net-(R2-Pad2)*%
X102230000Y-74501350D03*
%TO.P,U2,5,RST*%
%TO.N,Net-(R1-Pad1)*%
X102230000Y-71961350D03*
%TO.P,U2,4,GPIO2*%
%TO.N,Rele_out*%
X104770000Y-74501350D03*
%TO.P,U2,3,PD*%
%TO.N,unconnected-(U2-Pad3)*%
X104770000Y-71961350D03*
%TO.P,U2,2,GND*%
%TO.N,GND*%
X107310000Y-74501350D03*
%TO.P,U2,1,TXD*%
%TO.N,unconnected-(U2-Pad1)*%
X107310000Y-71961350D03*
%TD*%
D13*
%TO.P,PS1,4,+VO*%
%TO.N,+5V*%
X108800000Y-67000000D03*
%TO.P,PS1,3,-VO*%
%TO.N,GND*%
X108800000Y-49000000D03*
%TO.P,PS1,2,AC2*%
%TO.N,Earth*%
X75200000Y-61000000D03*
D14*
%TO.P,PS1,1,AC1*%
%TO.N,AC*%
X75200000Y-55000000D03*
%TD*%
D15*
%TO.P,C3,2*%
%TO.N,GND*%
X91000000Y-95567621D03*
D16*
%TO.P,C3,1*%
%TO.N,+5V*%
X91000000Y-93067621D03*
%TD*%
D10*
%TO.P,J2,2,Pin_2*%
%TO.N,Net-(J2-Pad2)*%
X95965000Y-39945000D03*
D11*
%TO.P,J2,1,Pin_1*%
%TO.N,Earth*%
X101045000Y-39945000D03*
%TD*%
D17*
%TO.P,K1,5*%
%TO.N,+5V*%
X74800000Y-87050000D03*
D18*
%TO.P,K1,4*%
%TO.N,unconnected-(K1-Pad4)*%
X74750000Y-74800000D03*
%TO.P,K1,3*%
%TO.N,Net-(J2-Pad2)*%
X86800000Y-74850000D03*
D17*
%TO.P,K1,2*%
%TO.N,Net-(D1-Pad2)*%
X86800000Y-87050000D03*
D18*
%TO.P,K1,1*%
%TO.N,AC*%
X80750000Y-89000000D03*
%TD*%
D19*
%TO.N,+3.3V*%
X96250000Y-84250000D03*
X103000000Y-90750000D03*
%TO.N,GND*%
X109500000Y-82250000D03*
X105500000Y-68750000D03*
X91500000Y-68750000D03*
X81500000Y-95500000D03*
X102250000Y-94000000D03*
X106250000Y-77750000D03*
X103500000Y-58000000D03*
X96750000Y-82000000D03*
%TD*%
D20*
%TO.N,+3.3V*%
X96250000Y-88500000D02*
X96250000Y-84250000D01*
X97250000Y-89500000D02*
X96250000Y-88500000D01*
X101750000Y-89500000D02*
X97250000Y-89500000D01*
X103000000Y-90750000D02*
X101750000Y-89500000D01*
D21*
%TO.N,Earth*%
X91694000Y-42056000D02*
X91694000Y-36576000D01*
X75200000Y-58550000D02*
X91694000Y-42056000D01*
X75200000Y-61000000D02*
X75200000Y-58550000D01*
%TO.N,Net-(J2-Pad2)*%
X86800000Y-64076000D02*
X86800000Y-74850000D01*
X95965000Y-54911000D02*
X86800000Y-64076000D01*
X95965000Y-39945000D02*
X95965000Y-54911000D01*
%TO.N,AC*%
X80750000Y-75416000D02*
X80750000Y-89000000D01*
X75200000Y-55000000D02*
X73152000Y-57048000D01*
X73152000Y-57048000D02*
X73152000Y-67818000D01*
X75200000Y-55000000D02*
X75200000Y-52745000D01*
X75200000Y-52745000D02*
X88000000Y-39945000D01*
X73152000Y-67818000D02*
X80750000Y-75416000D01*
%TO.N,Earth*%
X91694000Y-36576000D02*
X97676000Y-36576000D01*
X82920000Y-39945000D02*
X86289000Y-36576000D01*
X86289000Y-36576000D02*
X91694000Y-36576000D01*
X97676000Y-36576000D02*
X101045000Y-39945000D01*
%TD*%
%TA.AperFunction,Conductor*%
%TO.N,GND*%
G36*
X111683621Y-34028502D02*
G01*
X111730114Y-34082158D01*
X111741500Y-34134500D01*
X111741500Y-97865500D01*
X111721498Y-97933621D01*
X111667842Y-97980114D01*
X111615500Y-97991500D01*
X72384500Y-97991500D01*
X72316379Y-97971498D01*
X72269886Y-97917842D01*
X72258500Y-97865500D01*
X72258500Y-95292277D01*
X73137009Y-95292277D01*
X73162625Y-95560769D01*
X73163710Y-95565203D01*
X73163711Y-95565209D01*
X73218751Y-95790140D01*
X73226731Y-95822750D01*
X73327985Y-96072733D01*
X73464265Y-96305482D01*
X73467118Y-96309049D01*
X73584686Y-96456060D01*
X73632716Y-96516119D01*
X73829809Y-96700234D01*
X74051416Y-96853968D01*
X74055499Y-96855999D01*
X74055502Y-96856001D01*
X74062025Y-96859246D01*
X74292894Y-96974101D01*
X74297228Y-96975522D01*
X74297231Y-96975523D01*
X74544853Y-97056698D01*
X74544859Y-97056699D01*
X74549186Y-97058118D01*
X74553677Y-97058898D01*
X74553678Y-97058898D01*
X74811140Y-97103601D01*
X74811148Y-97103602D01*
X74814921Y-97104257D01*
X74818758Y-97104448D01*
X74898578Y-97108422D01*
X74898586Y-97108422D01*
X74900149Y-97108500D01*
X75068512Y-97108500D01*
X75070780Y-97108335D01*
X75070792Y-97108335D01*
X75201884Y-97098823D01*
X75269004Y-97093953D01*
X75273459Y-97092969D01*
X75273462Y-97092969D01*
X75527912Y-97036791D01*
X75527916Y-97036790D01*
X75532372Y-97035806D01*
X75658480Y-96988028D01*
X75780318Y-96941868D01*
X75780321Y-96941867D01*
X75784588Y-96940250D01*
X76020368Y-96809286D01*
X76223012Y-96654633D01*
X76224257Y-96653683D01*
X90278493Y-96653683D01*
X90287789Y-96665698D01*
X90338994Y-96701552D01*
X90348489Y-96707035D01*
X90545947Y-96799111D01*
X90556239Y-96802857D01*
X90766688Y-96859246D01*
X90777481Y-96861149D01*
X90994525Y-96880138D01*
X91005475Y-96880138D01*
X91222519Y-96861149D01*
X91233312Y-96859246D01*
X91443761Y-96802857D01*
X91454053Y-96799111D01*
X91651511Y-96707035D01*
X91661006Y-96701552D01*
X91713048Y-96665112D01*
X91721424Y-96654633D01*
X91714356Y-96641187D01*
X91012812Y-95939643D01*
X90998868Y-95932029D01*
X90997035Y-95932160D01*
X90990420Y-95936411D01*
X90284923Y-96641908D01*
X90278493Y-96653683D01*
X76224257Y-96653683D01*
X76231141Y-96648429D01*
X76231142Y-96648428D01*
X76234773Y-96645657D01*
X76423312Y-96452792D01*
X76582034Y-96234730D01*
X76665190Y-96076676D01*
X76705490Y-96000079D01*
X76705493Y-96000073D01*
X76707615Y-95996039D01*
X76730220Y-95932029D01*
X76795902Y-95746033D01*
X76795902Y-95746032D01*
X76797425Y-95741720D01*
X76829851Y-95577201D01*
X76830660Y-95573096D01*
X89687483Y-95573096D01*
X89706472Y-95790140D01*
X89708375Y-95800933D01*
X89764764Y-96011382D01*
X89768510Y-96021674D01*
X89860586Y-96219132D01*
X89866069Y-96228627D01*
X89902509Y-96280669D01*
X89912988Y-96289045D01*
X89926434Y-96281977D01*
X90627978Y-95580433D01*
X90634356Y-95568753D01*
X91364408Y-95568753D01*
X91364539Y-95570586D01*
X91368790Y-95577201D01*
X92074287Y-96282698D01*
X92086062Y-96289128D01*
X92098077Y-96279832D01*
X92133931Y-96228627D01*
X92139414Y-96219132D01*
X92231490Y-96021674D01*
X92235236Y-96011382D01*
X92291625Y-95800933D01*
X92293528Y-95790140D01*
X92312517Y-95573096D01*
X92312517Y-95562146D01*
X92293528Y-95345102D01*
X92291625Y-95334309D01*
X92280363Y-95292277D01*
X107137009Y-95292277D01*
X107162625Y-95560769D01*
X107163710Y-95565203D01*
X107163711Y-95565209D01*
X107218751Y-95790140D01*
X107226731Y-95822750D01*
X107327985Y-96072733D01*
X107464265Y-96305482D01*
X107467118Y-96309049D01*
X107584686Y-96456060D01*
X107632716Y-96516119D01*
X107829809Y-96700234D01*
X108051416Y-96853968D01*
X108055499Y-96855999D01*
X108055502Y-96856001D01*
X108062025Y-96859246D01*
X108292894Y-96974101D01*
X108297228Y-96975522D01*
X108297231Y-96975523D01*
X108544853Y-97056698D01*
X108544859Y-97056699D01*
X108549186Y-97058118D01*
X108553677Y-97058898D01*
X108553678Y-97058898D01*
X108811140Y-97103601D01*
X108811148Y-97103602D01*
X108814921Y-97104257D01*
X108818758Y-97104448D01*
X108898578Y-97108422D01*
X108898586Y-97108422D01*
X108900149Y-97108500D01*
X109068512Y-97108500D01*
X109070780Y-97108335D01*
X109070792Y-97108335D01*
X109201884Y-97098823D01*
X109269004Y-97093953D01*
X109273459Y-97092969D01*
X109273462Y-97092969D01*
X109527912Y-97036791D01*
X109527916Y-97036790D01*
X109532372Y-97035806D01*
X109658480Y-96988028D01*
X109780318Y-96941868D01*
X109780321Y-96941867D01*
X109784588Y-96940250D01*
X110020368Y-96809286D01*
X110223012Y-96654633D01*
X110231141Y-96648429D01*
X110231142Y-96648428D01*
X110234773Y-96645657D01*
X110423312Y-96452792D01*
X110582034Y-96234730D01*
X110665190Y-96076676D01*
X110705490Y-96000079D01*
X110705493Y-96000073D01*
X110707615Y-95996039D01*
X110730220Y-95932029D01*
X110795902Y-95746033D01*
X110795902Y-95746032D01*
X110797425Y-95741720D01*
X110829851Y-95577201D01*
X110848700Y-95481572D01*
X110848701Y-95481566D01*
X110849581Y-95477100D01*
X110856152Y-95345102D01*
X110862764Y-95212292D01*
X110862764Y-95212286D01*
X110862991Y-95207723D01*
X110837375Y-94939231D01*
X110831718Y-94916110D01*
X110774355Y-94681688D01*
X110773269Y-94677250D01*
X110672015Y-94427267D01*
X110535735Y-94194518D01*
X110417928Y-94047208D01*
X110370136Y-93987447D01*
X110370135Y-93987445D01*
X110367284Y-93983881D01*
X110170191Y-93799766D01*
X109948584Y-93646032D01*
X109944501Y-93644001D01*
X109944498Y-93643999D01*
X109779606Y-93561967D01*
X109707106Y-93525899D01*
X109702772Y-93524478D01*
X109702769Y-93524477D01*
X109455147Y-93443302D01*
X109455141Y-93443301D01*
X109450814Y-93441882D01*
X109446322Y-93441102D01*
X109188860Y-93396399D01*
X109188852Y-93396398D01*
X109185079Y-93395743D01*
X109173817Y-93395182D01*
X109101422Y-93391578D01*
X109101414Y-93391578D01*
X109099851Y-93391500D01*
X108931488Y-93391500D01*
X108929220Y-93391665D01*
X108929208Y-93391665D01*
X108798116Y-93401177D01*
X108730996Y-93406047D01*
X108726541Y-93407031D01*
X108726538Y-93407031D01*
X108472088Y-93463209D01*
X108472084Y-93463210D01*
X108467628Y-93464194D01*
X108341520Y-93511972D01*
X108219682Y-93558132D01*
X108219679Y-93558133D01*
X108215412Y-93559750D01*
X107979632Y-93690714D01*
X107765227Y-93854343D01*
X107576688Y-94047208D01*
X107417966Y-94265270D01*
X107388441Y-94321388D01*
X107294510Y-94499921D01*
X107294507Y-94499927D01*
X107292385Y-94503961D01*
X107290865Y-94508266D01*
X107290863Y-94508270D01*
X107204098Y-94753967D01*
X107202575Y-94758280D01*
X107201692Y-94762762D01*
X107173339Y-94906615D01*
X107150419Y-95022900D01*
X107150192Y-95027453D01*
X107150192Y-95027456D01*
X107140991Y-95212292D01*
X107137009Y-95292277D01*
X92280363Y-95292277D01*
X92235236Y-95123860D01*
X92231490Y-95113568D01*
X92139414Y-94916110D01*
X92133931Y-94906615D01*
X92097491Y-94854573D01*
X92087012Y-94846197D01*
X92073566Y-94853265D01*
X91372022Y-95554809D01*
X91364408Y-95568753D01*
X90634356Y-95568753D01*
X90635592Y-95566489D01*
X90635461Y-95564656D01*
X90631210Y-95558041D01*
X89925713Y-94852544D01*
X89913938Y-94846114D01*
X89901923Y-94855410D01*
X89866069Y-94906615D01*
X89860586Y-94916110D01*
X89768510Y-95113568D01*
X89764764Y-95123860D01*
X89708375Y-95334309D01*
X89706472Y-95345102D01*
X89687483Y-95562146D01*
X89687483Y-95573096D01*
X76830660Y-95573096D01*
X76848700Y-95481572D01*
X76848701Y-95481566D01*
X76849581Y-95477100D01*
X76856152Y-95345102D01*
X76862764Y-95212292D01*
X76862764Y-95212286D01*
X76862991Y-95207723D01*
X76837375Y-94939231D01*
X76831718Y-94916110D01*
X76774355Y-94681688D01*
X76773269Y-94677250D01*
X76672015Y-94427267D01*
X76535735Y-94194518D01*
X76417928Y-94047208D01*
X76370136Y-93987447D01*
X76370135Y-93987445D01*
X76367284Y-93983881D01*
X76294356Y-93915755D01*
X89691500Y-93915755D01*
X89698255Y-93977937D01*
X89749385Y-94114326D01*
X89836739Y-94230882D01*
X89953295Y-94318236D01*
X90089684Y-94369366D01*
X90133252Y-94374099D01*
X90148486Y-94375754D01*
X90148489Y-94375754D01*
X90151866Y-94376121D01*
X90155185Y-94376121D01*
X90222110Y-94399774D01*
X90257804Y-94445777D01*
X90259734Y-94444762D01*
X90265442Y-94455621D01*
X90265632Y-94455866D01*
X90265653Y-94456024D01*
X90285644Y-94494055D01*
X90987188Y-95195599D01*
X91001132Y-95203213D01*
X91002965Y-95203082D01*
X91009580Y-95198831D01*
X91715077Y-94493334D01*
X91737871Y-94451592D01*
X91740047Y-94441592D01*
X91790253Y-94391394D01*
X91843814Y-94376170D01*
X91844719Y-94376121D01*
X91848134Y-94376121D01*
X91851530Y-94375752D01*
X91851532Y-94375752D01*
X91863879Y-94374411D01*
X91910316Y-94369366D01*
X92046705Y-94318236D01*
X92163261Y-94230882D01*
X92250615Y-94114326D01*
X92301745Y-93977937D01*
X92308500Y-93915755D01*
X92308500Y-92219487D01*
X92301745Y-92157305D01*
X92250615Y-92020916D01*
X92163261Y-91904360D01*
X92046705Y-91817006D01*
X91910316Y-91765876D01*
X91848134Y-91759121D01*
X90151866Y-91759121D01*
X90089684Y-91765876D01*
X89953295Y-91817006D01*
X89836739Y-91904360D01*
X89749385Y-92020916D01*
X89698255Y-92157305D01*
X89691500Y-92219487D01*
X89691500Y-93915755D01*
X76294356Y-93915755D01*
X76170191Y-93799766D01*
X75948584Y-93646032D01*
X75944501Y-93644001D01*
X75944498Y-93643999D01*
X75779606Y-93561967D01*
X75707106Y-93525899D01*
X75702772Y-93524478D01*
X75702769Y-93524477D01*
X75455147Y-93443302D01*
X75455141Y-93443301D01*
X75450814Y-93441882D01*
X75446322Y-93441102D01*
X75188860Y-93396399D01*
X75188852Y-93396398D01*
X75185079Y-93395743D01*
X75173817Y-93395182D01*
X75101422Y-93391578D01*
X75101414Y-93391578D01*
X75099851Y-93391500D01*
X74931488Y-93391500D01*
X74929220Y-93391665D01*
X74929208Y-93391665D01*
X74798116Y-93401177D01*
X74730996Y-93406047D01*
X74726541Y-93407031D01*
X74726538Y-93407031D01*
X74472088Y-93463209D01*
X74472084Y-93463210D01*
X74467628Y-93464194D01*
X74341520Y-93511972D01*
X74219682Y-93558132D01*
X74219679Y-93558133D01*
X74215412Y-93559750D01*
X73979632Y-93690714D01*
X73765227Y-93854343D01*
X73576688Y-94047208D01*
X73417966Y-94265270D01*
X73388441Y-94321388D01*
X73294510Y-94499921D01*
X73294507Y-94499927D01*
X73292385Y-94503961D01*
X73290865Y-94508266D01*
X73290863Y-94508270D01*
X73204098Y-94753967D01*
X73202575Y-94758280D01*
X73201692Y-94762762D01*
X73173339Y-94906615D01*
X73150419Y-95022900D01*
X73150192Y-95027453D01*
X73150192Y-95027456D01*
X73140991Y-95212292D01*
X73137009Y-95292277D01*
X72258500Y-95292277D01*
X72258500Y-87003839D01*
X73037173Y-87003839D01*
X73049713Y-87264908D01*
X73100704Y-87521256D01*
X73189026Y-87767252D01*
X73191242Y-87771376D01*
X73279513Y-87935657D01*
X73312737Y-87997491D01*
X73315532Y-88001234D01*
X73315534Y-88001237D01*
X73466330Y-88203177D01*
X73466335Y-88203183D01*
X73469122Y-88206915D01*
X73472431Y-88210195D01*
X73472436Y-88210201D01*
X73651426Y-88387635D01*
X73654743Y-88390923D01*
X73658505Y-88393681D01*
X73658508Y-88393684D01*
X73861750Y-88542707D01*
X73865524Y-88545474D01*
X73869667Y-88547654D01*
X73869669Y-88547655D01*
X74092684Y-88664989D01*
X74092689Y-88664991D01*
X74096834Y-88667172D01*
X74195766Y-88701721D01*
X74323597Y-88746362D01*
X74343590Y-88753344D01*
X74348183Y-88754216D01*
X74595785Y-88801224D01*
X74595788Y-88801224D01*
X74600374Y-88802095D01*
X74730959Y-88807226D01*
X74856875Y-88812174D01*
X74856881Y-88812174D01*
X74861543Y-88812357D01*
X74940977Y-88803657D01*
X75116707Y-88784412D01*
X75116712Y-88784411D01*
X75121360Y-88783902D01*
X75159396Y-88773888D01*
X75369594Y-88718548D01*
X75369596Y-88718547D01*
X75374117Y-88717357D01*
X75400768Y-88705907D01*
X75609972Y-88616025D01*
X75614262Y-88614182D01*
X75674539Y-88576882D01*
X75832547Y-88479104D01*
X75832548Y-88479104D01*
X75836519Y-88476646D01*
X75840082Y-88473629D01*
X75840087Y-88473626D01*
X76032439Y-88310787D01*
X76032440Y-88310786D01*
X76036005Y-88307768D01*
X76124451Y-88206915D01*
X76205257Y-88114774D01*
X76205261Y-88114769D01*
X76208339Y-88111259D01*
X76349733Y-87891437D01*
X76457083Y-87653129D01*
X76528030Y-87401572D01*
X76544832Y-87269496D01*
X76560616Y-87145421D01*
X76560616Y-87145417D01*
X76561014Y-87142291D01*
X76563431Y-87050000D01*
X76544061Y-86789348D01*
X76532725Y-86739248D01*
X76487408Y-86538980D01*
X76486377Y-86534423D01*
X76391647Y-86290823D01*
X76261951Y-86063902D01*
X76100138Y-85858643D01*
X75909763Y-85679557D01*
X75695009Y-85530576D01*
X75690816Y-85528508D01*
X75464781Y-85417040D01*
X75464778Y-85417039D01*
X75460593Y-85414975D01*
X75414449Y-85400204D01*
X75216123Y-85336720D01*
X75211665Y-85335293D01*
X74953693Y-85293279D01*
X74839942Y-85291790D01*
X74697022Y-85289919D01*
X74697019Y-85289919D01*
X74692345Y-85289858D01*
X74433362Y-85325104D01*
X74182433Y-85398243D01*
X74178180Y-85400203D01*
X74178179Y-85400204D01*
X74141659Y-85417040D01*
X73945072Y-85507668D01*
X73906067Y-85533241D01*
X73730404Y-85648410D01*
X73730399Y-85648414D01*
X73726491Y-85650976D01*
X73531494Y-85825018D01*
X73364363Y-86025970D01*
X73228771Y-86249419D01*
X73127697Y-86490455D01*
X73063359Y-86743783D01*
X73037173Y-87003839D01*
X72258500Y-87003839D01*
X72258500Y-74778918D01*
X72736917Y-74778918D01*
X72752682Y-75052320D01*
X72753507Y-75056525D01*
X72753508Y-75056533D01*
X72781812Y-75200799D01*
X72805405Y-75321053D01*
X72806792Y-75325103D01*
X72806793Y-75325108D01*
X72881384Y-75542969D01*
X72894112Y-75580144D01*
X72911314Y-75614346D01*
X73011625Y-75813793D01*
X73017160Y-75824799D01*
X73019586Y-75828328D01*
X73019589Y-75828334D01*
X73169843Y-76046953D01*
X73172274Y-76050490D01*
X73356582Y-76253043D01*
X73566675Y-76428707D01*
X73570316Y-76430991D01*
X73795024Y-76571951D01*
X73795028Y-76571953D01*
X73798664Y-76574234D01*
X73866544Y-76604883D01*
X74044345Y-76685164D01*
X74044349Y-76685166D01*
X74048257Y-76686930D01*
X74052377Y-76688150D01*
X74052376Y-76688150D01*
X74306723Y-76763491D01*
X74306727Y-76763492D01*
X74310836Y-76764709D01*
X74315070Y-76765357D01*
X74315075Y-76765358D01*
X74577298Y-76805483D01*
X74577300Y-76805483D01*
X74581540Y-76806132D01*
X74720912Y-76808322D01*
X74851071Y-76810367D01*
X74851077Y-76810367D01*
X74855362Y-76810434D01*
X75127235Y-76777534D01*
X75392127Y-76708041D01*
X75396087Y-76706401D01*
X75396092Y-76706399D01*
X75590191Y-76626000D01*
X75645136Y-76603241D01*
X75881582Y-76465073D01*
X76097089Y-76296094D01*
X76138809Y-76253043D01*
X76236233Y-76152509D01*
X76287669Y-76099431D01*
X76290202Y-76095983D01*
X76290206Y-76095978D01*
X76447257Y-75882178D01*
X76449795Y-75878723D01*
X76462438Y-75855438D01*
X76578418Y-75641830D01*
X76578419Y-75641828D01*
X76580468Y-75638054D01*
X76641004Y-75477850D01*
X76675751Y-75385895D01*
X76675752Y-75385891D01*
X76677269Y-75381877D01*
X76714761Y-75218179D01*
X76737449Y-75119117D01*
X76737450Y-75119113D01*
X76738407Y-75114933D01*
X76739916Y-75098032D01*
X76762531Y-74844627D01*
X76762531Y-74844625D01*
X76762751Y-74842161D01*
X76763054Y-74813307D01*
X76763167Y-74802484D01*
X76763167Y-74802483D01*
X76763193Y-74800000D01*
X76756269Y-74698436D01*
X76744859Y-74531055D01*
X76744858Y-74531049D01*
X76744567Y-74526778D01*
X76739536Y-74502482D01*
X76700256Y-74312809D01*
X76689032Y-74258612D01*
X76597617Y-74000465D01*
X76472013Y-73757112D01*
X76462040Y-73742921D01*
X76388791Y-73638699D01*
X76314545Y-73533057D01*
X76223701Y-73435297D01*
X76131046Y-73335588D01*
X76131043Y-73335585D01*
X76128125Y-73332445D01*
X76124810Y-73329731D01*
X76124806Y-73329728D01*
X75919523Y-73161706D01*
X75916205Y-73158990D01*
X75682704Y-73015901D01*
X75678768Y-73014173D01*
X75435873Y-72907549D01*
X75435869Y-72907548D01*
X75431945Y-72905825D01*
X75168566Y-72830800D01*
X75164324Y-72830196D01*
X75164318Y-72830195D01*
X74963834Y-72801662D01*
X74897443Y-72792213D01*
X74753589Y-72791460D01*
X74627877Y-72790802D01*
X74627871Y-72790802D01*
X74623591Y-72790780D01*
X74619347Y-72791339D01*
X74619343Y-72791339D01*
X74516596Y-72804866D01*
X74352078Y-72826525D01*
X74347938Y-72827658D01*
X74347936Y-72827658D01*
X74275008Y-72847609D01*
X74087928Y-72898788D01*
X74083980Y-72900472D01*
X73839982Y-73004546D01*
X73839978Y-73004548D01*
X73836030Y-73006232D01*
X73722216Y-73074348D01*
X73604725Y-73144664D01*
X73604721Y-73144667D01*
X73601043Y-73146868D01*
X73387318Y-73318094D01*
X73198808Y-73516742D01*
X73039002Y-73739136D01*
X72910857Y-73981161D01*
X72909385Y-73985184D01*
X72909383Y-73985188D01*
X72818214Y-74234317D01*
X72816743Y-74238337D01*
X72758404Y-74505907D01*
X72736917Y-74778918D01*
X72258500Y-74778918D01*
X72258500Y-68655520D01*
X72278502Y-68587399D01*
X72332158Y-68540906D01*
X72402432Y-68530802D01*
X72464822Y-68558441D01*
X72468269Y-68561293D01*
X72477042Y-68569277D01*
X79704595Y-75796829D01*
X79738621Y-75859141D01*
X79741500Y-75885924D01*
X79741500Y-87191374D01*
X79721498Y-87259495D01*
X79680206Y-87299490D01*
X79604725Y-87344664D01*
X79604721Y-87344667D01*
X79601043Y-87346868D01*
X79387318Y-87518094D01*
X79370717Y-87535588D01*
X79259175Y-87653129D01*
X79198808Y-87716742D01*
X79039002Y-87939136D01*
X78910857Y-88181161D01*
X78909385Y-88185184D01*
X78909383Y-88185188D01*
X78895647Y-88222724D01*
X78816743Y-88438337D01*
X78758404Y-88705907D01*
X78736917Y-88978918D01*
X78752682Y-89252320D01*
X78753507Y-89256525D01*
X78753508Y-89256533D01*
X78764127Y-89310657D01*
X78805405Y-89521053D01*
X78806792Y-89525103D01*
X78806793Y-89525108D01*
X78827605Y-89585895D01*
X78894112Y-89780144D01*
X79017160Y-90024799D01*
X79019586Y-90028328D01*
X79019589Y-90028334D01*
X79105158Y-90152836D01*
X79172274Y-90250490D01*
X79175161Y-90253663D01*
X79175162Y-90253664D01*
X79294421Y-90384729D01*
X79356582Y-90453043D01*
X79566675Y-90628707D01*
X79570316Y-90630991D01*
X79795024Y-90771951D01*
X79795028Y-90771953D01*
X79798664Y-90774234D01*
X79866544Y-90804883D01*
X80044345Y-90885164D01*
X80044349Y-90885166D01*
X80048257Y-90886930D01*
X80052377Y-90888150D01*
X80052376Y-90888150D01*
X80306723Y-90963491D01*
X80306727Y-90963492D01*
X80310836Y-90964709D01*
X80315070Y-90965357D01*
X80315075Y-90965358D01*
X80577298Y-91005483D01*
X80577300Y-91005483D01*
X80581540Y-91006132D01*
X80720912Y-91008322D01*
X80851071Y-91010367D01*
X80851077Y-91010367D01*
X80855362Y-91010434D01*
X81127235Y-90977534D01*
X81392127Y-90908041D01*
X81396087Y-90906401D01*
X81396092Y-90906399D01*
X81518632Y-90855641D01*
X81645136Y-90803241D01*
X81881582Y-90665073D01*
X82097089Y-90496094D01*
X82138809Y-90453043D01*
X82284686Y-90302509D01*
X82287669Y-90299431D01*
X82290202Y-90295983D01*
X82290206Y-90295978D01*
X82447257Y-90082178D01*
X82449795Y-90078723D01*
X82456024Y-90067251D01*
X82578418Y-89841830D01*
X82578419Y-89841828D01*
X82580468Y-89838054D01*
X82677269Y-89581877D01*
X82738407Y-89314933D01*
X82762453Y-89045506D01*
X82762531Y-89044627D01*
X82762531Y-89044625D01*
X82762751Y-89042161D01*
X82763193Y-89000000D01*
X82763024Y-88997519D01*
X82744859Y-88731055D01*
X82744858Y-88731049D01*
X82744567Y-88726778D01*
X82689032Y-88458612D01*
X82597617Y-88200465D01*
X82472013Y-87957112D01*
X82462040Y-87942921D01*
X82341476Y-87771376D01*
X82314545Y-87733057D01*
X82128125Y-87532445D01*
X82124810Y-87529731D01*
X82124806Y-87529728D01*
X81919523Y-87361706D01*
X81916205Y-87358990D01*
X81818665Y-87299218D01*
X81771034Y-87246570D01*
X81758500Y-87191785D01*
X81758500Y-87003839D01*
X85037173Y-87003839D01*
X85049713Y-87264908D01*
X85100704Y-87521256D01*
X85189026Y-87767252D01*
X85191242Y-87771376D01*
X85279513Y-87935657D01*
X85312737Y-87997491D01*
X85315532Y-88001234D01*
X85315534Y-88001237D01*
X85466330Y-88203177D01*
X85466335Y-88203183D01*
X85469122Y-88206915D01*
X85472431Y-88210195D01*
X85472436Y-88210201D01*
X85651426Y-88387635D01*
X85654743Y-88390923D01*
X85658505Y-88393681D01*
X85658508Y-88393684D01*
X85861750Y-88542707D01*
X85865524Y-88545474D01*
X85869667Y-88547654D01*
X85869669Y-88547655D01*
X86092684Y-88664989D01*
X86092689Y-88664991D01*
X86096834Y-88667172D01*
X86195766Y-88701721D01*
X86323597Y-88746362D01*
X86343590Y-88753344D01*
X86348183Y-88754216D01*
X86595785Y-88801224D01*
X86595788Y-88801224D01*
X86600374Y-88802095D01*
X86730959Y-88807226D01*
X86856875Y-88812174D01*
X86856881Y-88812174D01*
X86861543Y-88812357D01*
X86940977Y-88803657D01*
X87116707Y-88784412D01*
X87116712Y-88784411D01*
X87121360Y-88783902D01*
X87159396Y-88773888D01*
X87369594Y-88718548D01*
X87369596Y-88718547D01*
X87374117Y-88717357D01*
X87400768Y-88705907D01*
X87609972Y-88616025D01*
X87614262Y-88614182D01*
X87674539Y-88576882D01*
X87832547Y-88479104D01*
X87832548Y-88479104D01*
X87836519Y-88476646D01*
X87840082Y-88473629D01*
X87840087Y-88473626D01*
X88032439Y-88310787D01*
X88032440Y-88310786D01*
X88036005Y-88307768D01*
X88124451Y-88206915D01*
X88205257Y-88114774D01*
X88205261Y-88114769D01*
X88208339Y-88111259D01*
X88349733Y-87891437D01*
X88457083Y-87653129D01*
X88528030Y-87401572D01*
X88544832Y-87269496D01*
X88560616Y-87145421D01*
X88560616Y-87145417D01*
X88561014Y-87142291D01*
X88563431Y-87050000D01*
X88544061Y-86789348D01*
X88532725Y-86739248D01*
X88487408Y-86538980D01*
X88486377Y-86534423D01*
X88391647Y-86290823D01*
X88261951Y-86063902D01*
X88100138Y-85858643D01*
X87909763Y-85679557D01*
X87695009Y-85530576D01*
X87690816Y-85528508D01*
X87464781Y-85417040D01*
X87464778Y-85417039D01*
X87460593Y-85414975D01*
X87414449Y-85400204D01*
X87216123Y-85336720D01*
X87211665Y-85335293D01*
X86953693Y-85293279D01*
X86839942Y-85291790D01*
X86697022Y-85289919D01*
X86697019Y-85289919D01*
X86692345Y-85289858D01*
X86433362Y-85325104D01*
X86182433Y-85398243D01*
X86178180Y-85400203D01*
X86178179Y-85400204D01*
X86141659Y-85417040D01*
X85945072Y-85507668D01*
X85906067Y-85533241D01*
X85730404Y-85648410D01*
X85730399Y-85648414D01*
X85726491Y-85650976D01*
X85531494Y-85825018D01*
X85364363Y-86025970D01*
X85228771Y-86249419D01*
X85127697Y-86490455D01*
X85063359Y-86743783D01*
X85037173Y-87003839D01*
X81758500Y-87003839D01*
X81758500Y-84250000D01*
X95336496Y-84250000D01*
X95356458Y-84439928D01*
X95415473Y-84621556D01*
X95418776Y-84627278D01*
X95418777Y-84627279D01*
X95474619Y-84723999D01*
X95491500Y-84786999D01*
X95491500Y-88432930D01*
X95490067Y-88451880D01*
X95486801Y-88473349D01*
X95487394Y-88480641D01*
X95487394Y-88480644D01*
X95491085Y-88526018D01*
X95491500Y-88536233D01*
X95491500Y-88544293D01*
X95491925Y-88547937D01*
X95494789Y-88572507D01*
X95495222Y-88576882D01*
X95501140Y-88649637D01*
X95503396Y-88656601D01*
X95504587Y-88662560D01*
X95505971Y-88668415D01*
X95506818Y-88675681D01*
X95531735Y-88744327D01*
X95533152Y-88748455D01*
X95544801Y-88784412D01*
X95555649Y-88817899D01*
X95559445Y-88824154D01*
X95561951Y-88829628D01*
X95564670Y-88835058D01*
X95567167Y-88841937D01*
X95571180Y-88848057D01*
X95571180Y-88848058D01*
X95607186Y-88902976D01*
X95609523Y-88906680D01*
X95647405Y-88969107D01*
X95651121Y-88973315D01*
X95651122Y-88973316D01*
X95654803Y-88977484D01*
X95654776Y-88977508D01*
X95657429Y-88980500D01*
X95660132Y-88983733D01*
X95664144Y-88989852D01*
X95677479Y-89002484D01*
X95720383Y-89043128D01*
X95722825Y-89045506D01*
X96666230Y-89988911D01*
X96678616Y-90003323D01*
X96687149Y-90014918D01*
X96687154Y-90014923D01*
X96691492Y-90020818D01*
X96697070Y-90025557D01*
X96697073Y-90025560D01*
X96731768Y-90055035D01*
X96739284Y-90061965D01*
X96744980Y-90067661D01*
X96747841Y-90069924D01*
X96747846Y-90069929D01*
X96767266Y-90085293D01*
X96770667Y-90088082D01*
X96826285Y-90135333D01*
X96832805Y-90138662D01*
X96837852Y-90142028D01*
X96842976Y-90145193D01*
X96848717Y-90149735D01*
X96855348Y-90152834D01*
X96855351Y-90152836D01*
X96914830Y-90180634D01*
X96918776Y-90182562D01*
X96983808Y-90215769D01*
X96990914Y-90217508D01*
X96996564Y-90219609D01*
X97002321Y-90221524D01*
X97008950Y-90224622D01*
X97080435Y-90239491D01*
X97084701Y-90240457D01*
X97155610Y-90257808D01*
X97161212Y-90258156D01*
X97161215Y-90258156D01*
X97166764Y-90258500D01*
X97166762Y-90258535D01*
X97170734Y-90258775D01*
X97174955Y-90259152D01*
X97182115Y-90260641D01*
X97259542Y-90258546D01*
X97262950Y-90258500D01*
X101383629Y-90258500D01*
X101451750Y-90278502D01*
X101472724Y-90295405D01*
X102079875Y-90902556D01*
X102110613Y-90952714D01*
X102165473Y-91121556D01*
X102260960Y-91286944D01*
X102388747Y-91428866D01*
X102543248Y-91541118D01*
X102549276Y-91543802D01*
X102549278Y-91543803D01*
X102711681Y-91616109D01*
X102717712Y-91618794D01*
X102811112Y-91638647D01*
X102898056Y-91657128D01*
X102898061Y-91657128D01*
X102904513Y-91658500D01*
X103095487Y-91658500D01*
X103101939Y-91657128D01*
X103101944Y-91657128D01*
X103188888Y-91638647D01*
X103282288Y-91618794D01*
X103288319Y-91616109D01*
X103450722Y-91543803D01*
X103450724Y-91543802D01*
X103456752Y-91541118D01*
X103611253Y-91428866D01*
X103739040Y-91286944D01*
X103834527Y-91121556D01*
X103893542Y-90939928D01*
X103896894Y-90908041D01*
X103912814Y-90756565D01*
X103913504Y-90750000D01*
X103893542Y-90560072D01*
X103834527Y-90378444D01*
X103739040Y-90213056D01*
X103611253Y-90071134D01*
X103512157Y-89999136D01*
X103462094Y-89962763D01*
X103462093Y-89962762D01*
X103456752Y-89958882D01*
X103450724Y-89956198D01*
X103450722Y-89956197D01*
X103288319Y-89883891D01*
X103288318Y-89883891D01*
X103282288Y-89881206D01*
X103275833Y-89879834D01*
X103275824Y-89879831D01*
X103219228Y-89867801D01*
X103156331Y-89833650D01*
X102333770Y-89011089D01*
X102321384Y-88996677D01*
X102312851Y-88985082D01*
X102312846Y-88985077D01*
X102308508Y-88979182D01*
X102302930Y-88974443D01*
X102302927Y-88974440D01*
X102268232Y-88944965D01*
X102260716Y-88938035D01*
X102255021Y-88932340D01*
X102248880Y-88927482D01*
X102232749Y-88914719D01*
X102229345Y-88911928D01*
X102179297Y-88869409D01*
X102179295Y-88869408D01*
X102173715Y-88864667D01*
X102167199Y-88861339D01*
X102162150Y-88857972D01*
X102157021Y-88854805D01*
X102151284Y-88850266D01*
X102085125Y-88819345D01*
X102081225Y-88817439D01*
X102016192Y-88784231D01*
X102009084Y-88782492D01*
X102003441Y-88780393D01*
X101997678Y-88778476D01*
X101991050Y-88775378D01*
X101919583Y-88760513D01*
X101915299Y-88759543D01*
X101893529Y-88754216D01*
X101844390Y-88742192D01*
X101838788Y-88741844D01*
X101838785Y-88741844D01*
X101833236Y-88741500D01*
X101833238Y-88741464D01*
X101829245Y-88741225D01*
X101825053Y-88740851D01*
X101817885Y-88739360D01*
X101751675Y-88741151D01*
X101740479Y-88741454D01*
X101737072Y-88741500D01*
X97616371Y-88741500D01*
X97548250Y-88721498D01*
X97527276Y-88704595D01*
X97045405Y-88222724D01*
X97011379Y-88160412D01*
X97008500Y-88133629D01*
X97008500Y-84786999D01*
X97025381Y-84723999D01*
X97081223Y-84627279D01*
X97081224Y-84627278D01*
X97084527Y-84621556D01*
X97143542Y-84439928D01*
X97163504Y-84250000D01*
X97143542Y-84060072D01*
X97084527Y-83878444D01*
X96989040Y-83713056D01*
X96861253Y-83571134D01*
X96706752Y-83458882D01*
X96700724Y-83456198D01*
X96700722Y-83456197D01*
X96538319Y-83383891D01*
X96538318Y-83383891D01*
X96532288Y-83381206D01*
X96438887Y-83361353D01*
X96351944Y-83342872D01*
X96351939Y-83342872D01*
X96345487Y-83341500D01*
X96154513Y-83341500D01*
X96148061Y-83342872D01*
X96148056Y-83342872D01*
X96061113Y-83361353D01*
X95967712Y-83381206D01*
X95961682Y-83383891D01*
X95961681Y-83383891D01*
X95799278Y-83456197D01*
X95799276Y-83456198D01*
X95793248Y-83458882D01*
X95638747Y-83571134D01*
X95510960Y-83713056D01*
X95415473Y-83878444D01*
X95356458Y-84060072D01*
X95336496Y-84250000D01*
X81758500Y-84250000D01*
X81758500Y-75477850D01*
X81759237Y-75464242D01*
X81761122Y-75446887D01*
X81763325Y-75426612D01*
X81758947Y-75376570D01*
X81758621Y-75371788D01*
X81758500Y-75369310D01*
X81758500Y-75366231D01*
X81758201Y-75363177D01*
X81758200Y-75363166D01*
X81754313Y-75323529D01*
X81754191Y-75322215D01*
X81748203Y-75253779D01*
X81746087Y-75229587D01*
X81744600Y-75224468D01*
X81744080Y-75219167D01*
X81717209Y-75130166D01*
X81716874Y-75129033D01*
X81692630Y-75045586D01*
X81692628Y-75045582D01*
X81690909Y-75039664D01*
X81688456Y-75034932D01*
X81686916Y-75029831D01*
X81643269Y-74947740D01*
X81642657Y-74946574D01*
X81602729Y-74869547D01*
X81599892Y-74864074D01*
X81596569Y-74859911D01*
X81594066Y-74855204D01*
X81583429Y-74842161D01*
X81572628Y-74828918D01*
X84786917Y-74828918D01*
X84802682Y-75102320D01*
X84803507Y-75106525D01*
X84803508Y-75106533D01*
X84824450Y-75213272D01*
X84855405Y-75371053D01*
X84856792Y-75375103D01*
X84856793Y-75375108D01*
X84937676Y-75611347D01*
X84944112Y-75630144D01*
X84966977Y-75675606D01*
X85046507Y-75833734D01*
X85067160Y-75874799D01*
X85069586Y-75878328D01*
X85069589Y-75878334D01*
X85120987Y-75953118D01*
X85222274Y-76100490D01*
X85225161Y-76103663D01*
X85225162Y-76103664D01*
X85397453Y-76293010D01*
X85406582Y-76303043D01*
X85616675Y-76478707D01*
X85620316Y-76480991D01*
X85845024Y-76621951D01*
X85845028Y-76621953D01*
X85848664Y-76624234D01*
X85916544Y-76654883D01*
X86094345Y-76735164D01*
X86094349Y-76735166D01*
X86098257Y-76736930D01*
X86102377Y-76738150D01*
X86102376Y-76738150D01*
X86356723Y-76813491D01*
X86356727Y-76813492D01*
X86360836Y-76814709D01*
X86365070Y-76815357D01*
X86365075Y-76815358D01*
X86627298Y-76855483D01*
X86627300Y-76855483D01*
X86631540Y-76856132D01*
X86770912Y-76858322D01*
X86901071Y-76860367D01*
X86901077Y-76860367D01*
X86905362Y-76860434D01*
X87177235Y-76827534D01*
X87442127Y-76758041D01*
X87446087Y-76756401D01*
X87446092Y-76756399D01*
X87610858Y-76688150D01*
X87695136Y-76653241D01*
X87931582Y-76515073D01*
X88147089Y-76346094D01*
X88188809Y-76303043D01*
X88334686Y-76152509D01*
X88337669Y-76149431D01*
X88340202Y-76145983D01*
X88340206Y-76145978D01*
X88497257Y-75932178D01*
X88499795Y-75928723D01*
X88503786Y-75921372D01*
X88628418Y-75691830D01*
X88628419Y-75691828D01*
X88630468Y-75688054D01*
X88712476Y-75471026D01*
X88725751Y-75435895D01*
X88725752Y-75435891D01*
X88727269Y-75431877D01*
X88788407Y-75164933D01*
X88789152Y-75156594D01*
X88812531Y-74894627D01*
X88812531Y-74894625D01*
X88812751Y-74892161D01*
X88813044Y-74864262D01*
X88813167Y-74852484D01*
X88813167Y-74852483D01*
X88813193Y-74850000D01*
X88810361Y-74808461D01*
X88794859Y-74581055D01*
X88794858Y-74581049D01*
X88794567Y-74576778D01*
X88793649Y-74572342D01*
X88771594Y-74465844D01*
X98237170Y-74465844D01*
X98237467Y-74470996D01*
X98237467Y-74471000D01*
X98243566Y-74576778D01*
X98250879Y-74703605D01*
X98252016Y-74708651D01*
X98252017Y-74708657D01*
X98283871Y-74850000D01*
X98303237Y-74935935D01*
X98305179Y-74940717D01*
X98305180Y-74940721D01*
X98390893Y-75151807D01*
X98392837Y-75156594D01*
X98446977Y-75244942D01*
X98512676Y-75352152D01*
X98517274Y-75359656D01*
X98673204Y-75539667D01*
X98856442Y-75691794D01*
X98860894Y-75694396D01*
X98860899Y-75694399D01*
X98959333Y-75751919D01*
X99062065Y-75811951D01*
X99284552Y-75896910D01*
X99289618Y-75897941D01*
X99289619Y-75897941D01*
X99343956Y-75908996D01*
X99517928Y-75944391D01*
X99652121Y-75949312D01*
X99750760Y-75952929D01*
X99750764Y-75952929D01*
X99755924Y-75953118D01*
X99761044Y-75952462D01*
X99761046Y-75952462D01*
X99987023Y-75923514D01*
X99987024Y-75923514D01*
X99992151Y-75922857D01*
X100076803Y-75897460D01*
X100215316Y-75855904D01*
X100215317Y-75855903D01*
X100220262Y-75854420D01*
X100434133Y-75749645D01*
X100438336Y-75746647D01*
X100438341Y-75746644D01*
X100623816Y-75614346D01*
X100623818Y-75614344D01*
X100628020Y-75611347D01*
X100796716Y-75443239D01*
X100804881Y-75431877D01*
X100813070Y-75420480D01*
X100854979Y-75362157D01*
X100910972Y-75318510D01*
X100981676Y-75312064D01*
X101044640Y-75344866D01*
X101056582Y-75358526D01*
X101057274Y-75359656D01*
X101213204Y-75539667D01*
X101396442Y-75691794D01*
X101400894Y-75694396D01*
X101400899Y-75694399D01*
X101499333Y-75751919D01*
X101602065Y-75811951D01*
X101824552Y-75896910D01*
X101829618Y-75897941D01*
X101829619Y-75897941D01*
X101883956Y-75908996D01*
X102057928Y-75944391D01*
X102192121Y-75949312D01*
X102290760Y-75952929D01*
X102290764Y-75952929D01*
X102295924Y-75953118D01*
X102301044Y-75952462D01*
X102301046Y-75952462D01*
X102527023Y-75923514D01*
X102527024Y-75923514D01*
X102532151Y-75922857D01*
X102616803Y-75897460D01*
X102755316Y-75855904D01*
X102755317Y-75855903D01*
X102760262Y-75854420D01*
X102974133Y-75749645D01*
X102978336Y-75746647D01*
X102978341Y-75746644D01*
X103163816Y-75614346D01*
X103163818Y-75614344D01*
X103168020Y-75611347D01*
X103336716Y-75443239D01*
X103344881Y-75431877D01*
X103353070Y-75420480D01*
X103394979Y-75362157D01*
X103450972Y-75318510D01*
X103521676Y-75312064D01*
X103584640Y-75344866D01*
X103596582Y-75358526D01*
X103597274Y-75359656D01*
X103753204Y-75539667D01*
X103936442Y-75691794D01*
X103940894Y-75694396D01*
X103940899Y-75694399D01*
X104039333Y-75751919D01*
X104142065Y-75811951D01*
X104364552Y-75896910D01*
X104369618Y-75897941D01*
X104369619Y-75897941D01*
X104423956Y-75908996D01*
X104597928Y-75944391D01*
X104732121Y-75949312D01*
X104830760Y-75952929D01*
X104830764Y-75952929D01*
X104835924Y-75953118D01*
X104841044Y-75952462D01*
X104841046Y-75952462D01*
X105067023Y-75923514D01*
X105067024Y-75923514D01*
X105072151Y-75922857D01*
X105156803Y-75897460D01*
X105295316Y-75855904D01*
X105295317Y-75855903D01*
X105300262Y-75854420D01*
X105514133Y-75749645D01*
X105518336Y-75746647D01*
X105518341Y-75746644D01*
X105595155Y-75691853D01*
X106484326Y-75691853D01*
X106489607Y-75698908D01*
X106677821Y-75808891D01*
X106687108Y-75813341D01*
X106899861Y-75894583D01*
X106909763Y-75897460D01*
X107132911Y-75942860D01*
X107143163Y-75944083D01*
X107370738Y-75952427D01*
X107381024Y-75951960D01*
X107606915Y-75923023D01*
X107617001Y-75920880D01*
X107835128Y-75855438D01*
X107844723Y-75851678D01*
X108049237Y-75751487D01*
X108058083Y-75746213D01*
X108123631Y-75699458D01*
X108132032Y-75688758D01*
X108125045Y-75675606D01*
X107322811Y-74873371D01*
X107308868Y-74865758D01*
X107307034Y-74865889D01*
X107300420Y-74870140D01*
X106491083Y-75679478D01*
X106484326Y-75691853D01*
X105595155Y-75691853D01*
X105703816Y-75614346D01*
X105703818Y-75614344D01*
X105708020Y-75611347D01*
X105876716Y-75443239D01*
X105879732Y-75439042D01*
X105879739Y-75439034D01*
X105942170Y-75352152D01*
X105998164Y-75308504D01*
X106068868Y-75302058D01*
X106115626Y-75325519D01*
X106119976Y-75326240D01*
X106130387Y-75321752D01*
X106937979Y-74514161D01*
X106944356Y-74502482D01*
X107674408Y-74502482D01*
X107674539Y-74504316D01*
X107678790Y-74510930D01*
X108484826Y-75316965D01*
X108496832Y-75323521D01*
X108508571Y-75314552D01*
X108552241Y-75253779D01*
X108557551Y-75244942D01*
X108658450Y-75040788D01*
X108662249Y-75031193D01*
X108728449Y-74813307D01*
X108730628Y-74803226D01*
X108760591Y-74575638D01*
X108761110Y-74568965D01*
X108762680Y-74504715D01*
X108762486Y-74497996D01*
X108743679Y-74269237D01*
X108741994Y-74259057D01*
X108686515Y-74038187D01*
X108683195Y-74028436D01*
X108592384Y-73819583D01*
X108587518Y-73810508D01*
X108508008Y-73687606D01*
X108497322Y-73678402D01*
X108487755Y-73682806D01*
X107682021Y-74488539D01*
X107674408Y-74502482D01*
X106944356Y-74502482D01*
X106945592Y-74500218D01*
X106945461Y-74498384D01*
X106941210Y-74491770D01*
X106135220Y-73685781D01*
X106122803Y-73679001D01*
X106059899Y-73704049D01*
X105990210Y-73690485D01*
X105942360Y-73647038D01*
X105924216Y-73618992D01*
X105921406Y-73614648D01*
X105892661Y-73583057D01*
X105835485Y-73520222D01*
X105761124Y-73438500D01*
X105757073Y-73435301D01*
X105757069Y-73435297D01*
X105668584Y-73365417D01*
X105623347Y-73329691D01*
X105582285Y-73271775D01*
X105579053Y-73200852D01*
X105614678Y-73139441D01*
X105628271Y-73128232D01*
X105703814Y-73074348D01*
X105703821Y-73074342D01*
X105708020Y-73071347D01*
X105876716Y-72903239D01*
X105879915Y-72898788D01*
X105891844Y-72882186D01*
X105934979Y-72822157D01*
X105990972Y-72778510D01*
X106061676Y-72772064D01*
X106124640Y-72804866D01*
X106136582Y-72818526D01*
X106137274Y-72819656D01*
X106293204Y-72999667D01*
X106383158Y-73074348D01*
X106465535Y-73142739D01*
X106505170Y-73201642D01*
X106506668Y-73272622D01*
X106486887Y-73313279D01*
X106493825Y-73325964D01*
X107297189Y-74129329D01*
X107311132Y-74136942D01*
X107312966Y-74136811D01*
X107319580Y-74132560D01*
X108127331Y-73324808D01*
X108134348Y-73311957D01*
X108132815Y-73309853D01*
X108108865Y-73243018D01*
X108124851Y-73173845D01*
X108161480Y-73133076D01*
X108248020Y-73071347D01*
X108416716Y-72903239D01*
X108419915Y-72898788D01*
X108467923Y-72831977D01*
X108555690Y-72709836D01*
X108601774Y-72616594D01*
X108658917Y-72500974D01*
X108658918Y-72500972D01*
X108661211Y-72496332D01*
X108730443Y-72268461D01*
X108761529Y-72032342D01*
X108763264Y-71961350D01*
X108743750Y-71723994D01*
X108685731Y-71493013D01*
X108590767Y-71274609D01*
X108573694Y-71248217D01*
X108511365Y-71151872D01*
X108461406Y-71074648D01*
X108301124Y-70898500D01*
X108297073Y-70895301D01*
X108297069Y-70895297D01*
X108118278Y-70754097D01*
X108118273Y-70754094D01*
X108114224Y-70750896D01*
X108109708Y-70748403D01*
X108109705Y-70748401D01*
X107910250Y-70638296D01*
X107910246Y-70638294D01*
X107905726Y-70635799D01*
X107900857Y-70634075D01*
X107900853Y-70634073D01*
X107686105Y-70558026D01*
X107686101Y-70558025D01*
X107681230Y-70556300D01*
X107676140Y-70555393D01*
X107676135Y-70555392D01*
X107548814Y-70532714D01*
X107446764Y-70514536D01*
X107357637Y-70513447D01*
X107213795Y-70511689D01*
X107213793Y-70511689D01*
X107208625Y-70511626D01*
X106973209Y-70547650D01*
X106746838Y-70621639D01*
X106535590Y-70731608D01*
X106531457Y-70734711D01*
X106531454Y-70734713D01*
X106505637Y-70754097D01*
X106345140Y-70874602D01*
X106180602Y-71046781D01*
X106158629Y-71078992D01*
X106145186Y-71098699D01*
X106090274Y-71143701D01*
X106019749Y-71151872D01*
X105956002Y-71120617D01*
X105935306Y-71096134D01*
X105924217Y-71078992D01*
X105924212Y-71078986D01*
X105921406Y-71074648D01*
X105761124Y-70898500D01*
X105757073Y-70895301D01*
X105757069Y-70895297D01*
X105578278Y-70754097D01*
X105578273Y-70754094D01*
X105574224Y-70750896D01*
X105569708Y-70748403D01*
X105569705Y-70748401D01*
X105370250Y-70638296D01*
X105370246Y-70638294D01*
X105365726Y-70635799D01*
X105360857Y-70634075D01*
X105360853Y-70634073D01*
X105146105Y-70558026D01*
X105146101Y-70558025D01*
X105141230Y-70556300D01*
X105136140Y-70555393D01*
X105136135Y-70555392D01*
X105008814Y-70532714D01*
X104906764Y-70514536D01*
X104817637Y-70513447D01*
X104673795Y-70511689D01*
X104673793Y-70511689D01*
X104668625Y-70511626D01*
X104433209Y-70547650D01*
X104206838Y-70621639D01*
X103995590Y-70731608D01*
X103991457Y-70734711D01*
X103991454Y-70734713D01*
X103965637Y-70754097D01*
X103805140Y-70874602D01*
X103640602Y-71046781D01*
X103618629Y-71078992D01*
X103605186Y-71098699D01*
X103550274Y-71143701D01*
X103479749Y-71151872D01*
X103416002Y-71120617D01*
X103395306Y-71096134D01*
X103384217Y-71078992D01*
X103384212Y-71078986D01*
X103381406Y-71074648D01*
X103221124Y-70898500D01*
X103217073Y-70895301D01*
X103217069Y-70895297D01*
X103038278Y-70754097D01*
X103038273Y-70754094D01*
X103034224Y-70750896D01*
X103029708Y-70748403D01*
X103029705Y-70748401D01*
X102830250Y-70638296D01*
X102830246Y-70638294D01*
X102825726Y-70635799D01*
X102820857Y-70634075D01*
X102820853Y-70634073D01*
X102606105Y-70558026D01*
X102606101Y-70558025D01*
X102601230Y-70556300D01*
X102596140Y-70555393D01*
X102596135Y-70555392D01*
X102468814Y-70532714D01*
X102366764Y-70514536D01*
X102277637Y-70513447D01*
X102133795Y-70511689D01*
X102133793Y-70511689D01*
X102128625Y-70511626D01*
X101893209Y-70547650D01*
X101666838Y-70621639D01*
X101455590Y-70731608D01*
X101451457Y-70734711D01*
X101451454Y-70734713D01*
X101425637Y-70754097D01*
X101265140Y-70874602D01*
X101100602Y-71046781D01*
X101078629Y-71078992D01*
X101065186Y-71098699D01*
X101010274Y-71143701D01*
X100939749Y-71151872D01*
X100876002Y-71120617D01*
X100855306Y-71096134D01*
X100844217Y-71078992D01*
X100844212Y-71078986D01*
X100841406Y-71074648D01*
X100681124Y-70898500D01*
X100677073Y-70895301D01*
X100677069Y-70895297D01*
X100498278Y-70754097D01*
X100498273Y-70754094D01*
X100494224Y-70750896D01*
X100489708Y-70748403D01*
X100489705Y-70748401D01*
X100290250Y-70638296D01*
X100290246Y-70638294D01*
X100285726Y-70635799D01*
X100280857Y-70634075D01*
X100280853Y-70634073D01*
X100066105Y-70558026D01*
X100066101Y-70558025D01*
X100061230Y-70556300D01*
X100056140Y-70555393D01*
X100056135Y-70555392D01*
X99928814Y-70532714D01*
X99826764Y-70514536D01*
X99737637Y-70513447D01*
X99593795Y-70511689D01*
X99593793Y-70511689D01*
X99588625Y-70511626D01*
X99353209Y-70547650D01*
X99126838Y-70621639D01*
X98915590Y-70731608D01*
X98911457Y-70734711D01*
X98911454Y-70734713D01*
X98885637Y-70754097D01*
X98725140Y-70874602D01*
X98560602Y-71046781D01*
X98557691Y-71051049D01*
X98557687Y-71051054D01*
X98525186Y-71098699D01*
X98426394Y-71243522D01*
X98326122Y-71459541D01*
X98262477Y-71689035D01*
X98261928Y-71694169D01*
X98261928Y-71694171D01*
X98256449Y-71745439D01*
X98237170Y-71925844D01*
X98237467Y-71930996D01*
X98237467Y-71931000D01*
X98243502Y-72035663D01*
X98250879Y-72163605D01*
X98252016Y-72168651D01*
X98252017Y-72168657D01*
X98285111Y-72315506D01*
X98303237Y-72395935D01*
X98305179Y-72400717D01*
X98305180Y-72400721D01*
X98390893Y-72611807D01*
X98392837Y-72616594D01*
X98517274Y-72819656D01*
X98673204Y-72999667D01*
X98763158Y-73074348D01*
X98837560Y-73136118D01*
X98877195Y-73195021D01*
X98878693Y-73266001D01*
X98841578Y-73326524D01*
X98832728Y-73333822D01*
X98729275Y-73411497D01*
X98725140Y-73414602D01*
X98560602Y-73586781D01*
X98557691Y-73591049D01*
X98557687Y-73591054D01*
X98525186Y-73638699D01*
X98426394Y-73783522D01*
X98417071Y-73803607D01*
X98334654Y-73981161D01*
X98326122Y-73999541D01*
X98262477Y-74229035D01*
X98261928Y-74234169D01*
X98261928Y-74234171D01*
X98261483Y-74238337D01*
X98237170Y-74465844D01*
X88771594Y-74465844D01*
X88739901Y-74312809D01*
X88739032Y-74308612D01*
X88647617Y-74050465D01*
X88528450Y-73819583D01*
X88523978Y-73810919D01*
X88523978Y-73810918D01*
X88522013Y-73807112D01*
X88515389Y-73797686D01*
X88367008Y-73586562D01*
X88364545Y-73583057D01*
X88233767Y-73442323D01*
X88181046Y-73385588D01*
X88181043Y-73385585D01*
X88178125Y-73382445D01*
X88174810Y-73379731D01*
X88174806Y-73379728D01*
X87969523Y-73211706D01*
X87966205Y-73208990D01*
X87868665Y-73149218D01*
X87821034Y-73096570D01*
X87808500Y-73041785D01*
X87808500Y-67000000D01*
X107536693Y-67000000D01*
X107555885Y-67219371D01*
X107612880Y-67432076D01*
X107615205Y-67437061D01*
X107703618Y-67626666D01*
X107703621Y-67626671D01*
X107705944Y-67631653D01*
X107832251Y-67812038D01*
X107987962Y-67967749D01*
X108168346Y-68094056D01*
X108367924Y-68187120D01*
X108580629Y-68244115D01*
X108800000Y-68263307D01*
X109019371Y-68244115D01*
X109232076Y-68187120D01*
X109431654Y-68094056D01*
X109612038Y-67967749D01*
X109767749Y-67812038D01*
X109894056Y-67631653D01*
X109896379Y-67626671D01*
X109896382Y-67626666D01*
X109984795Y-67437061D01*
X109987120Y-67432076D01*
X110044115Y-67219371D01*
X110063307Y-67000000D01*
X110044115Y-66780629D01*
X109987120Y-66567924D01*
X109943585Y-66474562D01*
X109896382Y-66373334D01*
X109896379Y-66373329D01*
X109894056Y-66368347D01*
X109767749Y-66187962D01*
X109612038Y-66032251D01*
X109431654Y-65905944D01*
X109232076Y-65812880D01*
X109019371Y-65755885D01*
X108800000Y-65736693D01*
X108580629Y-65755885D01*
X108367924Y-65812880D01*
X108274562Y-65856415D01*
X108173334Y-65903618D01*
X108173329Y-65903621D01*
X108168347Y-65905944D01*
X108163840Y-65909100D01*
X108163838Y-65909101D01*
X107992473Y-66029092D01*
X107992470Y-66029094D01*
X107987962Y-66032251D01*
X107832251Y-66187962D01*
X107705944Y-66368347D01*
X107703621Y-66373329D01*
X107703618Y-66373334D01*
X107656415Y-66474562D01*
X107612880Y-66567924D01*
X107555885Y-66780629D01*
X107536693Y-67000000D01*
X87808500Y-67000000D01*
X87808500Y-64545925D01*
X87828502Y-64477804D01*
X87845405Y-64456830D01*
X96634379Y-55667855D01*
X96644522Y-55658753D01*
X96669218Y-55638897D01*
X96674025Y-55635032D01*
X96706320Y-55596544D01*
X96709478Y-55592925D01*
X96711124Y-55591110D01*
X96713309Y-55588925D01*
X96715264Y-55586545D01*
X96715273Y-55586535D01*
X96740549Y-55555764D01*
X96741391Y-55554749D01*
X96797194Y-55488245D01*
X96801154Y-55483526D01*
X96803723Y-55478852D01*
X96807102Y-55474739D01*
X96850975Y-55392915D01*
X96851584Y-55391793D01*
X96893464Y-55315614D01*
X96893465Y-55315612D01*
X96896433Y-55310213D01*
X96898045Y-55305131D01*
X96900562Y-55300437D01*
X96927762Y-55211469D01*
X96928108Y-55210358D01*
X96954373Y-55127563D01*
X96956235Y-55121694D01*
X96956829Y-55116398D01*
X96958387Y-55111302D01*
X96967790Y-55018743D01*
X96967911Y-55017607D01*
X96973500Y-54967773D01*
X96973500Y-54964246D01*
X96973555Y-54963261D01*
X96974002Y-54957581D01*
X96978374Y-54914538D01*
X96974059Y-54868891D01*
X96973500Y-54857033D01*
X96973500Y-50050161D01*
X108114393Y-50050161D01*
X108123687Y-50062175D01*
X108164088Y-50090464D01*
X108173584Y-50095947D01*
X108363113Y-50184326D01*
X108373405Y-50188072D01*
X108575401Y-50242196D01*
X108586196Y-50244099D01*
X108794525Y-50262326D01*
X108805475Y-50262326D01*
X109013804Y-50244099D01*
X109024599Y-50242196D01*
X109226595Y-50188072D01*
X109236887Y-50184326D01*
X109426416Y-50095947D01*
X109435912Y-50090464D01*
X109477148Y-50061590D01*
X109485523Y-50051112D01*
X109478457Y-50037668D01*
X108812811Y-49372021D01*
X108798868Y-49364408D01*
X108797034Y-49364539D01*
X108790420Y-49368790D01*
X108120820Y-50038391D01*
X108114393Y-50050161D01*
X96973500Y-50050161D01*
X96973500Y-49005475D01*
X107537674Y-49005475D01*
X107555901Y-49213804D01*
X107557804Y-49224599D01*
X107611928Y-49426595D01*
X107615674Y-49436887D01*
X107704054Y-49626417D01*
X107709534Y-49635907D01*
X107738411Y-49677149D01*
X107748887Y-49685523D01*
X107762334Y-49678455D01*
X108427979Y-49012811D01*
X108434356Y-49001132D01*
X109164408Y-49001132D01*
X109164539Y-49002966D01*
X109168790Y-49009580D01*
X109838391Y-49679180D01*
X109850161Y-49685607D01*
X109862176Y-49676311D01*
X109890466Y-49635907D01*
X109895946Y-49626417D01*
X109984326Y-49436887D01*
X109988072Y-49426595D01*
X110042196Y-49224599D01*
X110044099Y-49213804D01*
X110062326Y-49005475D01*
X110062326Y-48994525D01*
X110044099Y-48786196D01*
X110042196Y-48775401D01*
X109988072Y-48573405D01*
X109984326Y-48563113D01*
X109895946Y-48373583D01*
X109890466Y-48364093D01*
X109861589Y-48322851D01*
X109851113Y-48314477D01*
X109837666Y-48321545D01*
X109172021Y-48987189D01*
X109164408Y-49001132D01*
X108434356Y-49001132D01*
X108435592Y-48998868D01*
X108435461Y-48997034D01*
X108431210Y-48990420D01*
X107761609Y-48320820D01*
X107749839Y-48314393D01*
X107737824Y-48323689D01*
X107709534Y-48364093D01*
X107704054Y-48373583D01*
X107615674Y-48563113D01*
X107611928Y-48573405D01*
X107557804Y-48775401D01*
X107555901Y-48786196D01*
X107537674Y-48994525D01*
X107537674Y-49005475D01*
X96973500Y-49005475D01*
X96973500Y-47948887D01*
X108114477Y-47948887D01*
X108121545Y-47962334D01*
X108787189Y-48627979D01*
X108801132Y-48635592D01*
X108802966Y-48635461D01*
X108809580Y-48631210D01*
X109479180Y-47961609D01*
X109485607Y-47949839D01*
X109476313Y-47937825D01*
X109435912Y-47909536D01*
X109426416Y-47904053D01*
X109236887Y-47815674D01*
X109226595Y-47811928D01*
X109024599Y-47757804D01*
X109013804Y-47755901D01*
X108805475Y-47737674D01*
X108794525Y-47737674D01*
X108586196Y-47755901D01*
X108575401Y-47757804D01*
X108373405Y-47811928D01*
X108363113Y-47815674D01*
X108173583Y-47904054D01*
X108164093Y-47909534D01*
X108122851Y-47938411D01*
X108114477Y-47948887D01*
X96973500Y-47948887D01*
X96973500Y-41517751D01*
X96993502Y-41449630D01*
X97025438Y-41415815D01*
X97027009Y-41414673D01*
X97030990Y-41412210D01*
X97236149Y-41238530D01*
X97413382Y-41036434D01*
X97558797Y-40810361D01*
X97669199Y-40565278D01*
X97706209Y-40434051D01*
X97740893Y-40311072D01*
X97740894Y-40311069D01*
X97742163Y-40306568D01*
X97760043Y-40166019D01*
X97775688Y-40043045D01*
X97775688Y-40043041D01*
X97776086Y-40039915D01*
X97778571Y-39945000D01*
X97758650Y-39676937D01*
X97747020Y-39625538D01*
X97700361Y-39419331D01*
X97700360Y-39419326D01*
X97699327Y-39414763D01*
X97601902Y-39164238D01*
X97468518Y-38930864D01*
X97302105Y-38719769D01*
X97106317Y-38535591D01*
X96908407Y-38398295D01*
X96889299Y-38385039D01*
X96889296Y-38385037D01*
X96885457Y-38382374D01*
X96871873Y-38375675D01*
X96648564Y-38265551D01*
X96648561Y-38265550D01*
X96644376Y-38263486D01*
X96596745Y-38248239D01*
X96446267Y-38200071D01*
X96388370Y-38181538D01*
X96383763Y-38180788D01*
X96383760Y-38180787D01*
X96168052Y-38145657D01*
X96123063Y-38138330D01*
X95992719Y-38136624D01*
X95858961Y-38134873D01*
X95858958Y-38134873D01*
X95854284Y-38134812D01*
X95587937Y-38171060D01*
X95329874Y-38246278D01*
X95085763Y-38358815D01*
X95081854Y-38361378D01*
X94864881Y-38503631D01*
X94864876Y-38503635D01*
X94860968Y-38506197D01*
X94660426Y-38685188D01*
X94488544Y-38891854D01*
X94349096Y-39121656D01*
X94245148Y-39369545D01*
X94178981Y-39630077D01*
X94152050Y-39897526D01*
X94164947Y-40166019D01*
X94217388Y-40429656D01*
X94308220Y-40682646D01*
X94435450Y-40919431D01*
X94438241Y-40923168D01*
X94438245Y-40923175D01*
X94519887Y-41032506D01*
X94596281Y-41134810D01*
X94599590Y-41138090D01*
X94599595Y-41138096D01*
X94783863Y-41320762D01*
X94787180Y-41324050D01*
X94790942Y-41326808D01*
X94790945Y-41326811D01*
X94839913Y-41362715D01*
X94905006Y-41410443D01*
X94948113Y-41466852D01*
X94956500Y-41512054D01*
X94956500Y-54441075D01*
X94936498Y-54509196D01*
X94919595Y-54530170D01*
X86130621Y-63319145D01*
X86120478Y-63328247D01*
X86090975Y-63351968D01*
X86087008Y-63356696D01*
X86058709Y-63390421D01*
X86055528Y-63394069D01*
X86053885Y-63395881D01*
X86051691Y-63398075D01*
X86024358Y-63431349D01*
X86023696Y-63432147D01*
X85963846Y-63503474D01*
X85961278Y-63508144D01*
X85957897Y-63512261D01*
X85926860Y-63570145D01*
X85914023Y-63594086D01*
X85913394Y-63595245D01*
X85871538Y-63671381D01*
X85871535Y-63671389D01*
X85868567Y-63676787D01*
X85866955Y-63681869D01*
X85864438Y-63686563D01*
X85837238Y-63775531D01*
X85836918Y-63776559D01*
X85808765Y-63865306D01*
X85808171Y-63870602D01*
X85806613Y-63875698D01*
X85805990Y-63881834D01*
X85797218Y-63968187D01*
X85797089Y-63969393D01*
X85791500Y-64019227D01*
X85791500Y-64022754D01*
X85791445Y-64023739D01*
X85790998Y-64029419D01*
X85786626Y-64072462D01*
X85787206Y-64078593D01*
X85790941Y-64118109D01*
X85791500Y-64129967D01*
X85791500Y-73041374D01*
X85771498Y-73109495D01*
X85730206Y-73149490D01*
X85654725Y-73194664D01*
X85654721Y-73194667D01*
X85651043Y-73196868D01*
X85437318Y-73368094D01*
X85373545Y-73435297D01*
X85283755Y-73529916D01*
X85248808Y-73566742D01*
X85089002Y-73789136D01*
X84960857Y-74031161D01*
X84959385Y-74035184D01*
X84959383Y-74035188D01*
X84877621Y-74258612D01*
X84866743Y-74288337D01*
X84808404Y-74555907D01*
X84786917Y-74828918D01*
X81572628Y-74828918D01*
X81535261Y-74783102D01*
X81534433Y-74782075D01*
X81505469Y-74745792D01*
X81505464Y-74745787D01*
X81503262Y-74743028D01*
X81500761Y-74740527D01*
X81500119Y-74739809D01*
X81496406Y-74735461D01*
X81488642Y-74725941D01*
X81469065Y-74701938D01*
X81464323Y-74698015D01*
X81464321Y-74698013D01*
X81433727Y-74672703D01*
X81424947Y-74664713D01*
X74197405Y-67437171D01*
X74163379Y-67374859D01*
X74160500Y-67348076D01*
X74160500Y-62044477D01*
X74180502Y-61976356D01*
X74234158Y-61929863D01*
X74304432Y-61919759D01*
X74369012Y-61949253D01*
X74375595Y-61955382D01*
X74387962Y-61967749D01*
X74568346Y-62094056D01*
X74767924Y-62187120D01*
X74980629Y-62244115D01*
X75200000Y-62263307D01*
X75419371Y-62244115D01*
X75632076Y-62187120D01*
X75831654Y-62094056D01*
X76012038Y-61967749D01*
X76167749Y-61812038D01*
X76294056Y-61631653D01*
X76296379Y-61626671D01*
X76296382Y-61626666D01*
X76384795Y-61437061D01*
X76387120Y-61432076D01*
X76444115Y-61219371D01*
X76463307Y-61000000D01*
X76444115Y-60780629D01*
X76387120Y-60567924D01*
X76294056Y-60368347D01*
X76231287Y-60278703D01*
X76208500Y-60206433D01*
X76208500Y-59019925D01*
X76228502Y-58951804D01*
X76245405Y-58930830D01*
X92363384Y-42812851D01*
X92373527Y-42803749D01*
X92398218Y-42783897D01*
X92403025Y-42780032D01*
X92435312Y-42741554D01*
X92438467Y-42737938D01*
X92440123Y-42736112D01*
X92442309Y-42733926D01*
X92444264Y-42731546D01*
X92444273Y-42731536D01*
X92469576Y-42700732D01*
X92470418Y-42699717D01*
X92526194Y-42633245D01*
X92530154Y-42628526D01*
X92532723Y-42623852D01*
X92536102Y-42619739D01*
X92579975Y-42537915D01*
X92580584Y-42536793D01*
X92622464Y-42460614D01*
X92622465Y-42460612D01*
X92625433Y-42455213D01*
X92627045Y-42450131D01*
X92629562Y-42445437D01*
X92656762Y-42356469D01*
X92657108Y-42355358D01*
X92683373Y-42272563D01*
X92685235Y-42266694D01*
X92685829Y-42261398D01*
X92687387Y-42256302D01*
X92696785Y-42163778D01*
X92696905Y-42162658D01*
X92702500Y-42112773D01*
X92702500Y-42109246D01*
X92702556Y-42108243D01*
X92703003Y-42102559D01*
X92707373Y-42059538D01*
X92703059Y-42013899D01*
X92702500Y-42002043D01*
X92702500Y-37710500D01*
X92722502Y-37642379D01*
X92776158Y-37595886D01*
X92828500Y-37584500D01*
X97206075Y-37584500D01*
X97274196Y-37604502D01*
X97295170Y-37621405D01*
X99199595Y-39525830D01*
X99233621Y-39588142D01*
X99236500Y-39614925D01*
X99236500Y-41293134D01*
X99243255Y-41355316D01*
X99294385Y-41491705D01*
X99381739Y-41608261D01*
X99498295Y-41695615D01*
X99634684Y-41746745D01*
X99696866Y-41753500D01*
X102393134Y-41753500D01*
X102455316Y-41746745D01*
X102591705Y-41695615D01*
X102708261Y-41608261D01*
X102795615Y-41491705D01*
X102846745Y-41355316D01*
X102853500Y-41293134D01*
X102853500Y-38596866D01*
X102846745Y-38534684D01*
X102795615Y-38398295D01*
X102708261Y-38281739D01*
X102591705Y-38194385D01*
X102455316Y-38143255D01*
X102393134Y-38136500D01*
X100714924Y-38136500D01*
X100646803Y-38116498D01*
X100625829Y-38099595D01*
X99318511Y-36792277D01*
X107137009Y-36792277D01*
X107162625Y-37060769D01*
X107163710Y-37065203D01*
X107163711Y-37065209D01*
X107225645Y-37318312D01*
X107226731Y-37322750D01*
X107327985Y-37572733D01*
X107464265Y-37805482D01*
X107467118Y-37809049D01*
X107584686Y-37956060D01*
X107632716Y-38016119D01*
X107829809Y-38200234D01*
X108051416Y-38353968D01*
X108055499Y-38355999D01*
X108055502Y-38356001D01*
X108113871Y-38385039D01*
X108292894Y-38474101D01*
X108297228Y-38475522D01*
X108297231Y-38475523D01*
X108544853Y-38556698D01*
X108544859Y-38556699D01*
X108549186Y-38558118D01*
X108553677Y-38558898D01*
X108553678Y-38558898D01*
X108811140Y-38603601D01*
X108811148Y-38603602D01*
X108814921Y-38604257D01*
X108818758Y-38604448D01*
X108898578Y-38608422D01*
X108898586Y-38608422D01*
X108900149Y-38608500D01*
X109068512Y-38608500D01*
X109070780Y-38608335D01*
X109070792Y-38608335D01*
X109201884Y-38598823D01*
X109269004Y-38593953D01*
X109273459Y-38592969D01*
X109273462Y-38592969D01*
X109527912Y-38536791D01*
X109527916Y-38536790D01*
X109532372Y-38535806D01*
X109658480Y-38488028D01*
X109780318Y-38441868D01*
X109780321Y-38441867D01*
X109784588Y-38440250D01*
X110020368Y-38309286D01*
X110234773Y-38145657D01*
X110241202Y-38139081D01*
X110420117Y-37956060D01*
X110423312Y-37952792D01*
X110582034Y-37734730D01*
X110665190Y-37576676D01*
X110705490Y-37500079D01*
X110705493Y-37500073D01*
X110707615Y-37496039D01*
X110770378Y-37318312D01*
X110795902Y-37246033D01*
X110795902Y-37246032D01*
X110797425Y-37241720D01*
X110849581Y-36977100D01*
X110858782Y-36792277D01*
X110862764Y-36712292D01*
X110862764Y-36712286D01*
X110862991Y-36707723D01*
X110837375Y-36439231D01*
X110792042Y-36253967D01*
X110774355Y-36181688D01*
X110773269Y-36177250D01*
X110672015Y-35927267D01*
X110535735Y-35694518D01*
X110417928Y-35547208D01*
X110370136Y-35487447D01*
X110370135Y-35487445D01*
X110367284Y-35483881D01*
X110170191Y-35299766D01*
X109948584Y-35146032D01*
X109944501Y-35144001D01*
X109944498Y-35143999D01*
X109779606Y-35061967D01*
X109707106Y-35025899D01*
X109702772Y-35024478D01*
X109702769Y-35024477D01*
X109455147Y-34943302D01*
X109455141Y-34943301D01*
X109450814Y-34941882D01*
X109446322Y-34941102D01*
X109188860Y-34896399D01*
X109188852Y-34896398D01*
X109185079Y-34895743D01*
X109173817Y-34895182D01*
X109101422Y-34891578D01*
X109101414Y-34891578D01*
X109099851Y-34891500D01*
X108931488Y-34891500D01*
X108929220Y-34891665D01*
X108929208Y-34891665D01*
X108798116Y-34901177D01*
X108730996Y-34906047D01*
X108726541Y-34907031D01*
X108726538Y-34907031D01*
X108472088Y-34963209D01*
X108472084Y-34963210D01*
X108467628Y-34964194D01*
X108341520Y-35011972D01*
X108219682Y-35058132D01*
X108219679Y-35058133D01*
X108215412Y-35059750D01*
X107979632Y-35190714D01*
X107765227Y-35354343D01*
X107576688Y-35547208D01*
X107417966Y-35765270D01*
X107369739Y-35856935D01*
X107294510Y-35999921D01*
X107294507Y-35999927D01*
X107292385Y-36003961D01*
X107290865Y-36008266D01*
X107290863Y-36008270D01*
X107204098Y-36253967D01*
X107202575Y-36258280D01*
X107150419Y-36522900D01*
X107150192Y-36527453D01*
X107150192Y-36527456D01*
X107140991Y-36712292D01*
X107137009Y-36792277D01*
X99318511Y-36792277D01*
X98432855Y-35906621D01*
X98423753Y-35896478D01*
X98403897Y-35871782D01*
X98400032Y-35866975D01*
X98361578Y-35834708D01*
X98357931Y-35831528D01*
X98356119Y-35829885D01*
X98353925Y-35827691D01*
X98320651Y-35800358D01*
X98319853Y-35799696D01*
X98248526Y-35739846D01*
X98243856Y-35737278D01*
X98239739Y-35733897D01*
X98166297Y-35694518D01*
X98157914Y-35690023D01*
X98156755Y-35689394D01*
X98080619Y-35647538D01*
X98080611Y-35647535D01*
X98075213Y-35644567D01*
X98070131Y-35642955D01*
X98065437Y-35640438D01*
X97976469Y-35613238D01*
X97975441Y-35612918D01*
X97886694Y-35584765D01*
X97881398Y-35584171D01*
X97876302Y-35582613D01*
X97783743Y-35573210D01*
X97782607Y-35573089D01*
X97748992Y-35569319D01*
X97736270Y-35567892D01*
X97736266Y-35567892D01*
X97732773Y-35567500D01*
X97729246Y-35567500D01*
X97728261Y-35567445D01*
X97722581Y-35566998D01*
X97693175Y-35564011D01*
X97685663Y-35563248D01*
X97685661Y-35563248D01*
X97679538Y-35562626D01*
X97637259Y-35566623D01*
X97633891Y-35566941D01*
X97622033Y-35567500D01*
X91753873Y-35567500D01*
X91740703Y-35566810D01*
X91707204Y-35563289D01*
X91707202Y-35563289D01*
X91701075Y-35562645D01*
X91653430Y-35566981D01*
X91642010Y-35567500D01*
X86350840Y-35567500D01*
X86337232Y-35566763D01*
X86305736Y-35563341D01*
X86305732Y-35563341D01*
X86299611Y-35562676D01*
X86281611Y-35564251D01*
X86249609Y-35567050D01*
X86244784Y-35567379D01*
X86242313Y-35567500D01*
X86239231Y-35567500D01*
X86216763Y-35569703D01*
X86196489Y-35571691D01*
X86195174Y-35571813D01*
X86162913Y-35574636D01*
X86102587Y-35579913D01*
X86097468Y-35581400D01*
X86092167Y-35581920D01*
X86003133Y-35608801D01*
X86002000Y-35609136D01*
X85918578Y-35633373D01*
X85918574Y-35633375D01*
X85912663Y-35635092D01*
X85907934Y-35637543D01*
X85902831Y-35639084D01*
X85820669Y-35682770D01*
X85819627Y-35683317D01*
X85798018Y-35694518D01*
X85737074Y-35726108D01*
X85732911Y-35729431D01*
X85728204Y-35731934D01*
X85723430Y-35735828D01*
X85723428Y-35735829D01*
X85656105Y-35790737D01*
X85655160Y-35791500D01*
X85616027Y-35822739D01*
X85613536Y-35825230D01*
X85612809Y-35825880D01*
X85608463Y-35829592D01*
X85589588Y-35844987D01*
X85574938Y-35856935D01*
X85571015Y-35861677D01*
X85571013Y-35861679D01*
X85545703Y-35892273D01*
X85537713Y-35901053D01*
X83314934Y-38123832D01*
X83252622Y-38157858D01*
X83205585Y-38159098D01*
X83082687Y-38139082D01*
X83082673Y-38139081D01*
X83078063Y-38138330D01*
X82947719Y-38136624D01*
X82813961Y-38134873D01*
X82813958Y-38134873D01*
X82809284Y-38134812D01*
X82542937Y-38171060D01*
X82284874Y-38246278D01*
X82040763Y-38358815D01*
X82036854Y-38361378D01*
X81819881Y-38503631D01*
X81819876Y-38503635D01*
X81815968Y-38506197D01*
X81615426Y-38685188D01*
X81443544Y-38891854D01*
X81304096Y-39121656D01*
X81200148Y-39369545D01*
X81133981Y-39630077D01*
X81107050Y-39897526D01*
X81119947Y-40166019D01*
X81172388Y-40429656D01*
X81263220Y-40682646D01*
X81390450Y-40919431D01*
X81393241Y-40923168D01*
X81393245Y-40923175D01*
X81474887Y-41032506D01*
X81551281Y-41134810D01*
X81554590Y-41138090D01*
X81554595Y-41138096D01*
X81738863Y-41320762D01*
X81742180Y-41324050D01*
X81745942Y-41326808D01*
X81745945Y-41326811D01*
X81913450Y-41449630D01*
X81958954Y-41482995D01*
X81963089Y-41485171D01*
X81963093Y-41485173D01*
X82192698Y-41605975D01*
X82196840Y-41608154D01*
X82450613Y-41696775D01*
X82455206Y-41697647D01*
X82710109Y-41746042D01*
X82710112Y-41746042D01*
X82714698Y-41746913D01*
X82842370Y-41751929D01*
X82978625Y-41757283D01*
X82978630Y-41757283D01*
X82983293Y-41757466D01*
X83087607Y-41746042D01*
X83245844Y-41728713D01*
X83245850Y-41728712D01*
X83250497Y-41728203D01*
X83362302Y-41698767D01*
X83505918Y-41660956D01*
X83505920Y-41660955D01*
X83510441Y-41659765D01*
X83523401Y-41654197D01*
X83753120Y-41555502D01*
X83753122Y-41555501D01*
X83757414Y-41553657D01*
X83876071Y-41480230D01*
X83982017Y-41414669D01*
X83982021Y-41414666D01*
X83985990Y-41412210D01*
X84191149Y-41238530D01*
X84368382Y-41036434D01*
X84513797Y-40810361D01*
X84624199Y-40565278D01*
X84661209Y-40434051D01*
X84695893Y-40311072D01*
X84695894Y-40311069D01*
X84697163Y-40306568D01*
X84715043Y-40166019D01*
X84730688Y-40043045D01*
X84730688Y-40043041D01*
X84731086Y-40039915D01*
X84733571Y-39945000D01*
X84713650Y-39676937D01*
X84710652Y-39663688D01*
X84715126Y-39592833D01*
X84744450Y-39546785D01*
X86065040Y-38226195D01*
X86127352Y-38192169D01*
X86198167Y-38197234D01*
X86255003Y-38239781D01*
X86279814Y-38306301D01*
X86264723Y-38375675D01*
X86254961Y-38390855D01*
X86249385Y-38398295D01*
X86198255Y-38534684D01*
X86191500Y-38596866D01*
X86191500Y-40275076D01*
X86171498Y-40343197D01*
X86154595Y-40364171D01*
X74530621Y-51988145D01*
X74520478Y-51997247D01*
X74490975Y-52020968D01*
X74487008Y-52025696D01*
X74458709Y-52059421D01*
X74455528Y-52063069D01*
X74453885Y-52064881D01*
X74451691Y-52067075D01*
X74424358Y-52100349D01*
X74423696Y-52101147D01*
X74363846Y-52172474D01*
X74361278Y-52177144D01*
X74357897Y-52181261D01*
X74326860Y-52239145D01*
X74314023Y-52263086D01*
X74313394Y-52264245D01*
X74271538Y-52340381D01*
X74271535Y-52340389D01*
X74268567Y-52345787D01*
X74266955Y-52350869D01*
X74264438Y-52355563D01*
X74237238Y-52444531D01*
X74236918Y-52445559D01*
X74208765Y-52534306D01*
X74208171Y-52539602D01*
X74206613Y-52544698D01*
X74205990Y-52550834D01*
X74197218Y-52637187D01*
X74197089Y-52638393D01*
X74191500Y-52688227D01*
X74191500Y-52691754D01*
X74191445Y-52692739D01*
X74190998Y-52698419D01*
X74186626Y-52741462D01*
X74187206Y-52747593D01*
X74190941Y-52787109D01*
X74191500Y-52798967D01*
X74191500Y-53745198D01*
X74171498Y-53813319D01*
X74141065Y-53846024D01*
X74086739Y-53886739D01*
X73999385Y-54003295D01*
X73948255Y-54139684D01*
X73941500Y-54201866D01*
X73941500Y-54780076D01*
X73921498Y-54848197D01*
X73904595Y-54869171D01*
X72482621Y-56291145D01*
X72472477Y-56300247D01*
X72463451Y-56307504D01*
X72397829Y-56334600D01*
X72327974Y-56321916D01*
X72276066Y-56273480D01*
X72258500Y-56209307D01*
X72258500Y-36792277D01*
X73137009Y-36792277D01*
X73162625Y-37060769D01*
X73163710Y-37065203D01*
X73163711Y-37065209D01*
X73225645Y-37318312D01*
X73226731Y-37322750D01*
X73327985Y-37572733D01*
X73464265Y-37805482D01*
X73467118Y-37809049D01*
X73584686Y-37956060D01*
X73632716Y-38016119D01*
X73829809Y-38200234D01*
X74051416Y-38353968D01*
X74055499Y-38355999D01*
X74055502Y-38356001D01*
X74113871Y-38385039D01*
X74292894Y-38474101D01*
X74297228Y-38475522D01*
X74297231Y-38475523D01*
X74544853Y-38556698D01*
X74544859Y-38556699D01*
X74549186Y-38558118D01*
X74553677Y-38558898D01*
X74553678Y-38558898D01*
X74811140Y-38603601D01*
X74811148Y-38603602D01*
X74814921Y-38604257D01*
X74818758Y-38604448D01*
X74898578Y-38608422D01*
X74898586Y-38608422D01*
X74900149Y-38608500D01*
X75068512Y-38608500D01*
X75070780Y-38608335D01*
X75070792Y-38608335D01*
X75201884Y-38598823D01*
X75269004Y-38593953D01*
X75273459Y-38592969D01*
X75273462Y-38592969D01*
X75527912Y-38536791D01*
X75527916Y-38536790D01*
X75532372Y-38535806D01*
X75658480Y-38488028D01*
X75780318Y-38441868D01*
X75780321Y-38441867D01*
X75784588Y-38440250D01*
X76020368Y-38309286D01*
X76234773Y-38145657D01*
X76241202Y-38139081D01*
X76420117Y-37956060D01*
X76423312Y-37952792D01*
X76582034Y-37734730D01*
X76665190Y-37576676D01*
X76705490Y-37500079D01*
X76705493Y-37500073D01*
X76707615Y-37496039D01*
X76770378Y-37318312D01*
X76795902Y-37246033D01*
X76795902Y-37246032D01*
X76797425Y-37241720D01*
X76849581Y-36977100D01*
X76858782Y-36792277D01*
X76862764Y-36712292D01*
X76862764Y-36712286D01*
X76862991Y-36707723D01*
X76837375Y-36439231D01*
X76792042Y-36253967D01*
X76774355Y-36181688D01*
X76773269Y-36177250D01*
X76672015Y-35927267D01*
X76535735Y-35694518D01*
X76417928Y-35547208D01*
X76370136Y-35487447D01*
X76370135Y-35487445D01*
X76367284Y-35483881D01*
X76170191Y-35299766D01*
X75948584Y-35146032D01*
X75944501Y-35144001D01*
X75944498Y-35143999D01*
X75779606Y-35061967D01*
X75707106Y-35025899D01*
X75702772Y-35024478D01*
X75702769Y-35024477D01*
X75455147Y-34943302D01*
X75455141Y-34943301D01*
X75450814Y-34941882D01*
X75446322Y-34941102D01*
X75188860Y-34896399D01*
X75188852Y-34896398D01*
X75185079Y-34895743D01*
X75173817Y-34895182D01*
X75101422Y-34891578D01*
X75101414Y-34891578D01*
X75099851Y-34891500D01*
X74931488Y-34891500D01*
X74929220Y-34891665D01*
X74929208Y-34891665D01*
X74798116Y-34901177D01*
X74730996Y-34906047D01*
X74726541Y-34907031D01*
X74726538Y-34907031D01*
X74472088Y-34963209D01*
X74472084Y-34963210D01*
X74467628Y-34964194D01*
X74341520Y-35011972D01*
X74219682Y-35058132D01*
X74219679Y-35058133D01*
X74215412Y-35059750D01*
X73979632Y-35190714D01*
X73765227Y-35354343D01*
X73576688Y-35547208D01*
X73417966Y-35765270D01*
X73369739Y-35856935D01*
X73294510Y-35999921D01*
X73294507Y-35999927D01*
X73292385Y-36003961D01*
X73290865Y-36008266D01*
X73290863Y-36008270D01*
X73204098Y-36253967D01*
X73202575Y-36258280D01*
X73150419Y-36522900D01*
X73150192Y-36527453D01*
X73150192Y-36527456D01*
X73140991Y-36712292D01*
X73137009Y-36792277D01*
X72258500Y-36792277D01*
X72258500Y-34134500D01*
X72278502Y-34066379D01*
X72332158Y-34019886D01*
X72384500Y-34008500D01*
X111615500Y-34008500D01*
X111683621Y-34028502D01*
G37*
%TD.AperFunction*%
%TD*%
M02*
