%TF.GenerationSoftware,KiCad,Pcbnew,(6.0.6)*%
%TF.CreationDate,2023-01-19T19:18:13-03:00*%
%TF.ProjectId,mod_rele,6d6f645f-7265-46c6-952e-6b696361645f,rev?*%
%TF.SameCoordinates,Original*%
%TF.FileFunction,Copper,L1,Top*%
%TF.FilePolarity,Positive*%
%FSLAX46Y46*%
G04 Gerber Fmt 4.6, Leading zero omitted, Abs format (unit mm)*
G04 Created by KiCad (PCBNEW (6.0.6)) date 2023-01-19 19:18:13*
%MOMM*%
%LPD*%
G01*
G04 APERTURE LIST*
G04 Aperture macros list*
%AMRoundRect*
0 Rectangle with rounded corners*
0 $1 Rounding radius*
0 $2 $3 $4 $5 $6 $7 $8 $9 X,Y pos of 4 corners*
0 Add a 4 corners polygon primitive as box body*
4,1,4,$2,$3,$4,$5,$6,$7,$8,$9,$2,$3,0*
0 Add four circle primitives for the rounded corners*
1,1,$1+$1,$2,$3*
1,1,$1+$1,$4,$5*
1,1,$1+$1,$6,$7*
1,1,$1+$1,$8,$9*
0 Add four rect primitives between the rounded corners*
20,1,$1+$1,$2,$3,$4,$5,0*
20,1,$1+$1,$4,$5,$6,$7,0*
20,1,$1+$1,$6,$7,$8,$9,0*
20,1,$1+$1,$8,$9,$2,$3,0*%
G04 Aperture macros list end*
%TA.AperFunction,ComponentPad*%
%ADD10C,2.600000*%
%TD*%
%TA.AperFunction,ComponentPad*%
%ADD11R,2.600000X2.600000*%
%TD*%
%TA.AperFunction,ComponentPad*%
%ADD12C,1.879600*%
%TD*%
%TA.AperFunction,ComponentPad*%
%ADD13C,1.500000*%
%TD*%
%TA.AperFunction,ComponentPad*%
%ADD14R,1.500000X1.500000*%
%TD*%
%TA.AperFunction,ComponentPad*%
%ADD15C,1.600000*%
%TD*%
%TA.AperFunction,ComponentPad*%
%ADD16R,1.600000X1.600000*%
%TD*%
%TA.AperFunction,SMDPad,CuDef*%
%ADD17RoundRect,0.250000X0.337500X0.475000X-0.337500X0.475000X-0.337500X-0.475000X0.337500X-0.475000X0*%
%TD*%
%TA.AperFunction,SMDPad,CuDef*%
%ADD18RoundRect,0.250000X-0.350000X-0.450000X0.350000X-0.450000X0.350000X0.450000X-0.350000X0.450000X0*%
%TD*%
%TA.AperFunction,SMDPad,CuDef*%
%ADD19R,0.800000X1.900000*%
%TD*%
%TA.AperFunction,SMDPad,CuDef*%
%ADD20R,2.000000X1.500000*%
%TD*%
%TA.AperFunction,SMDPad,CuDef*%
%ADD21R,2.000000X3.800000*%
%TD*%
%TA.AperFunction,ComponentPad*%
%ADD22C,2.500000*%
%TD*%
%TA.AperFunction,ComponentPad*%
%ADD23C,3.000000*%
%TD*%
%TA.AperFunction,SMDPad,CuDef*%
%ADD24RoundRect,0.250000X-0.450000X0.350000X-0.450000X-0.350000X0.450000X-0.350000X0.450000X0.350000X0*%
%TD*%
%TA.AperFunction,SMDPad,CuDef*%
%ADD25RoundRect,0.250000X0.350000X0.450000X-0.350000X0.450000X-0.350000X-0.450000X0.350000X-0.450000X0*%
%TD*%
%TA.AperFunction,SMDPad,CuDef*%
%ADD26R,1.800000X3.500000*%
%TD*%
%TA.AperFunction,SMDPad,CuDef*%
%ADD27RoundRect,0.250000X-0.475000X0.337500X-0.475000X-0.337500X0.475000X-0.337500X0.475000X0.337500X0*%
%TD*%
%TA.AperFunction,ViaPad*%
%ADD28C,0.800000*%
%TD*%
%TA.AperFunction,Conductor*%
%ADD29C,0.500000*%
%TD*%
G04 APERTURE END LIST*
D10*
%TO.P,J1,2,Pin_2*%
%TO.N,Earth*%
X82920000Y-39945000D03*
D11*
%TO.P,J1,1,Pin_1*%
%TO.N,AC*%
X88000000Y-39945000D03*
%TD*%
D12*
%TO.P,U2,8,RXD*%
%TO.N,unconnected-(U2-Pad8)*%
X99690000Y-74501350D03*
%TO.P,U2,7,VCC*%
%TO.N,+3.3V*%
X99690000Y-71961350D03*
%TO.P,U2,6,GPIO0*%
%TO.N,Net-(R2-Pad2)*%
X102230000Y-74501350D03*
%TO.P,U2,5,RST*%
%TO.N,Net-(R1-Pad1)*%
X102230000Y-71961350D03*
%TO.P,U2,4,GPIO2*%
%TO.N,Rele_out*%
X104770000Y-74501350D03*
%TO.P,U2,3,PD*%
%TO.N,unconnected-(U2-Pad3)*%
X104770000Y-71961350D03*
%TO.P,U2,2,GND*%
%TO.N,GND*%
X107310000Y-74501350D03*
%TO.P,U2,1,TXD*%
%TO.N,unconnected-(U2-Pad1)*%
X107310000Y-71961350D03*
%TD*%
D13*
%TO.P,PS1,4,+VO*%
%TO.N,+5V*%
X108800000Y-67000000D03*
%TO.P,PS1,3,-VO*%
%TO.N,GND*%
X108800000Y-49000000D03*
%TO.P,PS1,2,AC2*%
%TO.N,Earth*%
X75200000Y-61000000D03*
D14*
%TO.P,PS1,1,AC1*%
%TO.N,AC*%
X75200000Y-55000000D03*
%TD*%
D15*
%TO.P,C3,2*%
%TO.N,GND*%
X91000000Y-95567621D03*
D16*
%TO.P,C3,1*%
%TO.N,+5V*%
X91000000Y-93067621D03*
%TD*%
D17*
%TO.P,C2,2*%
%TO.N,GND*%
X90402500Y-71374000D03*
%TO.P,C2,1*%
%TO.N,+3.3V*%
X92477500Y-71374000D03*
%TD*%
D18*
%TO.P,R2,2*%
%TO.N,Net-(R2-Pad2)*%
X97536000Y-77216000D03*
%TO.P,R2,1*%
%TO.N,+3.3V*%
X95536000Y-77216000D03*
%TD*%
D19*
%TO.P,Q1,3,D*%
%TO.N,Net-(D1-Pad2)*%
X91500000Y-79732000D03*
%TO.P,Q1,2,S*%
%TO.N,GND*%
X90550000Y-76732000D03*
%TO.P,Q1,1,G*%
%TO.N,Rele_out*%
X92450000Y-76732000D03*
%TD*%
D20*
%TO.P,U1,3,VI*%
%TO.N,+5V*%
X105400000Y-83200000D03*
D21*
%TO.P,U1,2,VO*%
%TO.N,+3.3V*%
X99100000Y-85500000D03*
D20*
X105400000Y-85500000D03*
%TO.P,U1,1,GND*%
%TO.N,GND*%
X105400000Y-87800000D03*
%TD*%
D10*
%TO.P,J2,2,Pin_2*%
%TO.N,Net-(J2-Pad2)*%
X95965000Y-39945000D03*
D11*
%TO.P,J2,1,Pin_1*%
%TO.N,Earth*%
X101045000Y-39945000D03*
%TD*%
D22*
%TO.P,K1,5*%
%TO.N,+5V*%
X74800000Y-87050000D03*
D23*
%TO.P,K1,4*%
%TO.N,unconnected-(K1-Pad4)*%
X74750000Y-74800000D03*
%TO.P,K1,3*%
%TO.N,Net-(J2-Pad2)*%
X86800000Y-74850000D03*
D22*
%TO.P,K1,2*%
%TO.N,Net-(D1-Pad2)*%
X86800000Y-87050000D03*
D23*
%TO.P,K1,1*%
%TO.N,AC*%
X80750000Y-89000000D03*
%TD*%
D24*
%TO.P,R1,2*%
%TO.N,+3.3V*%
X96000000Y-73250000D03*
%TO.P,R1,1*%
%TO.N,Net-(R1-Pad1)*%
X96000000Y-71250000D03*
%TD*%
D25*
%TO.P,R3,2*%
%TO.N,GND*%
X90440000Y-73914000D03*
%TO.P,R3,1*%
%TO.N,Rele_out*%
X92440000Y-73914000D03*
%TD*%
D26*
%TO.P,D1,2,A*%
%TO.N,Net-(D1-Pad2)*%
X91500000Y-83352000D03*
%TO.P,D1,1,K*%
%TO.N,+5V*%
X91500000Y-88352000D03*
%TD*%
D27*
%TO.P,C1,2*%
%TO.N,GND*%
X108250000Y-86537500D03*
%TO.P,C1,1*%
%TO.N,+5V*%
X108250000Y-84462500D03*
%TD*%
D28*
%TO.N,+3.3V*%
X96250000Y-84250000D03*
X103000000Y-90750000D03*
%TO.N,GND*%
X109500000Y-82250000D03*
X105500000Y-68750000D03*
X91500000Y-68750000D03*
X81500000Y-95500000D03*
X102250000Y-94000000D03*
X106250000Y-77750000D03*
X103500000Y-58000000D03*
X96750000Y-82000000D03*
%TD*%
D29*
%TO.N,+3.3V*%
X97250000Y-85250000D02*
X98850000Y-85250000D01*
X96250000Y-84250000D02*
X97250000Y-85250000D01*
X98850000Y-85250000D02*
X99100000Y-85500000D01*
X103000000Y-87650000D02*
X103000000Y-90750000D01*
X105150000Y-85500000D02*
X103000000Y-87650000D01*
X105400000Y-85500000D02*
X105150000Y-85500000D01*
%TO.N,+5V*%
X93178000Y-88352000D02*
X91500000Y-88352000D01*
X94996000Y-90170000D02*
X93178000Y-88352000D01*
X99830000Y-90170000D02*
X94996000Y-90170000D01*
X102000000Y-86350000D02*
X102000000Y-88000000D01*
X105150000Y-83200000D02*
X102000000Y-86350000D01*
X102000000Y-88000000D02*
X99830000Y-90170000D01*
X105400000Y-83200000D02*
X105150000Y-83200000D01*
%TO.N,Rele_out*%
X94488000Y-78770000D02*
X92450000Y-76732000D01*
X94488000Y-85344000D02*
X94488000Y-78770000D01*
X97536000Y-88392000D02*
X94488000Y-85344000D01*
X100108000Y-88392000D02*
X97536000Y-88392000D01*
X101000000Y-78271350D02*
X101000000Y-87500000D01*
X101000000Y-87500000D02*
X100108000Y-88392000D01*
X104770000Y-74501350D02*
X101000000Y-78271350D01*
%TO.N,+5V*%
X107500000Y-80500000D02*
X106000000Y-80500000D01*
X106000000Y-80500000D02*
X105400000Y-81100000D01*
X109250000Y-78750000D02*
X107500000Y-80500000D01*
X105400000Y-81100000D02*
X105400000Y-83200000D01*
X108800000Y-69550000D02*
X109250000Y-70000000D01*
X108800000Y-67000000D02*
X108800000Y-69550000D01*
X109250000Y-70000000D02*
X109250000Y-78750000D01*
%TO.N,Net-(D1-Pad2)*%
X90498000Y-83352000D02*
X91500000Y-83352000D01*
X86800000Y-87050000D02*
X90498000Y-83352000D01*
%TO.N,+5V*%
X91000000Y-91250000D02*
X91000000Y-93067621D01*
X91500000Y-90750000D02*
X91000000Y-91250000D01*
X91500000Y-88352000D02*
X91500000Y-90750000D01*
X80817621Y-93067621D02*
X91000000Y-93067621D01*
X74800000Y-87050000D02*
X80817621Y-93067621D01*
%TO.N,Net-(R1-Pad1)*%
X101750000Y-70000000D02*
X97250000Y-70000000D01*
X102230000Y-70480000D02*
X101750000Y-70000000D01*
X97250000Y-70000000D02*
X96000000Y-71250000D01*
X102230000Y-71961350D02*
X102230000Y-70480000D01*
%TO.N,+5V*%
X105050000Y-83200000D02*
X105400000Y-83200000D01*
X106987500Y-83200000D02*
X105400000Y-83200000D01*
X108250000Y-84462500D02*
X106987500Y-83200000D01*
X91500000Y-88288000D02*
X91500000Y-87336000D01*
%TO.N,GND*%
X107250000Y-74561350D02*
X107310000Y-74501350D01*
%TO.N,+3.3V*%
X96000000Y-73250000D02*
X98401350Y-73250000D01*
X96012000Y-75184000D02*
X96012000Y-73262000D01*
X99100000Y-80780000D02*
X99100000Y-85500000D01*
X96012000Y-73262000D02*
X96000000Y-73250000D01*
X98401350Y-73250000D02*
X99690000Y-71961350D01*
X95536000Y-75660000D02*
X96012000Y-75184000D01*
X95536000Y-77216000D02*
X99100000Y-80780000D01*
X95536000Y-77216000D02*
X95536000Y-75660000D01*
X93218000Y-71374000D02*
X95094000Y-73250000D01*
X92477500Y-71374000D02*
X93218000Y-71374000D01*
X95094000Y-73250000D02*
X96000000Y-73250000D01*
%TO.N,Net-(D1-Pad2)*%
X91500000Y-79732000D02*
X91500000Y-83352000D01*
X91500000Y-82336000D02*
X91500000Y-82350000D01*
%TO.N,Rele_out*%
X92450000Y-73924000D02*
X92440000Y-73914000D01*
X105250000Y-74981350D02*
X104770000Y-74501350D01*
X92450000Y-76732000D02*
X92450000Y-73924000D01*
%TO.N,Net-(R2-Pad2)*%
X99515350Y-77216000D02*
X102230000Y-74501350D01*
X97536000Y-77216000D02*
X99515350Y-77216000D01*
%TD*%
%TA.AperFunction,Conductor*%
%TO.N,GND*%
G36*
X111683621Y-34028502D02*
G01*
X111730114Y-34082158D01*
X111741500Y-34134500D01*
X111741500Y-97865500D01*
X111721498Y-97933621D01*
X111667842Y-97980114D01*
X111615500Y-97991500D01*
X72384500Y-97991500D01*
X72316379Y-97971498D01*
X72269886Y-97917842D01*
X72258500Y-97865500D01*
X72258500Y-95292277D01*
X73137009Y-95292277D01*
X73162625Y-95560769D01*
X73163710Y-95565203D01*
X73163711Y-95565209D01*
X73218751Y-95790140D01*
X73226731Y-95822750D01*
X73327985Y-96072733D01*
X73464265Y-96305482D01*
X73467118Y-96309049D01*
X73584686Y-96456060D01*
X73632716Y-96516119D01*
X73829809Y-96700234D01*
X74051416Y-96853968D01*
X74055499Y-96855999D01*
X74055502Y-96856001D01*
X74062025Y-96859246D01*
X74292894Y-96974101D01*
X74297228Y-96975522D01*
X74297231Y-96975523D01*
X74544853Y-97056698D01*
X74544859Y-97056699D01*
X74549186Y-97058118D01*
X74553677Y-97058898D01*
X74553678Y-97058898D01*
X74811140Y-97103601D01*
X74811148Y-97103602D01*
X74814921Y-97104257D01*
X74818758Y-97104448D01*
X74898578Y-97108422D01*
X74898586Y-97108422D01*
X74900149Y-97108500D01*
X75068512Y-97108500D01*
X75070780Y-97108335D01*
X75070792Y-97108335D01*
X75201884Y-97098823D01*
X75269004Y-97093953D01*
X75273459Y-97092969D01*
X75273462Y-97092969D01*
X75527912Y-97036791D01*
X75527916Y-97036790D01*
X75532372Y-97035806D01*
X75658480Y-96988028D01*
X75780318Y-96941868D01*
X75780321Y-96941867D01*
X75784588Y-96940250D01*
X76020368Y-96809286D01*
X76223012Y-96654633D01*
X76224257Y-96653683D01*
X90278493Y-96653683D01*
X90287789Y-96665698D01*
X90338994Y-96701552D01*
X90348489Y-96707035D01*
X90545947Y-96799111D01*
X90556239Y-96802857D01*
X90766688Y-96859246D01*
X90777481Y-96861149D01*
X90994525Y-96880138D01*
X91005475Y-96880138D01*
X91222519Y-96861149D01*
X91233312Y-96859246D01*
X91443761Y-96802857D01*
X91454053Y-96799111D01*
X91651511Y-96707035D01*
X91661006Y-96701552D01*
X91713048Y-96665112D01*
X91721424Y-96654633D01*
X91714356Y-96641187D01*
X91012812Y-95939643D01*
X90998868Y-95932029D01*
X90997035Y-95932160D01*
X90990420Y-95936411D01*
X90284923Y-96641908D01*
X90278493Y-96653683D01*
X76224257Y-96653683D01*
X76231141Y-96648429D01*
X76231142Y-96648428D01*
X76234773Y-96645657D01*
X76423312Y-96452792D01*
X76582034Y-96234730D01*
X76665190Y-96076676D01*
X76705490Y-96000079D01*
X76705493Y-96000073D01*
X76707615Y-95996039D01*
X76730220Y-95932029D01*
X76795902Y-95746033D01*
X76795902Y-95746032D01*
X76797425Y-95741720D01*
X76829851Y-95577201D01*
X76830660Y-95573096D01*
X89687483Y-95573096D01*
X89706472Y-95790140D01*
X89708375Y-95800933D01*
X89764764Y-96011382D01*
X89768510Y-96021674D01*
X89860586Y-96219132D01*
X89866069Y-96228627D01*
X89902509Y-96280669D01*
X89912988Y-96289045D01*
X89926434Y-96281977D01*
X90627978Y-95580433D01*
X90634356Y-95568753D01*
X91364408Y-95568753D01*
X91364539Y-95570586D01*
X91368790Y-95577201D01*
X92074287Y-96282698D01*
X92086062Y-96289128D01*
X92098077Y-96279832D01*
X92133931Y-96228627D01*
X92139414Y-96219132D01*
X92231490Y-96021674D01*
X92235236Y-96011382D01*
X92291625Y-95800933D01*
X92293528Y-95790140D01*
X92312517Y-95573096D01*
X92312517Y-95562146D01*
X92293528Y-95345102D01*
X92291625Y-95334309D01*
X92280363Y-95292277D01*
X107137009Y-95292277D01*
X107162625Y-95560769D01*
X107163710Y-95565203D01*
X107163711Y-95565209D01*
X107218751Y-95790140D01*
X107226731Y-95822750D01*
X107327985Y-96072733D01*
X107464265Y-96305482D01*
X107467118Y-96309049D01*
X107584686Y-96456060D01*
X107632716Y-96516119D01*
X107829809Y-96700234D01*
X108051416Y-96853968D01*
X108055499Y-96855999D01*
X108055502Y-96856001D01*
X108062025Y-96859246D01*
X108292894Y-96974101D01*
X108297228Y-96975522D01*
X108297231Y-96975523D01*
X108544853Y-97056698D01*
X108544859Y-97056699D01*
X108549186Y-97058118D01*
X108553677Y-97058898D01*
X108553678Y-97058898D01*
X108811140Y-97103601D01*
X108811148Y-97103602D01*
X108814921Y-97104257D01*
X108818758Y-97104448D01*
X108898578Y-97108422D01*
X108898586Y-97108422D01*
X108900149Y-97108500D01*
X109068512Y-97108500D01*
X109070780Y-97108335D01*
X109070792Y-97108335D01*
X109201884Y-97098823D01*
X109269004Y-97093953D01*
X109273459Y-97092969D01*
X109273462Y-97092969D01*
X109527912Y-97036791D01*
X109527916Y-97036790D01*
X109532372Y-97035806D01*
X109658480Y-96988028D01*
X109780318Y-96941868D01*
X109780321Y-96941867D01*
X109784588Y-96940250D01*
X110020368Y-96809286D01*
X110223012Y-96654633D01*
X110231141Y-96648429D01*
X110231142Y-96648428D01*
X110234773Y-96645657D01*
X110423312Y-96452792D01*
X110582034Y-96234730D01*
X110665190Y-96076676D01*
X110705490Y-96000079D01*
X110705493Y-96000073D01*
X110707615Y-95996039D01*
X110730220Y-95932029D01*
X110795902Y-95746033D01*
X110795902Y-95746032D01*
X110797425Y-95741720D01*
X110829851Y-95577201D01*
X110848700Y-95481572D01*
X110848701Y-95481566D01*
X110849581Y-95477100D01*
X110856152Y-95345102D01*
X110862764Y-95212292D01*
X110862764Y-95212286D01*
X110862991Y-95207723D01*
X110837375Y-94939231D01*
X110831718Y-94916110D01*
X110774355Y-94681688D01*
X110773269Y-94677250D01*
X110672015Y-94427267D01*
X110535735Y-94194518D01*
X110417928Y-94047208D01*
X110370136Y-93987447D01*
X110370135Y-93987445D01*
X110367284Y-93983881D01*
X110170191Y-93799766D01*
X109948584Y-93646032D01*
X109944501Y-93644001D01*
X109944498Y-93643999D01*
X109779606Y-93561967D01*
X109707106Y-93525899D01*
X109702772Y-93524478D01*
X109702769Y-93524477D01*
X109455147Y-93443302D01*
X109455141Y-93443301D01*
X109450814Y-93441882D01*
X109446322Y-93441102D01*
X109188860Y-93396399D01*
X109188852Y-93396398D01*
X109185079Y-93395743D01*
X109173817Y-93395182D01*
X109101422Y-93391578D01*
X109101414Y-93391578D01*
X109099851Y-93391500D01*
X108931488Y-93391500D01*
X108929220Y-93391665D01*
X108929208Y-93391665D01*
X108798116Y-93401177D01*
X108730996Y-93406047D01*
X108726541Y-93407031D01*
X108726538Y-93407031D01*
X108472088Y-93463209D01*
X108472084Y-93463210D01*
X108467628Y-93464194D01*
X108341520Y-93511972D01*
X108219682Y-93558132D01*
X108219679Y-93558133D01*
X108215412Y-93559750D01*
X107979632Y-93690714D01*
X107976000Y-93693486D01*
X107799403Y-93828261D01*
X107765227Y-93854343D01*
X107576688Y-94047208D01*
X107417966Y-94265270D01*
X107388441Y-94321388D01*
X107294510Y-94499921D01*
X107294507Y-94499927D01*
X107292385Y-94503961D01*
X107290865Y-94508266D01*
X107290863Y-94508270D01*
X107204098Y-94753967D01*
X107202575Y-94758280D01*
X107201692Y-94762762D01*
X107173339Y-94906615D01*
X107150419Y-95022900D01*
X107150192Y-95027453D01*
X107150192Y-95027456D01*
X107140991Y-95212292D01*
X107137009Y-95292277D01*
X92280363Y-95292277D01*
X92235236Y-95123860D01*
X92231490Y-95113568D01*
X92139414Y-94916110D01*
X92133931Y-94906615D01*
X92097491Y-94854573D01*
X92087012Y-94846197D01*
X92073566Y-94853265D01*
X91372022Y-95554809D01*
X91364408Y-95568753D01*
X90634356Y-95568753D01*
X90635592Y-95566489D01*
X90635461Y-95564656D01*
X90631210Y-95558041D01*
X89925713Y-94852544D01*
X89913938Y-94846114D01*
X89901923Y-94855410D01*
X89866069Y-94906615D01*
X89860586Y-94916110D01*
X89768510Y-95113568D01*
X89764764Y-95123860D01*
X89708375Y-95334309D01*
X89706472Y-95345102D01*
X89687483Y-95562146D01*
X89687483Y-95573096D01*
X76830660Y-95573096D01*
X76848700Y-95481572D01*
X76848701Y-95481566D01*
X76849581Y-95477100D01*
X76856152Y-95345102D01*
X76862764Y-95212292D01*
X76862764Y-95212286D01*
X76862991Y-95207723D01*
X76837375Y-94939231D01*
X76831718Y-94916110D01*
X76774355Y-94681688D01*
X76773269Y-94677250D01*
X76672015Y-94427267D01*
X76535735Y-94194518D01*
X76417928Y-94047208D01*
X76370136Y-93987447D01*
X76370135Y-93987445D01*
X76367284Y-93983881D01*
X76170191Y-93799766D01*
X75948584Y-93646032D01*
X75944501Y-93644001D01*
X75944498Y-93643999D01*
X75779606Y-93561967D01*
X75707106Y-93525899D01*
X75702772Y-93524478D01*
X75702769Y-93524477D01*
X75455147Y-93443302D01*
X75455141Y-93443301D01*
X75450814Y-93441882D01*
X75446322Y-93441102D01*
X75188860Y-93396399D01*
X75188852Y-93396398D01*
X75185079Y-93395743D01*
X75173817Y-93395182D01*
X75101422Y-93391578D01*
X75101414Y-93391578D01*
X75099851Y-93391500D01*
X74931488Y-93391500D01*
X74929220Y-93391665D01*
X74929208Y-93391665D01*
X74798116Y-93401177D01*
X74730996Y-93406047D01*
X74726541Y-93407031D01*
X74726538Y-93407031D01*
X74472088Y-93463209D01*
X74472084Y-93463210D01*
X74467628Y-93464194D01*
X74341520Y-93511972D01*
X74219682Y-93558132D01*
X74219679Y-93558133D01*
X74215412Y-93559750D01*
X73979632Y-93690714D01*
X73976000Y-93693486D01*
X73799403Y-93828261D01*
X73765227Y-93854343D01*
X73576688Y-94047208D01*
X73417966Y-94265270D01*
X73388441Y-94321388D01*
X73294510Y-94499921D01*
X73294507Y-94499927D01*
X73292385Y-94503961D01*
X73290865Y-94508266D01*
X73290863Y-94508270D01*
X73204098Y-94753967D01*
X73202575Y-94758280D01*
X73201692Y-94762762D01*
X73173339Y-94906615D01*
X73150419Y-95022900D01*
X73150192Y-95027453D01*
X73150192Y-95027456D01*
X73140991Y-95212292D01*
X73137009Y-95292277D01*
X72258500Y-95292277D01*
X72258500Y-87003839D01*
X73037173Y-87003839D01*
X73037397Y-87008505D01*
X73037397Y-87008511D01*
X73043443Y-87134373D01*
X73049713Y-87264908D01*
X73100704Y-87521256D01*
X73189026Y-87767252D01*
X73191242Y-87771376D01*
X73279513Y-87935657D01*
X73312737Y-87997491D01*
X73315532Y-88001234D01*
X73315534Y-88001237D01*
X73466330Y-88203177D01*
X73466335Y-88203183D01*
X73469122Y-88206915D01*
X73472431Y-88210195D01*
X73472436Y-88210201D01*
X73651426Y-88387635D01*
X73654743Y-88390923D01*
X73658505Y-88393681D01*
X73658508Y-88393684D01*
X73861750Y-88542707D01*
X73865524Y-88545474D01*
X73869667Y-88547654D01*
X73869669Y-88547655D01*
X74092684Y-88664989D01*
X74092689Y-88664991D01*
X74096834Y-88667172D01*
X74343590Y-88753344D01*
X74348183Y-88754216D01*
X74595785Y-88801224D01*
X74595788Y-88801224D01*
X74600374Y-88802095D01*
X74730959Y-88807226D01*
X74856875Y-88812174D01*
X74856881Y-88812174D01*
X74861543Y-88812357D01*
X74941054Y-88803649D01*
X75116707Y-88784412D01*
X75116712Y-88784411D01*
X75121360Y-88783902D01*
X75320398Y-88731500D01*
X75391366Y-88733499D01*
X75441572Y-88764253D01*
X80233851Y-93556532D01*
X80246237Y-93570944D01*
X80254770Y-93582539D01*
X80254775Y-93582544D01*
X80259113Y-93588439D01*
X80264691Y-93593178D01*
X80264694Y-93593181D01*
X80299389Y-93622656D01*
X80306905Y-93629586D01*
X80312600Y-93635281D01*
X80315482Y-93637561D01*
X80334872Y-93652902D01*
X80338276Y-93655693D01*
X80388324Y-93698212D01*
X80393906Y-93702954D01*
X80400422Y-93706282D01*
X80405471Y-93709649D01*
X80410600Y-93712816D01*
X80416337Y-93717355D01*
X80482496Y-93748276D01*
X80486390Y-93750179D01*
X80551429Y-93783390D01*
X80558537Y-93785129D01*
X80564180Y-93787228D01*
X80569943Y-93789145D01*
X80576571Y-93792243D01*
X80583733Y-93793733D01*
X80583734Y-93793733D01*
X80648033Y-93807107D01*
X80652317Y-93808077D01*
X80723231Y-93825429D01*
X80728833Y-93825777D01*
X80728836Y-93825777D01*
X80734385Y-93826121D01*
X80734383Y-93826157D01*
X80738376Y-93826396D01*
X80742568Y-93826770D01*
X80749736Y-93828261D01*
X80827141Y-93826167D01*
X80830549Y-93826121D01*
X89568709Y-93826121D01*
X89636830Y-93846123D01*
X89683323Y-93899779D01*
X89693972Y-93938513D01*
X89698255Y-93977937D01*
X89749385Y-94114326D01*
X89836739Y-94230882D01*
X89953295Y-94318236D01*
X90089684Y-94369366D01*
X90133252Y-94374099D01*
X90148486Y-94375754D01*
X90148489Y-94375754D01*
X90151866Y-94376121D01*
X90155185Y-94376121D01*
X90222110Y-94399774D01*
X90257804Y-94445777D01*
X90259734Y-94444762D01*
X90265442Y-94455621D01*
X90265632Y-94455866D01*
X90265653Y-94456024D01*
X90285644Y-94494055D01*
X90987188Y-95195599D01*
X91001132Y-95203213D01*
X91002965Y-95203082D01*
X91009580Y-95198831D01*
X91715077Y-94493334D01*
X91737871Y-94451592D01*
X91740047Y-94441592D01*
X91790253Y-94391394D01*
X91843814Y-94376170D01*
X91844719Y-94376121D01*
X91848134Y-94376121D01*
X91851530Y-94375752D01*
X91851532Y-94375752D01*
X91863879Y-94374411D01*
X91910316Y-94369366D01*
X92046705Y-94318236D01*
X92163261Y-94230882D01*
X92250615Y-94114326D01*
X92301745Y-93977937D01*
X92308500Y-93915755D01*
X92308500Y-92219487D01*
X92301745Y-92157305D01*
X92250615Y-92020916D01*
X92163261Y-91904360D01*
X92046705Y-91817006D01*
X91910316Y-91765876D01*
X91883086Y-91762918D01*
X91870892Y-91761593D01*
X91805330Y-91734351D01*
X91764904Y-91675987D01*
X91758500Y-91636330D01*
X91758500Y-91616371D01*
X91778502Y-91548250D01*
X91795405Y-91527276D01*
X91988911Y-91333770D01*
X92003323Y-91321384D01*
X92014918Y-91312851D01*
X92014923Y-91312846D01*
X92020818Y-91308508D01*
X92025557Y-91302930D01*
X92025560Y-91302927D01*
X92055035Y-91268232D01*
X92061965Y-91260716D01*
X92067661Y-91255020D01*
X92069924Y-91252159D01*
X92069929Y-91252154D01*
X92085293Y-91232734D01*
X92088082Y-91229333D01*
X92121980Y-91189432D01*
X92135333Y-91173715D01*
X92138659Y-91167202D01*
X92142020Y-91162163D01*
X92145196Y-91157021D01*
X92149734Y-91151284D01*
X92180655Y-91085125D01*
X92182561Y-91081225D01*
X92182976Y-91080412D01*
X92215769Y-91016192D01*
X92217508Y-91009083D01*
X92219604Y-91003449D01*
X92221523Y-90997679D01*
X92224622Y-90991050D01*
X92226129Y-90983808D01*
X92239490Y-90919571D01*
X92240461Y-90915282D01*
X92257808Y-90844390D01*
X92258192Y-90838211D01*
X92258500Y-90833236D01*
X92258535Y-90833238D01*
X92258775Y-90829266D01*
X92259152Y-90825045D01*
X92260641Y-90817885D01*
X92258546Y-90740458D01*
X92258500Y-90737050D01*
X92258500Y-90736500D01*
X92278502Y-90668379D01*
X92332158Y-90621886D01*
X92384500Y-90610500D01*
X92448134Y-90610500D01*
X92510316Y-90603745D01*
X92646705Y-90552615D01*
X92763261Y-90465261D01*
X92850615Y-90348705D01*
X92901745Y-90212316D01*
X92908500Y-90150134D01*
X92908500Y-89459371D01*
X92928502Y-89391250D01*
X92982158Y-89344757D01*
X93052432Y-89334653D01*
X93117012Y-89364147D01*
X93123595Y-89370276D01*
X94412230Y-90658911D01*
X94424616Y-90673323D01*
X94433149Y-90684918D01*
X94433154Y-90684923D01*
X94437492Y-90690818D01*
X94443070Y-90695557D01*
X94443073Y-90695560D01*
X94477768Y-90725035D01*
X94485284Y-90731965D01*
X94490979Y-90737660D01*
X94493861Y-90739940D01*
X94513251Y-90755281D01*
X94516655Y-90758072D01*
X94566703Y-90800591D01*
X94572285Y-90805333D01*
X94578801Y-90808661D01*
X94583850Y-90812028D01*
X94588979Y-90815195D01*
X94594716Y-90819734D01*
X94660875Y-90850655D01*
X94664769Y-90852558D01*
X94729808Y-90885769D01*
X94736916Y-90887508D01*
X94742559Y-90889607D01*
X94748322Y-90891524D01*
X94754950Y-90894622D01*
X94819465Y-90908041D01*
X94826412Y-90909486D01*
X94830696Y-90910456D01*
X94901610Y-90927808D01*
X94907212Y-90928156D01*
X94907215Y-90928156D01*
X94912764Y-90928500D01*
X94912762Y-90928536D01*
X94916755Y-90928775D01*
X94920947Y-90929149D01*
X94928115Y-90930640D01*
X95005520Y-90928546D01*
X95008928Y-90928500D01*
X99762930Y-90928500D01*
X99781880Y-90929933D01*
X99796115Y-90932099D01*
X99796119Y-90932099D01*
X99803349Y-90933199D01*
X99810641Y-90932606D01*
X99810644Y-90932606D01*
X99856018Y-90928915D01*
X99866233Y-90928500D01*
X99874293Y-90928500D01*
X99891680Y-90926473D01*
X99902507Y-90925211D01*
X99906882Y-90924778D01*
X99972339Y-90919454D01*
X99972342Y-90919453D01*
X99979637Y-90918860D01*
X99986601Y-90916604D01*
X99992560Y-90915413D01*
X99998415Y-90914029D01*
X100005681Y-90913182D01*
X100074327Y-90888265D01*
X100078455Y-90886848D01*
X100140936Y-90866607D01*
X100140938Y-90866606D01*
X100147899Y-90864351D01*
X100154154Y-90860555D01*
X100159628Y-90858049D01*
X100165058Y-90855330D01*
X100171937Y-90852833D01*
X100178058Y-90848820D01*
X100232976Y-90812814D01*
X100236680Y-90810477D01*
X100299107Y-90772595D01*
X100305161Y-90767249D01*
X100307484Y-90765197D01*
X100307508Y-90765224D01*
X100310500Y-90762571D01*
X100313733Y-90759868D01*
X100319852Y-90755856D01*
X100373128Y-90699617D01*
X100375506Y-90697175D01*
X102026405Y-89046276D01*
X102088717Y-89012250D01*
X102159532Y-89017315D01*
X102216368Y-89059862D01*
X102241179Y-89126382D01*
X102241500Y-89135371D01*
X102241500Y-90213001D01*
X102224619Y-90276000D01*
X102165473Y-90378444D01*
X102106458Y-90560072D01*
X102105768Y-90566633D01*
X102105768Y-90566635D01*
X102101158Y-90610500D01*
X102086496Y-90750000D01*
X102087186Y-90756565D01*
X102105301Y-90928915D01*
X102106458Y-90939928D01*
X102165473Y-91121556D01*
X102168776Y-91127278D01*
X102168777Y-91127279D01*
X102191573Y-91166762D01*
X102260960Y-91286944D01*
X102388747Y-91428866D01*
X102543248Y-91541118D01*
X102549276Y-91543802D01*
X102549278Y-91543803D01*
X102711681Y-91616109D01*
X102717712Y-91618794D01*
X102800212Y-91636330D01*
X102898056Y-91657128D01*
X102898061Y-91657128D01*
X102904513Y-91658500D01*
X103095487Y-91658500D01*
X103101939Y-91657128D01*
X103101944Y-91657128D01*
X103199788Y-91636330D01*
X103282288Y-91618794D01*
X103288319Y-91616109D01*
X103450722Y-91543803D01*
X103450724Y-91543802D01*
X103456752Y-91541118D01*
X103611253Y-91428866D01*
X103739040Y-91286944D01*
X103808427Y-91166762D01*
X103831223Y-91127279D01*
X103831224Y-91127278D01*
X103834527Y-91121556D01*
X103893542Y-90939928D01*
X103894700Y-90928915D01*
X103912814Y-90756565D01*
X103913504Y-90750000D01*
X103898842Y-90610500D01*
X103894232Y-90566635D01*
X103894232Y-90566633D01*
X103893542Y-90560072D01*
X103834527Y-90378444D01*
X103775381Y-90276000D01*
X103758500Y-90213001D01*
X103758500Y-88919392D01*
X103778502Y-88851271D01*
X103832158Y-88804778D01*
X103902432Y-88794674D01*
X103967012Y-88824168D01*
X103985326Y-88843827D01*
X104031715Y-88905724D01*
X104044276Y-88918285D01*
X104146351Y-88994786D01*
X104161946Y-89003324D01*
X104282394Y-89048478D01*
X104297649Y-89052105D01*
X104348514Y-89057631D01*
X104355328Y-89058000D01*
X105127885Y-89058000D01*
X105143124Y-89053525D01*
X105144329Y-89052135D01*
X105146000Y-89044452D01*
X105146000Y-89039884D01*
X105654000Y-89039884D01*
X105658475Y-89055123D01*
X105659865Y-89056328D01*
X105667548Y-89057999D01*
X106444669Y-89057999D01*
X106451490Y-89057629D01*
X106502352Y-89052105D01*
X106517604Y-89048479D01*
X106638054Y-89003324D01*
X106653649Y-88994786D01*
X106755724Y-88918285D01*
X106768285Y-88905724D01*
X106844786Y-88803649D01*
X106853324Y-88788054D01*
X106898478Y-88667606D01*
X106902105Y-88652351D01*
X106907631Y-88601486D01*
X106908000Y-88594672D01*
X106908000Y-88072115D01*
X106903525Y-88056876D01*
X106902135Y-88055671D01*
X106894452Y-88054000D01*
X105672115Y-88054000D01*
X105656876Y-88058475D01*
X105655671Y-88059865D01*
X105654000Y-88067548D01*
X105654000Y-89039884D01*
X105146000Y-89039884D01*
X105146000Y-87672000D01*
X105166002Y-87603879D01*
X105219658Y-87557386D01*
X105272000Y-87546000D01*
X106889884Y-87546000D01*
X106905123Y-87541525D01*
X106906328Y-87540135D01*
X106907999Y-87532452D01*
X106907999Y-87357528D01*
X106928001Y-87289407D01*
X106981657Y-87242914D01*
X107051931Y-87232810D01*
X107116511Y-87262304D01*
X107141143Y-87291225D01*
X107173063Y-87342807D01*
X107182099Y-87354208D01*
X107296829Y-87468739D01*
X107308240Y-87477751D01*
X107446243Y-87562816D01*
X107459424Y-87568963D01*
X107613710Y-87620138D01*
X107627086Y-87623005D01*
X107721438Y-87632672D01*
X107727854Y-87633000D01*
X107977885Y-87633000D01*
X107993124Y-87628525D01*
X107994329Y-87627135D01*
X107996000Y-87619452D01*
X107996000Y-87614884D01*
X108504000Y-87614884D01*
X108508475Y-87630123D01*
X108509865Y-87631328D01*
X108517548Y-87632999D01*
X108772095Y-87632999D01*
X108778614Y-87632662D01*
X108874206Y-87622743D01*
X108887600Y-87619851D01*
X109041784Y-87568412D01*
X109054962Y-87562239D01*
X109192807Y-87476937D01*
X109204208Y-87467901D01*
X109318739Y-87353171D01*
X109327751Y-87341760D01*
X109412816Y-87203757D01*
X109418963Y-87190576D01*
X109470138Y-87036290D01*
X109473005Y-87022914D01*
X109482672Y-86928562D01*
X109483000Y-86922146D01*
X109483000Y-86809615D01*
X109478525Y-86794376D01*
X109477135Y-86793171D01*
X109469452Y-86791500D01*
X108522115Y-86791500D01*
X108506876Y-86795975D01*
X108505671Y-86797365D01*
X108504000Y-86805048D01*
X108504000Y-87614884D01*
X107996000Y-87614884D01*
X107996000Y-86409500D01*
X108016002Y-86341379D01*
X108069658Y-86294886D01*
X108122000Y-86283500D01*
X109464884Y-86283500D01*
X109480123Y-86279025D01*
X109481328Y-86277635D01*
X109482999Y-86269952D01*
X109482999Y-86152905D01*
X109482662Y-86146386D01*
X109472743Y-86050794D01*
X109469851Y-86037400D01*
X109418412Y-85883216D01*
X109412239Y-85870038D01*
X109326937Y-85732193D01*
X109317901Y-85720792D01*
X109203172Y-85606262D01*
X109194238Y-85599206D01*
X109153177Y-85541288D01*
X109149947Y-85470365D01*
X109185574Y-85408954D01*
X109193407Y-85402154D01*
X109199348Y-85398478D01*
X109324305Y-85273303D01*
X109328146Y-85267072D01*
X109413275Y-85128968D01*
X109413276Y-85128966D01*
X109417115Y-85122738D01*
X109472797Y-84954861D01*
X109475461Y-84928866D01*
X109483172Y-84853598D01*
X109483500Y-84850400D01*
X109483500Y-84074600D01*
X109472526Y-83968834D01*
X109442370Y-83878444D01*
X109418868Y-83808002D01*
X109416550Y-83801054D01*
X109323478Y-83650652D01*
X109198303Y-83525695D01*
X109192072Y-83521854D01*
X109053968Y-83436725D01*
X109053966Y-83436724D01*
X109047738Y-83432885D01*
X108891930Y-83381206D01*
X108886389Y-83379368D01*
X108886387Y-83379368D01*
X108879861Y-83377203D01*
X108873025Y-83376503D01*
X108873022Y-83376502D01*
X108829969Y-83372091D01*
X108775400Y-83366500D01*
X108278871Y-83366500D01*
X108210750Y-83346498D01*
X108189776Y-83329595D01*
X107571270Y-82711089D01*
X107558884Y-82696677D01*
X107550351Y-82685082D01*
X107550346Y-82685077D01*
X107546008Y-82679182D01*
X107540430Y-82674443D01*
X107540427Y-82674440D01*
X107505732Y-82644965D01*
X107498216Y-82638035D01*
X107492521Y-82632340D01*
X107486380Y-82627482D01*
X107470249Y-82614719D01*
X107466845Y-82611928D01*
X107416797Y-82569409D01*
X107416795Y-82569408D01*
X107411215Y-82564667D01*
X107404699Y-82561339D01*
X107399650Y-82557972D01*
X107394521Y-82554805D01*
X107388784Y-82550266D01*
X107322625Y-82519345D01*
X107318725Y-82517439D01*
X107253692Y-82484231D01*
X107246584Y-82482492D01*
X107240941Y-82480393D01*
X107235178Y-82478476D01*
X107228550Y-82475378D01*
X107157083Y-82460513D01*
X107152799Y-82459543D01*
X107081890Y-82442192D01*
X107076288Y-82441844D01*
X107076285Y-82441844D01*
X107070736Y-82441500D01*
X107070738Y-82441464D01*
X107066745Y-82441225D01*
X107062553Y-82440851D01*
X107055385Y-82439360D01*
X107042660Y-82439704D01*
X107027581Y-82440112D01*
X106958944Y-82421959D01*
X106911017Y-82369580D01*
X106902376Y-82345491D01*
X106901745Y-82339684D01*
X106898972Y-82332285D01*
X106853767Y-82211703D01*
X106850615Y-82203295D01*
X106763261Y-82086739D01*
X106646705Y-81999385D01*
X106510316Y-81948255D01*
X106448134Y-81941500D01*
X106284500Y-81941500D01*
X106216379Y-81921498D01*
X106169886Y-81867842D01*
X106158500Y-81815500D01*
X106158500Y-81466371D01*
X106178502Y-81398250D01*
X106195405Y-81377276D01*
X106277276Y-81295405D01*
X106339588Y-81261379D01*
X106366371Y-81258500D01*
X107432930Y-81258500D01*
X107451880Y-81259933D01*
X107466115Y-81262099D01*
X107466119Y-81262099D01*
X107473349Y-81263199D01*
X107480641Y-81262606D01*
X107480644Y-81262606D01*
X107526018Y-81258915D01*
X107536233Y-81258500D01*
X107544293Y-81258500D01*
X107557583Y-81256951D01*
X107572507Y-81255211D01*
X107576882Y-81254778D01*
X107642339Y-81249454D01*
X107642342Y-81249453D01*
X107649637Y-81248860D01*
X107656601Y-81246604D01*
X107662560Y-81245413D01*
X107668415Y-81244029D01*
X107675681Y-81243182D01*
X107744327Y-81218265D01*
X107748455Y-81216848D01*
X107810936Y-81196607D01*
X107810938Y-81196606D01*
X107817899Y-81194351D01*
X107824154Y-81190555D01*
X107829628Y-81188049D01*
X107835058Y-81185330D01*
X107841937Y-81182833D01*
X107889903Y-81151385D01*
X107902976Y-81142814D01*
X107906680Y-81140477D01*
X107969107Y-81102595D01*
X107977484Y-81095197D01*
X107977508Y-81095224D01*
X107980500Y-81092571D01*
X107983733Y-81089868D01*
X107989852Y-81085856D01*
X108043128Y-81029617D01*
X108045506Y-81027175D01*
X109738911Y-79333770D01*
X109753323Y-79321384D01*
X109764918Y-79312851D01*
X109764923Y-79312846D01*
X109770818Y-79308508D01*
X109775557Y-79302930D01*
X109775560Y-79302927D01*
X109805035Y-79268232D01*
X109811965Y-79260716D01*
X109817661Y-79255020D01*
X109819924Y-79252159D01*
X109819929Y-79252154D01*
X109835293Y-79232734D01*
X109838082Y-79229333D01*
X109839743Y-79227378D01*
X109885333Y-79173715D01*
X109888659Y-79167202D01*
X109892020Y-79162163D01*
X109895196Y-79157021D01*
X109899734Y-79151284D01*
X109930655Y-79085125D01*
X109932561Y-79081225D01*
X109965769Y-79016192D01*
X109967508Y-79009083D01*
X109969604Y-79003449D01*
X109971523Y-78997679D01*
X109974622Y-78991050D01*
X109989491Y-78919565D01*
X109990461Y-78915282D01*
X110006473Y-78849844D01*
X110007808Y-78844390D01*
X110008500Y-78833236D01*
X110008535Y-78833238D01*
X110008775Y-78829266D01*
X110009152Y-78825045D01*
X110010641Y-78817885D01*
X110008546Y-78740458D01*
X110008500Y-78737050D01*
X110008500Y-70067070D01*
X110009933Y-70048120D01*
X110012099Y-70033885D01*
X110012099Y-70033881D01*
X110013199Y-70026651D01*
X110012586Y-70019107D01*
X110008915Y-69973982D01*
X110008500Y-69963767D01*
X110008500Y-69955707D01*
X110005211Y-69927493D01*
X110004778Y-69923118D01*
X109999454Y-69857661D01*
X109999453Y-69857658D01*
X109998860Y-69850363D01*
X109996604Y-69843399D01*
X109995413Y-69837440D01*
X109994029Y-69831585D01*
X109993182Y-69824319D01*
X109968265Y-69755673D01*
X109966848Y-69751545D01*
X109946607Y-69689064D01*
X109946606Y-69689062D01*
X109944351Y-69682101D01*
X109940555Y-69675846D01*
X109938049Y-69670372D01*
X109935330Y-69664942D01*
X109932833Y-69658063D01*
X109909521Y-69622507D01*
X109892814Y-69597024D01*
X109890467Y-69593305D01*
X109879977Y-69576018D01*
X109852595Y-69530893D01*
X109845197Y-69522516D01*
X109845224Y-69522492D01*
X109842571Y-69519500D01*
X109839868Y-69516267D01*
X109835856Y-69510148D01*
X109779617Y-69456872D01*
X109777175Y-69454494D01*
X109595405Y-69272724D01*
X109561379Y-69210412D01*
X109558500Y-69183629D01*
X109558500Y-68070802D01*
X109578502Y-68002681D01*
X109603504Y-67974284D01*
X109607529Y-67970906D01*
X109612038Y-67967749D01*
X109767749Y-67812038D01*
X109894056Y-67631653D01*
X109896379Y-67626671D01*
X109896382Y-67626666D01*
X109984795Y-67437061D01*
X109987120Y-67432076D01*
X110044115Y-67219371D01*
X110063307Y-67000000D01*
X110044115Y-66780629D01*
X109987120Y-66567924D01*
X109943585Y-66474562D01*
X109896382Y-66373334D01*
X109896379Y-66373329D01*
X109894056Y-66368347D01*
X109767749Y-66187962D01*
X109612038Y-66032251D01*
X109431654Y-65905944D01*
X109232076Y-65812880D01*
X109019371Y-65755885D01*
X108800000Y-65736693D01*
X108580629Y-65755885D01*
X108367924Y-65812880D01*
X108274562Y-65856415D01*
X108173334Y-65903618D01*
X108173329Y-65903621D01*
X108168347Y-65905944D01*
X108163840Y-65909100D01*
X108163838Y-65909101D01*
X107992473Y-66029092D01*
X107992470Y-66029094D01*
X107987962Y-66032251D01*
X107832251Y-66187962D01*
X107705944Y-66368347D01*
X107703621Y-66373329D01*
X107703618Y-66373334D01*
X107656415Y-66474562D01*
X107612880Y-66567924D01*
X107555885Y-66780629D01*
X107536693Y-67000000D01*
X107555885Y-67219371D01*
X107612880Y-67432076D01*
X107615205Y-67437061D01*
X107703618Y-67626666D01*
X107703621Y-67626671D01*
X107705944Y-67631653D01*
X107832251Y-67812038D01*
X107987962Y-67967749D01*
X107992471Y-67970906D01*
X107996496Y-67974284D01*
X108035819Y-68033395D01*
X108041500Y-68070802D01*
X108041500Y-69482930D01*
X108040067Y-69501880D01*
X108036801Y-69523349D01*
X108037394Y-69530641D01*
X108037394Y-69530644D01*
X108041085Y-69576018D01*
X108041500Y-69586233D01*
X108041500Y-69594293D01*
X108041925Y-69597937D01*
X108044789Y-69622507D01*
X108045222Y-69626882D01*
X108049714Y-69682101D01*
X108051140Y-69699637D01*
X108053396Y-69706601D01*
X108054587Y-69712560D01*
X108055971Y-69718415D01*
X108056818Y-69725681D01*
X108081735Y-69794327D01*
X108083152Y-69798455D01*
X108095782Y-69837440D01*
X108105649Y-69867899D01*
X108109445Y-69874154D01*
X108111951Y-69879628D01*
X108114670Y-69885058D01*
X108117167Y-69891937D01*
X108121180Y-69898057D01*
X108121180Y-69898058D01*
X108157186Y-69952976D01*
X108159523Y-69956680D01*
X108197405Y-70019107D01*
X108201121Y-70023315D01*
X108201122Y-70023316D01*
X108204803Y-70027484D01*
X108204776Y-70027508D01*
X108207429Y-70030500D01*
X108210132Y-70033733D01*
X108214144Y-70039852D01*
X108219456Y-70044884D01*
X108270383Y-70093128D01*
X108272825Y-70095506D01*
X108454595Y-70277276D01*
X108488621Y-70339588D01*
X108491500Y-70366371D01*
X108491500Y-70788786D01*
X108471498Y-70856907D01*
X108417842Y-70903400D01*
X108347568Y-70913504D01*
X108287408Y-70887668D01*
X108284143Y-70885089D01*
X108181542Y-70804060D01*
X108118278Y-70754097D01*
X108118273Y-70754094D01*
X108114224Y-70750896D01*
X108109708Y-70748403D01*
X108109705Y-70748401D01*
X107910250Y-70638296D01*
X107910246Y-70638294D01*
X107905726Y-70635799D01*
X107900857Y-70634075D01*
X107900853Y-70634073D01*
X107686105Y-70558026D01*
X107686101Y-70558025D01*
X107681230Y-70556300D01*
X107676140Y-70555393D01*
X107676135Y-70555392D01*
X107548814Y-70532714D01*
X107446764Y-70514536D01*
X107357637Y-70513447D01*
X107213795Y-70511689D01*
X107213793Y-70511689D01*
X107208625Y-70511626D01*
X106973209Y-70547650D01*
X106746838Y-70621639D01*
X106742246Y-70624029D01*
X106742247Y-70624029D01*
X106547026Y-70725655D01*
X106535590Y-70731608D01*
X106531457Y-70734711D01*
X106531454Y-70734713D01*
X106349275Y-70871497D01*
X106345140Y-70874602D01*
X106180602Y-71046781D01*
X106159800Y-71077276D01*
X106145186Y-71098699D01*
X106090274Y-71143701D01*
X106019749Y-71151872D01*
X105956002Y-71120617D01*
X105935306Y-71096134D01*
X105924217Y-71078992D01*
X105924212Y-71078986D01*
X105921406Y-71074648D01*
X105761124Y-70898500D01*
X105757073Y-70895301D01*
X105757069Y-70895297D01*
X105578278Y-70754097D01*
X105578273Y-70754094D01*
X105574224Y-70750896D01*
X105569708Y-70748403D01*
X105569705Y-70748401D01*
X105370250Y-70638296D01*
X105370246Y-70638294D01*
X105365726Y-70635799D01*
X105360857Y-70634075D01*
X105360853Y-70634073D01*
X105146105Y-70558026D01*
X105146101Y-70558025D01*
X105141230Y-70556300D01*
X105136140Y-70555393D01*
X105136135Y-70555392D01*
X105008814Y-70532714D01*
X104906764Y-70514536D01*
X104817637Y-70513447D01*
X104673795Y-70511689D01*
X104673793Y-70511689D01*
X104668625Y-70511626D01*
X104433209Y-70547650D01*
X104206838Y-70621639D01*
X104202246Y-70624029D01*
X104202247Y-70624029D01*
X104007026Y-70725655D01*
X103995590Y-70731608D01*
X103991457Y-70734711D01*
X103991454Y-70734713D01*
X103809275Y-70871497D01*
X103805140Y-70874602D01*
X103640602Y-71046781D01*
X103619800Y-71077276D01*
X103605186Y-71098699D01*
X103550274Y-71143701D01*
X103479749Y-71151872D01*
X103416002Y-71120617D01*
X103395306Y-71096134D01*
X103384217Y-71078992D01*
X103384212Y-71078986D01*
X103381406Y-71074648D01*
X103221124Y-70898500D01*
X103217073Y-70895301D01*
X103217069Y-70895297D01*
X103036408Y-70752621D01*
X102995345Y-70694704D01*
X102988500Y-70653739D01*
X102988500Y-70547070D01*
X102989933Y-70528120D01*
X102992099Y-70513885D01*
X102992099Y-70513881D01*
X102993199Y-70506651D01*
X102988915Y-70453982D01*
X102988500Y-70443767D01*
X102988500Y-70435707D01*
X102987938Y-70430880D01*
X102985211Y-70407497D01*
X102984778Y-70403121D01*
X102979454Y-70337662D01*
X102979453Y-70337659D01*
X102978860Y-70330364D01*
X102976604Y-70323400D01*
X102975417Y-70317461D01*
X102974030Y-70311590D01*
X102973182Y-70304319D01*
X102970686Y-70297443D01*
X102970684Y-70297434D01*
X102948275Y-70235702D01*
X102946865Y-70231598D01*
X102924352Y-70162101D01*
X102920556Y-70155846D01*
X102918057Y-70150387D01*
X102915329Y-70144939D01*
X102912833Y-70138063D01*
X102872805Y-70077010D01*
X102870481Y-70073327D01*
X102835500Y-70015680D01*
X102835499Y-70015679D01*
X102832595Y-70010893D01*
X102825198Y-70002517D01*
X102825225Y-70002493D01*
X102822570Y-69999499D01*
X102819868Y-69996268D01*
X102815856Y-69990148D01*
X102759617Y-69936872D01*
X102757175Y-69934494D01*
X102333770Y-69511089D01*
X102321384Y-69496677D01*
X102312851Y-69485082D01*
X102312846Y-69485077D01*
X102308508Y-69479182D01*
X102302930Y-69474443D01*
X102302927Y-69474440D01*
X102268232Y-69444965D01*
X102260716Y-69438035D01*
X102255021Y-69432340D01*
X102238736Y-69419456D01*
X102232749Y-69414719D01*
X102229345Y-69411928D01*
X102179297Y-69369409D01*
X102179295Y-69369408D01*
X102173715Y-69364667D01*
X102167199Y-69361339D01*
X102162150Y-69357972D01*
X102157021Y-69354805D01*
X102151284Y-69350266D01*
X102085125Y-69319345D01*
X102081225Y-69317439D01*
X102016192Y-69284231D01*
X102009084Y-69282492D01*
X102003441Y-69280393D01*
X101997678Y-69278476D01*
X101991050Y-69275378D01*
X101978291Y-69272724D01*
X101919588Y-69260514D01*
X101915299Y-69259543D01*
X101844390Y-69242192D01*
X101838788Y-69241844D01*
X101838785Y-69241844D01*
X101833236Y-69241500D01*
X101833238Y-69241464D01*
X101829245Y-69241225D01*
X101825053Y-69240851D01*
X101817885Y-69239360D01*
X101754120Y-69241085D01*
X101740479Y-69241454D01*
X101737072Y-69241500D01*
X97317070Y-69241500D01*
X97298120Y-69240067D01*
X97283885Y-69237901D01*
X97283881Y-69237901D01*
X97276651Y-69236801D01*
X97269359Y-69237394D01*
X97269356Y-69237394D01*
X97223982Y-69241085D01*
X97213767Y-69241500D01*
X97205707Y-69241500D01*
X97202073Y-69241924D01*
X97202067Y-69241924D01*
X97189042Y-69243443D01*
X97177480Y-69244791D01*
X97173132Y-69245221D01*
X97100364Y-69251140D01*
X97093403Y-69253395D01*
X97087463Y-69254582D01*
X97081588Y-69255971D01*
X97074319Y-69256818D01*
X97005670Y-69281736D01*
X97001542Y-69283153D01*
X96939064Y-69303393D01*
X96939062Y-69303394D01*
X96932101Y-69305649D01*
X96925846Y-69309445D01*
X96920372Y-69311951D01*
X96914942Y-69314670D01*
X96908063Y-69317167D01*
X96901943Y-69321180D01*
X96901942Y-69321180D01*
X96847024Y-69357186D01*
X96843320Y-69359523D01*
X96780893Y-69397405D01*
X96772516Y-69404803D01*
X96772492Y-69404776D01*
X96769500Y-69407429D01*
X96766267Y-69410132D01*
X96760148Y-69414144D01*
X96730951Y-69444965D01*
X96706872Y-69470383D01*
X96704494Y-69472825D01*
X96072724Y-70104595D01*
X96010412Y-70138621D01*
X95983629Y-70141500D01*
X95499600Y-70141500D01*
X95496354Y-70141837D01*
X95496350Y-70141837D01*
X95400692Y-70151762D01*
X95400688Y-70151763D01*
X95393834Y-70152474D01*
X95387298Y-70154655D01*
X95387296Y-70154655D01*
X95255194Y-70198728D01*
X95226054Y-70208450D01*
X95075652Y-70301522D01*
X94950695Y-70426697D01*
X94946855Y-70432927D01*
X94946854Y-70432928D01*
X94862212Y-70570243D01*
X94857885Y-70577262D01*
X94855581Y-70584209D01*
X94806370Y-70732577D01*
X94802203Y-70745139D01*
X94791500Y-70849600D01*
X94791500Y-71570629D01*
X94771498Y-71638750D01*
X94717842Y-71685243D01*
X94647568Y-71695347D01*
X94582988Y-71665853D01*
X94576405Y-71659724D01*
X93801770Y-70885089D01*
X93789384Y-70870677D01*
X93780851Y-70859082D01*
X93780846Y-70859077D01*
X93776508Y-70853182D01*
X93770930Y-70848443D01*
X93770927Y-70848440D01*
X93736232Y-70818965D01*
X93728716Y-70812035D01*
X93723021Y-70806340D01*
X93716880Y-70801482D01*
X93700749Y-70788719D01*
X93697345Y-70785928D01*
X93647297Y-70743409D01*
X93647295Y-70743408D01*
X93641715Y-70738667D01*
X93635199Y-70735339D01*
X93630150Y-70731972D01*
X93625019Y-70728803D01*
X93619284Y-70724266D01*
X93612656Y-70721169D01*
X93612654Y-70721167D01*
X93605318Y-70717739D01*
X93593745Y-70712330D01*
X93540501Y-70665369D01*
X93527569Y-70638057D01*
X93508869Y-70582004D01*
X93508868Y-70582002D01*
X93506550Y-70575054D01*
X93413478Y-70424652D01*
X93288303Y-70299695D01*
X93177734Y-70231539D01*
X93143968Y-70210725D01*
X93143966Y-70210724D01*
X93137738Y-70206885D01*
X93002718Y-70162101D01*
X92976389Y-70153368D01*
X92976387Y-70153368D01*
X92969861Y-70151203D01*
X92963025Y-70150503D01*
X92963022Y-70150502D01*
X92919969Y-70146091D01*
X92865400Y-70140500D01*
X92089600Y-70140500D01*
X92086354Y-70140837D01*
X92086350Y-70140837D01*
X91990692Y-70150762D01*
X91990688Y-70150763D01*
X91983834Y-70151474D01*
X91977298Y-70153655D01*
X91977296Y-70153655D01*
X91931119Y-70169061D01*
X91816054Y-70207450D01*
X91665652Y-70300522D01*
X91660479Y-70305704D01*
X91648579Y-70317625D01*
X91540695Y-70425697D01*
X91537898Y-70430235D01*
X91480647Y-70470824D01*
X91409724Y-70474054D01*
X91348313Y-70438428D01*
X91340938Y-70429932D01*
X91332902Y-70419793D01*
X91218171Y-70305261D01*
X91206760Y-70296249D01*
X91068757Y-70211184D01*
X91055576Y-70205037D01*
X90901290Y-70153862D01*
X90887914Y-70150995D01*
X90793562Y-70141328D01*
X90787145Y-70141000D01*
X90674615Y-70141000D01*
X90659376Y-70145475D01*
X90658171Y-70146865D01*
X90656500Y-70154548D01*
X90656500Y-71502000D01*
X90636498Y-71570121D01*
X90582842Y-71616614D01*
X90530500Y-71628000D01*
X89325116Y-71628000D01*
X89309877Y-71632475D01*
X89308672Y-71633865D01*
X89307001Y-71641548D01*
X89307001Y-71896095D01*
X89307338Y-71902614D01*
X89317257Y-71998206D01*
X89320149Y-72011600D01*
X89371588Y-72165784D01*
X89377761Y-72178962D01*
X89463063Y-72316807D01*
X89472099Y-72328208D01*
X89586829Y-72442739D01*
X89598240Y-72451751D01*
X89736243Y-72536816D01*
X89756057Y-72546056D01*
X89755308Y-72547662D01*
X89806062Y-72582826D01*
X89833296Y-72648392D01*
X89820759Y-72718273D01*
X89772432Y-72770282D01*
X89761476Y-72776088D01*
X89760036Y-72776762D01*
X89622193Y-72862063D01*
X89610792Y-72871099D01*
X89496261Y-72985829D01*
X89487249Y-72997240D01*
X89402184Y-73135243D01*
X89396037Y-73148424D01*
X89344862Y-73302710D01*
X89341995Y-73316086D01*
X89332328Y-73410438D01*
X89332000Y-73416855D01*
X89332000Y-73641885D01*
X89336475Y-73657124D01*
X89337865Y-73658329D01*
X89345548Y-73660000D01*
X90568000Y-73660000D01*
X90636121Y-73680002D01*
X90682614Y-73733658D01*
X90694000Y-73786000D01*
X90694000Y-74042000D01*
X90673998Y-74110121D01*
X90620342Y-74156614D01*
X90568000Y-74168000D01*
X89350116Y-74168000D01*
X89334877Y-74172475D01*
X89333672Y-74173865D01*
X89332001Y-74181548D01*
X89332001Y-74411095D01*
X89332338Y-74417614D01*
X89342257Y-74513206D01*
X89345149Y-74526600D01*
X89396588Y-74680784D01*
X89402761Y-74693962D01*
X89488063Y-74831807D01*
X89497099Y-74843208D01*
X89611829Y-74957739D01*
X89623240Y-74966751D01*
X89761243Y-75051816D01*
X89774424Y-75057963D01*
X89893264Y-75097381D01*
X89951624Y-75137812D01*
X89978860Y-75203376D01*
X89966326Y-75273258D01*
X89914104Y-75327495D01*
X89896351Y-75337214D01*
X89794276Y-75413715D01*
X89781715Y-75426276D01*
X89705214Y-75528351D01*
X89696676Y-75543946D01*
X89651522Y-75664394D01*
X89647895Y-75679649D01*
X89642369Y-75730514D01*
X89642000Y-75737328D01*
X89642000Y-76459885D01*
X89646475Y-76475124D01*
X89647865Y-76476329D01*
X89655548Y-76478000D01*
X90678000Y-76478000D01*
X90746121Y-76498002D01*
X90792614Y-76551658D01*
X90804000Y-76604000D01*
X90804000Y-78171884D01*
X90811472Y-78197331D01*
X90838819Y-78239885D01*
X90838819Y-78310882D01*
X90800434Y-78370607D01*
X90793489Y-78376207D01*
X90736739Y-78418739D01*
X90649385Y-78535295D01*
X90598255Y-78671684D01*
X90591500Y-78733866D01*
X90591500Y-80730134D01*
X90598255Y-80792316D01*
X90618590Y-80846559D01*
X90647961Y-80924906D01*
X90653144Y-80995713D01*
X90619223Y-81058082D01*
X90556968Y-81092212D01*
X90543588Y-81094399D01*
X90522511Y-81096689D01*
X90489684Y-81100255D01*
X90353295Y-81151385D01*
X90236739Y-81238739D01*
X90149385Y-81355295D01*
X90098255Y-81491684D01*
X90091500Y-81553866D01*
X90091500Y-82640489D01*
X90071498Y-82708610D01*
X90037301Y-82741934D01*
X90038209Y-82743168D01*
X90033685Y-82746497D01*
X90028893Y-82749405D01*
X90024694Y-82753114D01*
X90024689Y-82753117D01*
X90020516Y-82756803D01*
X90020492Y-82756776D01*
X90017500Y-82759429D01*
X90014267Y-82762132D01*
X90008148Y-82766144D01*
X90003116Y-82771456D01*
X89954872Y-82822383D01*
X89952494Y-82824825D01*
X87440499Y-85336820D01*
X87378187Y-85370846D01*
X87312992Y-85367727D01*
X87249816Y-85347505D01*
X87211665Y-85335293D01*
X86953693Y-85293279D01*
X86839942Y-85291790D01*
X86697022Y-85289919D01*
X86697019Y-85289919D01*
X86692345Y-85289858D01*
X86433362Y-85325104D01*
X86428876Y-85326412D01*
X86428874Y-85326412D01*
X86393509Y-85336720D01*
X86182433Y-85398243D01*
X86178180Y-85400203D01*
X86178179Y-85400204D01*
X86142815Y-85416507D01*
X85945072Y-85507668D01*
X85909209Y-85531181D01*
X85730404Y-85648410D01*
X85730399Y-85648414D01*
X85726491Y-85650976D01*
X85616875Y-85748812D01*
X85535454Y-85821484D01*
X85531494Y-85825018D01*
X85364363Y-86025970D01*
X85361934Y-86029973D01*
X85235252Y-86238739D01*
X85228771Y-86249419D01*
X85127697Y-86490455D01*
X85063359Y-86743783D01*
X85062891Y-86748434D01*
X85062890Y-86748438D01*
X85057190Y-86805048D01*
X85037173Y-87003839D01*
X85037397Y-87008505D01*
X85037397Y-87008511D01*
X85043443Y-87134373D01*
X85049713Y-87264908D01*
X85100704Y-87521256D01*
X85189026Y-87767252D01*
X85191242Y-87771376D01*
X85279513Y-87935657D01*
X85312737Y-87997491D01*
X85315532Y-88001234D01*
X85315534Y-88001237D01*
X85466330Y-88203177D01*
X85466335Y-88203183D01*
X85469122Y-88206915D01*
X85472431Y-88210195D01*
X85472436Y-88210201D01*
X85651426Y-88387635D01*
X85654743Y-88390923D01*
X85658505Y-88393681D01*
X85658508Y-88393684D01*
X85861750Y-88542707D01*
X85865524Y-88545474D01*
X85869667Y-88547654D01*
X85869669Y-88547655D01*
X86092684Y-88664989D01*
X86092689Y-88664991D01*
X86096834Y-88667172D01*
X86343590Y-88753344D01*
X86348183Y-88754216D01*
X86595785Y-88801224D01*
X86595788Y-88801224D01*
X86600374Y-88802095D01*
X86730959Y-88807226D01*
X86856875Y-88812174D01*
X86856881Y-88812174D01*
X86861543Y-88812357D01*
X86941054Y-88803649D01*
X87116707Y-88784412D01*
X87116712Y-88784411D01*
X87121360Y-88783902D01*
X87234116Y-88754216D01*
X87369594Y-88718548D01*
X87369596Y-88718547D01*
X87374117Y-88717357D01*
X87400768Y-88705907D01*
X87609972Y-88616025D01*
X87614262Y-88614182D01*
X87836519Y-88476646D01*
X87840082Y-88473629D01*
X87840087Y-88473626D01*
X88032439Y-88310787D01*
X88032440Y-88310786D01*
X88036005Y-88307768D01*
X88124451Y-88206915D01*
X88205257Y-88114774D01*
X88205261Y-88114769D01*
X88208339Y-88111259D01*
X88349733Y-87891437D01*
X88457083Y-87653129D01*
X88474504Y-87591360D01*
X88526760Y-87406076D01*
X88526761Y-87406073D01*
X88528030Y-87401572D01*
X88544832Y-87269496D01*
X88560616Y-87145421D01*
X88560616Y-87145417D01*
X88561014Y-87142291D01*
X88563431Y-87050000D01*
X88561771Y-87027658D01*
X88544407Y-86794000D01*
X88544406Y-86793996D01*
X88544061Y-86789348D01*
X88535553Y-86751745D01*
X88487408Y-86538979D01*
X88487408Y-86538978D01*
X88486377Y-86534423D01*
X88485254Y-86531536D01*
X88484474Y-86460957D01*
X88516660Y-86406021D01*
X89876405Y-85046276D01*
X89938717Y-85012250D01*
X90009532Y-85017315D01*
X90066368Y-85059862D01*
X90091179Y-85126382D01*
X90091500Y-85135371D01*
X90091500Y-85150134D01*
X90098255Y-85212316D01*
X90149385Y-85348705D01*
X90236739Y-85465261D01*
X90353295Y-85552615D01*
X90489684Y-85603745D01*
X90551866Y-85610500D01*
X92448134Y-85610500D01*
X92510316Y-85603745D01*
X92646705Y-85552615D01*
X92763261Y-85465261D01*
X92850615Y-85348705D01*
X92901745Y-85212316D01*
X92908500Y-85150134D01*
X92908500Y-81553866D01*
X92901745Y-81491684D01*
X92850615Y-81355295D01*
X92763261Y-81238739D01*
X92646705Y-81151385D01*
X92510316Y-81100255D01*
X92477489Y-81096689D01*
X92456412Y-81094399D01*
X92390851Y-81067157D01*
X92350425Y-81008793D01*
X92347970Y-80937839D01*
X92352039Y-80924906D01*
X92381410Y-80846559D01*
X92401745Y-80792316D01*
X92408500Y-80730134D01*
X92408500Y-78733866D01*
X92401745Y-78671684D01*
X92350615Y-78535295D01*
X92263261Y-78418739D01*
X92256081Y-78413358D01*
X92249731Y-78407008D01*
X92251978Y-78404761D01*
X92218857Y-78360456D01*
X92213838Y-78289637D01*
X92247903Y-78227347D01*
X92310238Y-78193362D01*
X92336941Y-78190500D01*
X92783629Y-78190500D01*
X92851750Y-78210502D01*
X92872724Y-78227405D01*
X93692595Y-79047276D01*
X93726621Y-79109588D01*
X93729500Y-79136371D01*
X93729500Y-85276930D01*
X93728067Y-85295880D01*
X93726874Y-85303724D01*
X93724801Y-85317349D01*
X93725394Y-85324641D01*
X93725394Y-85324644D01*
X93729085Y-85370018D01*
X93729500Y-85380233D01*
X93729500Y-85388293D01*
X93729925Y-85391937D01*
X93732789Y-85416507D01*
X93733222Y-85420882D01*
X93737270Y-85470642D01*
X93739140Y-85493637D01*
X93741396Y-85500601D01*
X93742587Y-85506560D01*
X93743971Y-85512415D01*
X93744818Y-85519681D01*
X93769735Y-85588327D01*
X93771152Y-85592455D01*
X93774810Y-85603745D01*
X93793649Y-85661899D01*
X93797445Y-85668154D01*
X93799951Y-85673628D01*
X93802670Y-85679058D01*
X93805167Y-85685937D01*
X93809180Y-85692057D01*
X93809180Y-85692058D01*
X93845186Y-85746976D01*
X93847523Y-85750680D01*
X93885405Y-85813107D01*
X93889121Y-85817315D01*
X93889122Y-85817316D01*
X93892803Y-85821484D01*
X93892776Y-85821508D01*
X93895429Y-85824500D01*
X93898132Y-85827733D01*
X93902144Y-85833852D01*
X93954253Y-85883216D01*
X93958383Y-85887128D01*
X93960825Y-85889506D01*
X96952230Y-88880911D01*
X96964616Y-88895323D01*
X96973149Y-88906918D01*
X96973154Y-88906923D01*
X96977492Y-88912818D01*
X96983070Y-88917557D01*
X96983073Y-88917560D01*
X97017768Y-88947035D01*
X97025284Y-88953965D01*
X97030979Y-88959660D01*
X97033861Y-88961940D01*
X97053251Y-88977281D01*
X97056655Y-88980072D01*
X97094531Y-89012250D01*
X97112285Y-89027333D01*
X97118801Y-89030661D01*
X97123850Y-89034028D01*
X97128979Y-89037195D01*
X97134716Y-89041734D01*
X97200875Y-89072655D01*
X97204769Y-89074558D01*
X97269808Y-89107769D01*
X97276916Y-89109508D01*
X97282559Y-89111607D01*
X97288322Y-89113524D01*
X97294950Y-89116622D01*
X97302112Y-89118112D01*
X97302113Y-89118112D01*
X97366412Y-89131486D01*
X97370696Y-89132456D01*
X97441610Y-89149808D01*
X97447212Y-89150156D01*
X97447215Y-89150156D01*
X97452764Y-89150500D01*
X97452762Y-89150536D01*
X97456755Y-89150775D01*
X97460947Y-89151149D01*
X97468115Y-89152640D01*
X97545520Y-89150546D01*
X97548928Y-89150500D01*
X99472629Y-89150500D01*
X99540750Y-89170502D01*
X99587243Y-89224158D01*
X99597347Y-89294432D01*
X99567853Y-89359012D01*
X99561724Y-89365595D01*
X99552724Y-89374595D01*
X99490412Y-89408621D01*
X99463629Y-89411500D01*
X95362371Y-89411500D01*
X95294250Y-89391498D01*
X95273276Y-89374595D01*
X93761770Y-87863089D01*
X93749384Y-87848677D01*
X93740851Y-87837082D01*
X93740846Y-87837077D01*
X93736508Y-87831182D01*
X93730930Y-87826443D01*
X93730927Y-87826440D01*
X93696232Y-87796965D01*
X93688716Y-87790035D01*
X93683021Y-87784340D01*
X93666635Y-87771376D01*
X93660749Y-87766719D01*
X93657345Y-87763928D01*
X93607297Y-87721409D01*
X93607295Y-87721408D01*
X93601715Y-87716667D01*
X93595199Y-87713339D01*
X93590150Y-87709972D01*
X93585021Y-87706805D01*
X93579284Y-87702266D01*
X93513125Y-87671345D01*
X93509225Y-87669439D01*
X93444192Y-87636231D01*
X93437084Y-87634492D01*
X93431441Y-87632393D01*
X93425678Y-87630476D01*
X93419050Y-87627378D01*
X93396767Y-87622743D01*
X93378252Y-87618892D01*
X93347583Y-87612513D01*
X93343299Y-87611543D01*
X93311978Y-87603879D01*
X93272390Y-87594192D01*
X93266788Y-87593844D01*
X93266785Y-87593844D01*
X93261236Y-87593500D01*
X93261238Y-87593464D01*
X93257245Y-87593225D01*
X93253053Y-87592851D01*
X93245885Y-87591360D01*
X93179675Y-87593151D01*
X93168479Y-87593454D01*
X93165072Y-87593500D01*
X93034500Y-87593500D01*
X92966379Y-87573498D01*
X92919886Y-87519842D01*
X92908500Y-87467500D01*
X92908500Y-86553866D01*
X92901745Y-86491684D01*
X92850615Y-86355295D01*
X92763261Y-86238739D01*
X92646705Y-86151385D01*
X92510316Y-86100255D01*
X92448134Y-86093500D01*
X90551866Y-86093500D01*
X90489684Y-86100255D01*
X90353295Y-86151385D01*
X90236739Y-86238739D01*
X90149385Y-86355295D01*
X90098255Y-86491684D01*
X90091500Y-86553866D01*
X90091500Y-90150134D01*
X90098255Y-90212316D01*
X90149385Y-90348705D01*
X90236739Y-90465261D01*
X90353295Y-90552615D01*
X90361703Y-90555767D01*
X90369844Y-90558819D01*
X90426608Y-90601461D01*
X90451308Y-90668022D01*
X90436100Y-90737371D01*
X90424431Y-90754975D01*
X90414721Y-90767249D01*
X90411928Y-90770655D01*
X90369409Y-90820703D01*
X90364667Y-90826285D01*
X90361339Y-90832801D01*
X90357972Y-90837850D01*
X90354805Y-90842979D01*
X90350266Y-90848716D01*
X90319345Y-90914875D01*
X90317442Y-90918769D01*
X90284231Y-90983808D01*
X90282492Y-90990916D01*
X90280393Y-90996559D01*
X90278476Y-91002322D01*
X90275378Y-91008950D01*
X90273888Y-91016112D01*
X90273888Y-91016113D01*
X90260514Y-91080412D01*
X90259544Y-91084696D01*
X90242192Y-91155610D01*
X90241844Y-91161212D01*
X90241844Y-91161215D01*
X90241785Y-91162163D01*
X90241500Y-91166764D01*
X90241464Y-91166762D01*
X90241225Y-91170755D01*
X90240851Y-91174947D01*
X90239360Y-91182115D01*
X90239558Y-91189432D01*
X90241454Y-91259521D01*
X90241500Y-91262928D01*
X90241500Y-91636330D01*
X90221498Y-91704451D01*
X90167842Y-91750944D01*
X90129108Y-91761593D01*
X90116914Y-91762918D01*
X90089684Y-91765876D01*
X89953295Y-91817006D01*
X89836739Y-91904360D01*
X89749385Y-92020916D01*
X89698255Y-92157305D01*
X89697402Y-92165161D01*
X89693972Y-92196729D01*
X89666730Y-92262291D01*
X89608366Y-92302717D01*
X89568709Y-92309121D01*
X81183992Y-92309121D01*
X81115871Y-92289119D01*
X81094897Y-92272216D01*
X79917232Y-91094551D01*
X79883206Y-91032239D01*
X79888271Y-90961424D01*
X79930818Y-90904588D01*
X79997338Y-90879777D01*
X80048216Y-90887068D01*
X80048257Y-90886930D01*
X80052371Y-90888149D01*
X80052372Y-90888149D01*
X80306723Y-90963491D01*
X80306727Y-90963492D01*
X80310836Y-90964709D01*
X80315070Y-90965357D01*
X80315075Y-90965358D01*
X80577298Y-91005483D01*
X80577300Y-91005483D01*
X80581540Y-91006132D01*
X80720912Y-91008322D01*
X80851071Y-91010367D01*
X80851077Y-91010367D01*
X80855362Y-91010434D01*
X81127235Y-90977534D01*
X81392127Y-90908041D01*
X81396087Y-90906401D01*
X81396092Y-90906399D01*
X81528460Y-90851570D01*
X81645136Y-90803241D01*
X81837525Y-90690818D01*
X81877879Y-90667237D01*
X81877880Y-90667236D01*
X81881582Y-90665073D01*
X82097089Y-90496094D01*
X82126969Y-90465261D01*
X82284686Y-90302509D01*
X82287669Y-90299431D01*
X82290202Y-90295983D01*
X82290206Y-90295978D01*
X82447257Y-90082178D01*
X82449795Y-90078723D01*
X82451841Y-90074955D01*
X82578418Y-89841830D01*
X82578419Y-89841828D01*
X82580468Y-89838054D01*
X82677269Y-89581877D01*
X82716950Y-89408621D01*
X82737449Y-89319117D01*
X82737450Y-89319113D01*
X82738407Y-89314933D01*
X82746509Y-89224158D01*
X82762531Y-89044627D01*
X82762531Y-89044625D01*
X82762751Y-89042161D01*
X82762907Y-89027333D01*
X82763167Y-89002484D01*
X82763167Y-89002483D01*
X82763193Y-89000000D01*
X82762048Y-88983198D01*
X82744859Y-88731055D01*
X82744858Y-88731049D01*
X82744567Y-88726778D01*
X82689032Y-88458612D01*
X82597617Y-88200465D01*
X82472013Y-87957112D01*
X82462040Y-87942921D01*
X82359460Y-87796965D01*
X82314545Y-87733057D01*
X82221566Y-87633000D01*
X82131046Y-87535588D01*
X82131043Y-87535585D01*
X82128125Y-87532445D01*
X82124810Y-87529731D01*
X82124806Y-87529728D01*
X81994069Y-87422721D01*
X81916205Y-87358990D01*
X81682704Y-87215901D01*
X81678768Y-87214173D01*
X81435873Y-87107549D01*
X81435869Y-87107548D01*
X81431945Y-87105825D01*
X81168566Y-87030800D01*
X81164324Y-87030196D01*
X81164318Y-87030195D01*
X80946430Y-86999185D01*
X80897443Y-86992213D01*
X80753589Y-86991460D01*
X80627877Y-86990802D01*
X80627871Y-86990802D01*
X80623591Y-86990780D01*
X80619347Y-86991339D01*
X80619343Y-86991339D01*
X80524397Y-87003839D01*
X80352078Y-87026525D01*
X80347938Y-87027658D01*
X80347936Y-87027658D01*
X80316383Y-87036290D01*
X80087928Y-87098788D01*
X80083980Y-87100472D01*
X79839982Y-87204546D01*
X79839978Y-87204548D01*
X79836030Y-87206232D01*
X79742340Y-87262304D01*
X79604725Y-87344664D01*
X79604721Y-87344667D01*
X79601043Y-87346868D01*
X79387318Y-87518094D01*
X79315434Y-87593844D01*
X79241267Y-87672000D01*
X79198808Y-87716742D01*
X79039002Y-87939136D01*
X78910857Y-88181161D01*
X78909385Y-88185184D01*
X78909383Y-88185188D01*
X78865810Y-88304257D01*
X78816743Y-88438337D01*
X78758404Y-88705907D01*
X78736917Y-88978918D01*
X78752682Y-89252320D01*
X78753507Y-89256525D01*
X78753508Y-89256533D01*
X78775824Y-89370276D01*
X78805405Y-89521053D01*
X78806792Y-89525103D01*
X78806793Y-89525108D01*
X78869682Y-89708790D01*
X78872824Y-89779717D01*
X78837121Y-89841084D01*
X78773908Y-89873406D01*
X78703256Y-89866422D01*
X78661380Y-89838699D01*
X76513423Y-87690742D01*
X76479397Y-87628430D01*
X76481249Y-87567446D01*
X76526759Y-87406080D01*
X76526760Y-87406075D01*
X76528030Y-87401572D01*
X76544832Y-87269496D01*
X76560616Y-87145421D01*
X76560616Y-87145417D01*
X76561014Y-87142291D01*
X76563431Y-87050000D01*
X76561771Y-87027658D01*
X76544407Y-86794000D01*
X76544406Y-86793996D01*
X76544061Y-86789348D01*
X76535553Y-86751745D01*
X76491550Y-86557283D01*
X76486377Y-86534423D01*
X76472812Y-86499540D01*
X76393340Y-86295176D01*
X76393339Y-86295173D01*
X76391647Y-86290823D01*
X76384110Y-86277635D01*
X76282241Y-86099402D01*
X76261951Y-86063902D01*
X76100138Y-85858643D01*
X75909763Y-85679557D01*
X75735261Y-85558500D01*
X75698851Y-85533241D01*
X75698848Y-85533239D01*
X75695009Y-85530576D01*
X75690816Y-85528508D01*
X75464781Y-85417040D01*
X75464778Y-85417039D01*
X75460593Y-85414975D01*
X75441784Y-85408954D01*
X75216123Y-85336720D01*
X75211665Y-85335293D01*
X74953693Y-85293279D01*
X74839942Y-85291790D01*
X74697022Y-85289919D01*
X74697019Y-85289919D01*
X74692345Y-85289858D01*
X74433362Y-85325104D01*
X74428876Y-85326412D01*
X74428874Y-85326412D01*
X74393509Y-85336720D01*
X74182433Y-85398243D01*
X74178180Y-85400203D01*
X74178179Y-85400204D01*
X74142815Y-85416507D01*
X73945072Y-85507668D01*
X73909209Y-85531181D01*
X73730404Y-85648410D01*
X73730399Y-85648414D01*
X73726491Y-85650976D01*
X73616875Y-85748812D01*
X73535454Y-85821484D01*
X73531494Y-85825018D01*
X73364363Y-86025970D01*
X73361934Y-86029973D01*
X73235252Y-86238739D01*
X73228771Y-86249419D01*
X73127697Y-86490455D01*
X73063359Y-86743783D01*
X73062891Y-86748434D01*
X73062890Y-86748438D01*
X73057190Y-86805048D01*
X73037173Y-87003839D01*
X72258500Y-87003839D01*
X72258500Y-77726669D01*
X89642001Y-77726669D01*
X89642371Y-77733490D01*
X89647895Y-77784352D01*
X89651521Y-77799604D01*
X89696676Y-77920054D01*
X89705214Y-77935649D01*
X89781715Y-78037724D01*
X89794276Y-78050285D01*
X89896351Y-78126786D01*
X89911946Y-78135324D01*
X90032394Y-78180478D01*
X90047649Y-78184105D01*
X90098514Y-78189631D01*
X90105328Y-78190000D01*
X90277885Y-78190000D01*
X90293124Y-78185525D01*
X90294329Y-78184135D01*
X90296000Y-78176452D01*
X90296000Y-77004115D01*
X90291525Y-76988876D01*
X90290135Y-76987671D01*
X90282452Y-76986000D01*
X89660116Y-76986000D01*
X89644877Y-76990475D01*
X89643672Y-76991865D01*
X89642001Y-76999548D01*
X89642001Y-77726669D01*
X72258500Y-77726669D01*
X72258500Y-74778918D01*
X72736917Y-74778918D01*
X72752682Y-75052320D01*
X72753507Y-75056525D01*
X72753508Y-75056533D01*
X72775976Y-75171050D01*
X72805405Y-75321053D01*
X72806792Y-75325103D01*
X72806793Y-75325108D01*
X72882856Y-75547269D01*
X72894112Y-75580144D01*
X72910783Y-75613291D01*
X73011625Y-75813793D01*
X73017160Y-75824799D01*
X73019586Y-75828328D01*
X73019589Y-75828334D01*
X73155697Y-76026371D01*
X73172274Y-76050490D01*
X73175161Y-76053663D01*
X73175162Y-76053664D01*
X73353692Y-76249867D01*
X73356582Y-76253043D01*
X73566675Y-76428707D01*
X73570316Y-76430991D01*
X73795024Y-76571951D01*
X73795028Y-76571953D01*
X73798664Y-76574234D01*
X73866192Y-76604724D01*
X74044345Y-76685164D01*
X74044349Y-76685166D01*
X74048257Y-76686930D01*
X74052377Y-76688150D01*
X74052376Y-76688150D01*
X74306723Y-76763491D01*
X74306727Y-76763492D01*
X74310836Y-76764709D01*
X74315070Y-76765357D01*
X74315075Y-76765358D01*
X74577298Y-76805483D01*
X74577300Y-76805483D01*
X74581540Y-76806132D01*
X74720912Y-76808322D01*
X74851071Y-76810367D01*
X74851077Y-76810367D01*
X74855362Y-76810434D01*
X75127235Y-76777534D01*
X75392127Y-76708041D01*
X75396087Y-76706401D01*
X75396092Y-76706399D01*
X75590191Y-76626000D01*
X75645136Y-76603241D01*
X75881582Y-76465073D01*
X76097089Y-76296094D01*
X76104751Y-76288188D01*
X76236233Y-76152509D01*
X76287669Y-76099431D01*
X76290202Y-76095983D01*
X76290206Y-76095978D01*
X76447257Y-75882178D01*
X76449795Y-75878723D01*
X76462438Y-75855438D01*
X76578418Y-75641830D01*
X76578419Y-75641828D01*
X76580468Y-75638054D01*
X76655861Y-75438532D01*
X76675751Y-75385895D01*
X76675752Y-75385891D01*
X76677269Y-75381877D01*
X76704684Y-75262178D01*
X76737449Y-75119117D01*
X76737450Y-75119113D01*
X76738407Y-75114933D01*
X76739109Y-75107073D01*
X76762531Y-74844627D01*
X76762531Y-74844625D01*
X76762751Y-74842161D01*
X76762890Y-74828918D01*
X84786917Y-74828918D01*
X84802682Y-75102320D01*
X84803507Y-75106525D01*
X84803508Y-75106533D01*
X84831623Y-75249836D01*
X84855405Y-75371053D01*
X84856792Y-75375103D01*
X84856793Y-75375108D01*
X84937676Y-75611347D01*
X84944112Y-75630144D01*
X85067160Y-75874799D01*
X85069586Y-75878328D01*
X85069589Y-75878334D01*
X85170985Y-76025865D01*
X85222274Y-76100490D01*
X85225161Y-76103663D01*
X85225162Y-76103664D01*
X85393065Y-76288188D01*
X85406582Y-76303043D01*
X85616675Y-76478707D01*
X85620316Y-76480991D01*
X85845024Y-76621951D01*
X85845028Y-76621953D01*
X85848664Y-76624234D01*
X85916544Y-76654883D01*
X86094345Y-76735164D01*
X86094349Y-76735166D01*
X86098257Y-76736930D01*
X86102377Y-76738150D01*
X86102376Y-76738150D01*
X86356723Y-76813491D01*
X86356727Y-76813492D01*
X86360836Y-76814709D01*
X86365070Y-76815357D01*
X86365075Y-76815358D01*
X86627298Y-76855483D01*
X86627300Y-76855483D01*
X86631540Y-76856132D01*
X86770912Y-76858322D01*
X86901071Y-76860367D01*
X86901077Y-76860367D01*
X86905362Y-76860434D01*
X87177235Y-76827534D01*
X87442127Y-76758041D01*
X87446087Y-76756401D01*
X87446092Y-76756399D01*
X87610858Y-76688150D01*
X87695136Y-76653241D01*
X87931582Y-76515073D01*
X88147089Y-76346094D01*
X88188809Y-76303043D01*
X88315928Y-76171866D01*
X88337669Y-76149431D01*
X88340202Y-76145983D01*
X88340206Y-76145978D01*
X88497257Y-75932178D01*
X88499795Y-75928723D01*
X88503786Y-75921372D01*
X88628418Y-75691830D01*
X88628419Y-75691828D01*
X88630468Y-75688054D01*
X88705151Y-75490412D01*
X88725751Y-75435895D01*
X88725752Y-75435891D01*
X88727269Y-75431877D01*
X88768224Y-75253057D01*
X88787449Y-75169117D01*
X88787450Y-75169113D01*
X88788407Y-75164933D01*
X88789039Y-75157861D01*
X88812531Y-74894627D01*
X88812531Y-74894625D01*
X88812751Y-74892161D01*
X88813193Y-74850000D01*
X88812399Y-74838348D01*
X88794859Y-74581055D01*
X88794858Y-74581049D01*
X88794567Y-74576778D01*
X88793649Y-74572342D01*
X88753533Y-74378635D01*
X88739032Y-74308612D01*
X88647617Y-74050465D01*
X88526122Y-73815073D01*
X88523978Y-73810919D01*
X88523978Y-73810918D01*
X88522013Y-73807112D01*
X88515389Y-73797686D01*
X88367008Y-73586562D01*
X88364545Y-73583057D01*
X88233767Y-73442323D01*
X88181046Y-73385588D01*
X88181043Y-73385585D01*
X88178125Y-73382445D01*
X88174810Y-73379731D01*
X88174806Y-73379728D01*
X87969523Y-73211706D01*
X87966205Y-73208990D01*
X87732704Y-73065901D01*
X87728768Y-73064173D01*
X87485873Y-72957549D01*
X87485869Y-72957548D01*
X87481945Y-72955825D01*
X87218566Y-72880800D01*
X87214324Y-72880196D01*
X87214318Y-72880195D01*
X87013834Y-72851662D01*
X86947443Y-72842213D01*
X86803589Y-72841460D01*
X86677877Y-72840802D01*
X86677871Y-72840802D01*
X86673591Y-72840780D01*
X86669347Y-72841339D01*
X86669343Y-72841339D01*
X86550302Y-72857011D01*
X86402078Y-72876525D01*
X86397938Y-72877658D01*
X86397936Y-72877658D01*
X86325008Y-72897609D01*
X86137928Y-72948788D01*
X86133980Y-72950472D01*
X85889982Y-73054546D01*
X85889978Y-73054548D01*
X85886030Y-73056232D01*
X85773822Y-73123387D01*
X85654725Y-73194664D01*
X85654721Y-73194667D01*
X85651043Y-73196868D01*
X85437318Y-73368094D01*
X85373545Y-73435297D01*
X85283755Y-73529916D01*
X85248808Y-73566742D01*
X85089002Y-73789136D01*
X84960857Y-74031161D01*
X84959385Y-74035184D01*
X84959383Y-74035188D01*
X84877621Y-74258612D01*
X84866743Y-74288337D01*
X84808404Y-74555907D01*
X84786917Y-74828918D01*
X76762890Y-74828918D01*
X76763193Y-74800000D01*
X76755964Y-74693962D01*
X76744859Y-74531055D01*
X76744858Y-74531049D01*
X76744567Y-74526778D01*
X76742928Y-74518861D01*
X76700256Y-74312809D01*
X76689032Y-74258612D01*
X76597617Y-74000465D01*
X76472013Y-73757112D01*
X76462040Y-73742921D01*
X76388791Y-73638699D01*
X76314545Y-73533057D01*
X76223701Y-73435297D01*
X76131046Y-73335588D01*
X76131043Y-73335585D01*
X76128125Y-73332445D01*
X76124810Y-73329731D01*
X76124806Y-73329728D01*
X75919523Y-73161706D01*
X75916205Y-73158990D01*
X75682704Y-73015901D01*
X75678768Y-73014173D01*
X75435873Y-72907549D01*
X75435869Y-72907548D01*
X75431945Y-72905825D01*
X75168566Y-72830800D01*
X75164324Y-72830196D01*
X75164318Y-72830195D01*
X74963834Y-72801662D01*
X74897443Y-72792213D01*
X74753589Y-72791460D01*
X74627877Y-72790802D01*
X74627871Y-72790802D01*
X74623591Y-72790780D01*
X74619347Y-72791339D01*
X74619343Y-72791339D01*
X74516596Y-72804866D01*
X74352078Y-72826525D01*
X74347938Y-72827658D01*
X74347936Y-72827658D01*
X74294732Y-72842213D01*
X74087928Y-72898788D01*
X74083980Y-72900472D01*
X73839982Y-73004546D01*
X73839978Y-73004548D01*
X73836030Y-73006232D01*
X73722216Y-73074348D01*
X73604725Y-73144664D01*
X73604721Y-73144667D01*
X73601043Y-73146868D01*
X73387318Y-73318094D01*
X73198808Y-73516742D01*
X73039002Y-73739136D01*
X72910857Y-73981161D01*
X72909385Y-73985184D01*
X72909383Y-73985188D01*
X72818214Y-74234317D01*
X72816743Y-74238337D01*
X72758404Y-74505907D01*
X72757282Y-74520166D01*
X72744641Y-74680784D01*
X72736917Y-74778918D01*
X72258500Y-74778918D01*
X72258500Y-71101885D01*
X89307000Y-71101885D01*
X89311475Y-71117124D01*
X89312865Y-71118329D01*
X89320548Y-71120000D01*
X90130385Y-71120000D01*
X90145624Y-71115525D01*
X90146829Y-71114135D01*
X90148500Y-71106452D01*
X90148500Y-70159116D01*
X90144025Y-70143877D01*
X90142635Y-70142672D01*
X90134952Y-70141001D01*
X90017905Y-70141001D01*
X90011386Y-70141338D01*
X89915794Y-70151257D01*
X89902400Y-70154149D01*
X89748216Y-70205588D01*
X89735038Y-70211761D01*
X89597193Y-70297063D01*
X89585792Y-70306099D01*
X89471261Y-70420829D01*
X89462249Y-70432240D01*
X89377184Y-70570243D01*
X89371037Y-70583424D01*
X89319862Y-70737710D01*
X89316995Y-70751086D01*
X89307328Y-70845438D01*
X89307000Y-70851855D01*
X89307000Y-71101885D01*
X72258500Y-71101885D01*
X72258500Y-61000000D01*
X73936693Y-61000000D01*
X73955885Y-61219371D01*
X74012880Y-61432076D01*
X74015205Y-61437061D01*
X74103618Y-61626666D01*
X74103621Y-61626671D01*
X74105944Y-61631653D01*
X74232251Y-61812038D01*
X74387962Y-61967749D01*
X74568346Y-62094056D01*
X74767924Y-62187120D01*
X74980629Y-62244115D01*
X75200000Y-62263307D01*
X75419371Y-62244115D01*
X75632076Y-62187120D01*
X75831654Y-62094056D01*
X76012038Y-61967749D01*
X76167749Y-61812038D01*
X76294056Y-61631653D01*
X76296379Y-61626671D01*
X76296382Y-61626666D01*
X76384795Y-61437061D01*
X76387120Y-61432076D01*
X76444115Y-61219371D01*
X76463307Y-61000000D01*
X76444115Y-60780629D01*
X76387120Y-60567924D01*
X76343585Y-60474562D01*
X76296382Y-60373334D01*
X76296379Y-60373329D01*
X76294056Y-60368347D01*
X76167749Y-60187962D01*
X76012038Y-60032251D01*
X75831654Y-59905944D01*
X75632076Y-59812880D01*
X75419371Y-59755885D01*
X75200000Y-59736693D01*
X74980629Y-59755885D01*
X74767924Y-59812880D01*
X74674562Y-59856415D01*
X74573334Y-59903618D01*
X74573329Y-59903621D01*
X74568347Y-59905944D01*
X74563840Y-59909100D01*
X74563838Y-59909101D01*
X74392473Y-60029092D01*
X74392470Y-60029094D01*
X74387962Y-60032251D01*
X74232251Y-60187962D01*
X74105944Y-60368347D01*
X74103621Y-60373329D01*
X74103618Y-60373334D01*
X74056415Y-60474562D01*
X74012880Y-60567924D01*
X73955885Y-60780629D01*
X73936693Y-61000000D01*
X72258500Y-61000000D01*
X72258500Y-55798134D01*
X73941500Y-55798134D01*
X73948255Y-55860316D01*
X73999385Y-55996705D01*
X74086739Y-56113261D01*
X74203295Y-56200615D01*
X74339684Y-56251745D01*
X74401866Y-56258500D01*
X75998134Y-56258500D01*
X76060316Y-56251745D01*
X76196705Y-56200615D01*
X76313261Y-56113261D01*
X76400615Y-55996705D01*
X76451745Y-55860316D01*
X76458500Y-55798134D01*
X76458500Y-54201866D01*
X76451745Y-54139684D01*
X76400615Y-54003295D01*
X76313261Y-53886739D01*
X76196705Y-53799385D01*
X76060316Y-53748255D01*
X75998134Y-53741500D01*
X74401866Y-53741500D01*
X74339684Y-53748255D01*
X74203295Y-53799385D01*
X74086739Y-53886739D01*
X73999385Y-54003295D01*
X73948255Y-54139684D01*
X73941500Y-54201866D01*
X73941500Y-55798134D01*
X72258500Y-55798134D01*
X72258500Y-50050161D01*
X108114393Y-50050161D01*
X108123687Y-50062175D01*
X108164088Y-50090464D01*
X108173584Y-50095947D01*
X108363113Y-50184326D01*
X108373405Y-50188072D01*
X108575401Y-50242196D01*
X108586196Y-50244099D01*
X108794525Y-50262326D01*
X108805475Y-50262326D01*
X109013804Y-50244099D01*
X109024599Y-50242196D01*
X109226595Y-50188072D01*
X109236887Y-50184326D01*
X109426416Y-50095947D01*
X109435912Y-50090464D01*
X109477148Y-50061590D01*
X109485523Y-50051112D01*
X109478457Y-50037668D01*
X108812811Y-49372021D01*
X108798868Y-49364408D01*
X108797034Y-49364539D01*
X108790420Y-49368790D01*
X108120820Y-50038391D01*
X108114393Y-50050161D01*
X72258500Y-50050161D01*
X72258500Y-49005475D01*
X107537674Y-49005475D01*
X107555901Y-49213804D01*
X107557804Y-49224599D01*
X107611928Y-49426595D01*
X107615674Y-49436887D01*
X107704054Y-49626417D01*
X107709534Y-49635907D01*
X107738411Y-49677149D01*
X107748887Y-49685523D01*
X107762334Y-49678455D01*
X108427979Y-49012811D01*
X108434356Y-49001132D01*
X109164408Y-49001132D01*
X109164539Y-49002966D01*
X109168790Y-49009580D01*
X109838391Y-49679180D01*
X109850161Y-49685607D01*
X109862176Y-49676311D01*
X109890466Y-49635907D01*
X109895946Y-49626417D01*
X109984326Y-49436887D01*
X109988072Y-49426595D01*
X110042196Y-49224599D01*
X110044099Y-49213804D01*
X110062326Y-49005475D01*
X110062326Y-48994525D01*
X110044099Y-48786196D01*
X110042196Y-48775401D01*
X109988072Y-48573405D01*
X109984326Y-48563113D01*
X109895946Y-48373583D01*
X109890466Y-48364093D01*
X109861589Y-48322851D01*
X109851113Y-48314477D01*
X109837666Y-48321545D01*
X109172021Y-48987189D01*
X109164408Y-49001132D01*
X108434356Y-49001132D01*
X108435592Y-48998868D01*
X108435461Y-48997034D01*
X108431210Y-48990420D01*
X107761609Y-48320820D01*
X107749839Y-48314393D01*
X107737824Y-48323689D01*
X107709534Y-48364093D01*
X107704054Y-48373583D01*
X107615674Y-48563113D01*
X107611928Y-48573405D01*
X107557804Y-48775401D01*
X107555901Y-48786196D01*
X107537674Y-48994525D01*
X107537674Y-49005475D01*
X72258500Y-49005475D01*
X72258500Y-47948887D01*
X108114477Y-47948887D01*
X108121545Y-47962334D01*
X108787189Y-48627979D01*
X108801132Y-48635592D01*
X108802966Y-48635461D01*
X108809580Y-48631210D01*
X109479180Y-47961609D01*
X109485607Y-47949839D01*
X109476313Y-47937825D01*
X109435912Y-47909536D01*
X109426416Y-47904053D01*
X109236887Y-47815674D01*
X109226595Y-47811928D01*
X109024599Y-47757804D01*
X109013804Y-47755901D01*
X108805475Y-47737674D01*
X108794525Y-47737674D01*
X108586196Y-47755901D01*
X108575401Y-47757804D01*
X108373405Y-47811928D01*
X108363113Y-47815674D01*
X108173583Y-47904054D01*
X108164093Y-47909534D01*
X108122851Y-47938411D01*
X108114477Y-47948887D01*
X72258500Y-47948887D01*
X72258500Y-39897526D01*
X81107050Y-39897526D01*
X81119947Y-40166019D01*
X81172388Y-40429656D01*
X81263220Y-40682646D01*
X81390450Y-40919431D01*
X81393241Y-40923168D01*
X81393245Y-40923175D01*
X81474887Y-41032506D01*
X81551281Y-41134810D01*
X81554590Y-41138090D01*
X81554595Y-41138096D01*
X81738863Y-41320762D01*
X81742180Y-41324050D01*
X81745942Y-41326808D01*
X81745945Y-41326811D01*
X81794912Y-41362715D01*
X81958954Y-41482995D01*
X81963089Y-41485171D01*
X81963093Y-41485173D01*
X82192698Y-41605975D01*
X82196840Y-41608154D01*
X82450613Y-41696775D01*
X82455206Y-41697647D01*
X82710109Y-41746042D01*
X82710112Y-41746042D01*
X82714698Y-41746913D01*
X82842370Y-41751929D01*
X82978625Y-41757283D01*
X82978630Y-41757283D01*
X82983293Y-41757466D01*
X83087607Y-41746042D01*
X83245844Y-41728713D01*
X83245850Y-41728712D01*
X83250497Y-41728203D01*
X83362302Y-41698767D01*
X83505918Y-41660956D01*
X83505920Y-41660955D01*
X83510441Y-41659765D01*
X83617795Y-41613642D01*
X83753120Y-41555502D01*
X83753122Y-41555501D01*
X83757414Y-41553657D01*
X83876071Y-41480230D01*
X83982017Y-41414669D01*
X83982021Y-41414666D01*
X83985990Y-41412210D01*
X84126648Y-41293134D01*
X86191500Y-41293134D01*
X86198255Y-41355316D01*
X86249385Y-41491705D01*
X86336739Y-41608261D01*
X86453295Y-41695615D01*
X86589684Y-41746745D01*
X86651866Y-41753500D01*
X89348134Y-41753500D01*
X89410316Y-41746745D01*
X89546705Y-41695615D01*
X89663261Y-41608261D01*
X89750615Y-41491705D01*
X89801745Y-41355316D01*
X89808500Y-41293134D01*
X89808500Y-39897526D01*
X94152050Y-39897526D01*
X94164947Y-40166019D01*
X94217388Y-40429656D01*
X94308220Y-40682646D01*
X94435450Y-40919431D01*
X94438241Y-40923168D01*
X94438245Y-40923175D01*
X94519887Y-41032506D01*
X94596281Y-41134810D01*
X94599590Y-41138090D01*
X94599595Y-41138096D01*
X94783863Y-41320762D01*
X94787180Y-41324050D01*
X94790942Y-41326808D01*
X94790945Y-41326811D01*
X94839912Y-41362715D01*
X95003954Y-41482995D01*
X95008089Y-41485171D01*
X95008093Y-41485173D01*
X95237698Y-41605975D01*
X95241840Y-41608154D01*
X95495613Y-41696775D01*
X95500206Y-41697647D01*
X95755109Y-41746042D01*
X95755112Y-41746042D01*
X95759698Y-41746913D01*
X95887370Y-41751929D01*
X96023625Y-41757283D01*
X96023630Y-41757283D01*
X96028293Y-41757466D01*
X96132607Y-41746042D01*
X96290844Y-41728713D01*
X96290850Y-41728712D01*
X96295497Y-41728203D01*
X96407302Y-41698767D01*
X96550918Y-41660956D01*
X96550920Y-41660955D01*
X96555441Y-41659765D01*
X96662795Y-41613642D01*
X96798120Y-41555502D01*
X96798122Y-41555501D01*
X96802414Y-41553657D01*
X96921071Y-41480230D01*
X97027017Y-41414669D01*
X97027021Y-41414666D01*
X97030990Y-41412210D01*
X97171648Y-41293134D01*
X99236500Y-41293134D01*
X99243255Y-41355316D01*
X99294385Y-41491705D01*
X99381739Y-41608261D01*
X99498295Y-41695615D01*
X99634684Y-41746745D01*
X99696866Y-41753500D01*
X102393134Y-41753500D01*
X102455316Y-41746745D01*
X102591705Y-41695615D01*
X102708261Y-41608261D01*
X102795615Y-41491705D01*
X102846745Y-41355316D01*
X102853500Y-41293134D01*
X102853500Y-38596866D01*
X102846745Y-38534684D01*
X102795615Y-38398295D01*
X102708261Y-38281739D01*
X102591705Y-38194385D01*
X102455316Y-38143255D01*
X102393134Y-38136500D01*
X99696866Y-38136500D01*
X99634684Y-38143255D01*
X99498295Y-38194385D01*
X99381739Y-38281739D01*
X99294385Y-38398295D01*
X99243255Y-38534684D01*
X99236500Y-38596866D01*
X99236500Y-41293134D01*
X97171648Y-41293134D01*
X97236149Y-41238530D01*
X97413382Y-41036434D01*
X97558797Y-40810361D01*
X97669199Y-40565278D01*
X97706209Y-40434051D01*
X97740893Y-40311072D01*
X97740894Y-40311069D01*
X97742163Y-40306568D01*
X97760043Y-40166019D01*
X97775688Y-40043045D01*
X97775688Y-40043041D01*
X97776086Y-40039915D01*
X97778571Y-39945000D01*
X97758650Y-39676937D01*
X97699327Y-39414763D01*
X97601902Y-39164238D01*
X97468518Y-38930864D01*
X97302105Y-38719769D01*
X97106317Y-38535591D01*
X96908407Y-38398295D01*
X96889299Y-38385039D01*
X96889296Y-38385037D01*
X96885457Y-38382374D01*
X96881264Y-38380306D01*
X96648564Y-38265551D01*
X96648561Y-38265550D01*
X96644376Y-38263486D01*
X96596745Y-38248239D01*
X96418657Y-38191233D01*
X96388370Y-38181538D01*
X96383763Y-38180788D01*
X96383760Y-38180787D01*
X96168052Y-38145657D01*
X96123063Y-38138330D01*
X95992719Y-38136624D01*
X95858961Y-38134873D01*
X95858958Y-38134873D01*
X95854284Y-38134812D01*
X95587937Y-38171060D01*
X95329874Y-38246278D01*
X95085763Y-38358815D01*
X95081854Y-38361378D01*
X94864881Y-38503631D01*
X94864876Y-38503635D01*
X94860968Y-38506197D01*
X94660426Y-38685188D01*
X94488544Y-38891854D01*
X94349096Y-39121656D01*
X94245148Y-39369545D01*
X94178981Y-39630077D01*
X94152050Y-39897526D01*
X89808500Y-39897526D01*
X89808500Y-38596866D01*
X89801745Y-38534684D01*
X89750615Y-38398295D01*
X89663261Y-38281739D01*
X89546705Y-38194385D01*
X89410316Y-38143255D01*
X89348134Y-38136500D01*
X86651866Y-38136500D01*
X86589684Y-38143255D01*
X86453295Y-38194385D01*
X86336739Y-38281739D01*
X86249385Y-38398295D01*
X86198255Y-38534684D01*
X86191500Y-38596866D01*
X86191500Y-41293134D01*
X84126648Y-41293134D01*
X84191149Y-41238530D01*
X84368382Y-41036434D01*
X84513797Y-40810361D01*
X84624199Y-40565278D01*
X84661209Y-40434051D01*
X84695893Y-40311072D01*
X84695894Y-40311069D01*
X84697163Y-40306568D01*
X84715043Y-40166019D01*
X84730688Y-40043045D01*
X84730688Y-40043041D01*
X84731086Y-40039915D01*
X84733571Y-39945000D01*
X84713650Y-39676937D01*
X84654327Y-39414763D01*
X84556902Y-39164238D01*
X84423518Y-38930864D01*
X84257105Y-38719769D01*
X84061317Y-38535591D01*
X83863407Y-38398295D01*
X83844299Y-38385039D01*
X83844296Y-38385037D01*
X83840457Y-38382374D01*
X83836264Y-38380306D01*
X83603564Y-38265551D01*
X83603561Y-38265550D01*
X83599376Y-38263486D01*
X83551745Y-38248239D01*
X83373657Y-38191233D01*
X83343370Y-38181538D01*
X83338763Y-38180788D01*
X83338760Y-38180787D01*
X83123052Y-38145657D01*
X83078063Y-38138330D01*
X82947719Y-38136624D01*
X82813961Y-38134873D01*
X82813958Y-38134873D01*
X82809284Y-38134812D01*
X82542937Y-38171060D01*
X82284874Y-38246278D01*
X82040763Y-38358815D01*
X82036854Y-38361378D01*
X81819881Y-38503631D01*
X81819876Y-38503635D01*
X81815968Y-38506197D01*
X81615426Y-38685188D01*
X81443544Y-38891854D01*
X81304096Y-39121656D01*
X81200148Y-39369545D01*
X81133981Y-39630077D01*
X81107050Y-39897526D01*
X72258500Y-39897526D01*
X72258500Y-36792277D01*
X73137009Y-36792277D01*
X73162625Y-37060769D01*
X73163710Y-37065203D01*
X73163711Y-37065209D01*
X73225645Y-37318312D01*
X73226731Y-37322750D01*
X73327985Y-37572733D01*
X73464265Y-37805482D01*
X73467118Y-37809049D01*
X73584686Y-37956060D01*
X73632716Y-38016119D01*
X73829809Y-38200234D01*
X74051416Y-38353968D01*
X74055499Y-38355999D01*
X74055502Y-38356001D01*
X74113871Y-38385039D01*
X74292894Y-38474101D01*
X74297228Y-38475522D01*
X74297231Y-38475523D01*
X74544853Y-38556698D01*
X74544859Y-38556699D01*
X74549186Y-38558118D01*
X74553677Y-38558898D01*
X74553678Y-38558898D01*
X74811140Y-38603601D01*
X74811148Y-38603602D01*
X74814921Y-38604257D01*
X74818758Y-38604448D01*
X74898578Y-38608422D01*
X74898586Y-38608422D01*
X74900149Y-38608500D01*
X75068512Y-38608500D01*
X75070780Y-38608335D01*
X75070792Y-38608335D01*
X75201884Y-38598823D01*
X75269004Y-38593953D01*
X75273459Y-38592969D01*
X75273462Y-38592969D01*
X75527912Y-38536791D01*
X75527916Y-38536790D01*
X75532372Y-38535806D01*
X75658480Y-38488028D01*
X75780318Y-38441868D01*
X75780321Y-38441867D01*
X75784588Y-38440250D01*
X76020368Y-38309286D01*
X76234773Y-38145657D01*
X76241202Y-38139081D01*
X76420117Y-37956060D01*
X76423312Y-37952792D01*
X76582034Y-37734730D01*
X76665190Y-37576676D01*
X76705490Y-37500079D01*
X76705493Y-37500073D01*
X76707615Y-37496039D01*
X76770378Y-37318312D01*
X76795902Y-37246033D01*
X76795902Y-37246032D01*
X76797425Y-37241720D01*
X76849581Y-36977100D01*
X76858782Y-36792277D01*
X107137009Y-36792277D01*
X107162625Y-37060769D01*
X107163710Y-37065203D01*
X107163711Y-37065209D01*
X107225645Y-37318312D01*
X107226731Y-37322750D01*
X107327985Y-37572733D01*
X107464265Y-37805482D01*
X107467118Y-37809049D01*
X107584686Y-37956060D01*
X107632716Y-38016119D01*
X107829809Y-38200234D01*
X108051416Y-38353968D01*
X108055499Y-38355999D01*
X108055502Y-38356001D01*
X108113871Y-38385039D01*
X108292894Y-38474101D01*
X108297228Y-38475522D01*
X108297231Y-38475523D01*
X108544853Y-38556698D01*
X108544859Y-38556699D01*
X108549186Y-38558118D01*
X108553677Y-38558898D01*
X108553678Y-38558898D01*
X108811140Y-38603601D01*
X108811148Y-38603602D01*
X108814921Y-38604257D01*
X108818758Y-38604448D01*
X108898578Y-38608422D01*
X108898586Y-38608422D01*
X108900149Y-38608500D01*
X109068512Y-38608500D01*
X109070780Y-38608335D01*
X109070792Y-38608335D01*
X109201884Y-38598823D01*
X109269004Y-38593953D01*
X109273459Y-38592969D01*
X109273462Y-38592969D01*
X109527912Y-38536791D01*
X109527916Y-38536790D01*
X109532372Y-38535806D01*
X109658480Y-38488028D01*
X109780318Y-38441868D01*
X109780321Y-38441867D01*
X109784588Y-38440250D01*
X110020368Y-38309286D01*
X110234773Y-38145657D01*
X110241202Y-38139081D01*
X110420117Y-37956060D01*
X110423312Y-37952792D01*
X110582034Y-37734730D01*
X110665190Y-37576676D01*
X110705490Y-37500079D01*
X110705493Y-37500073D01*
X110707615Y-37496039D01*
X110770378Y-37318312D01*
X110795902Y-37246033D01*
X110795902Y-37246032D01*
X110797425Y-37241720D01*
X110849581Y-36977100D01*
X110858782Y-36792277D01*
X110862764Y-36712292D01*
X110862764Y-36712286D01*
X110862991Y-36707723D01*
X110837375Y-36439231D01*
X110792042Y-36253967D01*
X110774355Y-36181688D01*
X110773269Y-36177250D01*
X110672015Y-35927267D01*
X110535735Y-35694518D01*
X110417928Y-35547208D01*
X110370136Y-35487447D01*
X110370135Y-35487445D01*
X110367284Y-35483881D01*
X110170191Y-35299766D01*
X109948584Y-35146032D01*
X109944501Y-35144001D01*
X109944498Y-35143999D01*
X109779606Y-35061967D01*
X109707106Y-35025899D01*
X109702772Y-35024478D01*
X109702769Y-35024477D01*
X109455147Y-34943302D01*
X109455141Y-34943301D01*
X109450814Y-34941882D01*
X109446322Y-34941102D01*
X109188860Y-34896399D01*
X109188852Y-34896398D01*
X109185079Y-34895743D01*
X109173817Y-34895182D01*
X109101422Y-34891578D01*
X109101414Y-34891578D01*
X109099851Y-34891500D01*
X108931488Y-34891500D01*
X108929220Y-34891665D01*
X108929208Y-34891665D01*
X108798116Y-34901177D01*
X108730996Y-34906047D01*
X108726541Y-34907031D01*
X108726538Y-34907031D01*
X108472088Y-34963209D01*
X108472084Y-34963210D01*
X108467628Y-34964194D01*
X108341520Y-35011972D01*
X108219682Y-35058132D01*
X108219679Y-35058133D01*
X108215412Y-35059750D01*
X107979632Y-35190714D01*
X107765227Y-35354343D01*
X107576688Y-35547208D01*
X107417966Y-35765270D01*
X107415844Y-35769304D01*
X107294510Y-35999921D01*
X107294507Y-35999927D01*
X107292385Y-36003961D01*
X107290865Y-36008266D01*
X107290863Y-36008270D01*
X107204098Y-36253967D01*
X107202575Y-36258280D01*
X107150419Y-36522900D01*
X107150192Y-36527453D01*
X107150192Y-36527456D01*
X107140991Y-36712292D01*
X107137009Y-36792277D01*
X76858782Y-36792277D01*
X76862764Y-36712292D01*
X76862764Y-36712286D01*
X76862991Y-36707723D01*
X76837375Y-36439231D01*
X76792042Y-36253967D01*
X76774355Y-36181688D01*
X76773269Y-36177250D01*
X76672015Y-35927267D01*
X76535735Y-35694518D01*
X76417928Y-35547208D01*
X76370136Y-35487447D01*
X76370135Y-35487445D01*
X76367284Y-35483881D01*
X76170191Y-35299766D01*
X75948584Y-35146032D01*
X75944501Y-35144001D01*
X75944498Y-35143999D01*
X75779606Y-35061967D01*
X75707106Y-35025899D01*
X75702772Y-35024478D01*
X75702769Y-35024477D01*
X75455147Y-34943302D01*
X75455141Y-34943301D01*
X75450814Y-34941882D01*
X75446322Y-34941102D01*
X75188860Y-34896399D01*
X75188852Y-34896398D01*
X75185079Y-34895743D01*
X75173817Y-34895182D01*
X75101422Y-34891578D01*
X75101414Y-34891578D01*
X75099851Y-34891500D01*
X74931488Y-34891500D01*
X74929220Y-34891665D01*
X74929208Y-34891665D01*
X74798116Y-34901177D01*
X74730996Y-34906047D01*
X74726541Y-34907031D01*
X74726538Y-34907031D01*
X74472088Y-34963209D01*
X74472084Y-34963210D01*
X74467628Y-34964194D01*
X74341520Y-35011972D01*
X74219682Y-35058132D01*
X74219679Y-35058133D01*
X74215412Y-35059750D01*
X73979632Y-35190714D01*
X73765227Y-35354343D01*
X73576688Y-35547208D01*
X73417966Y-35765270D01*
X73415844Y-35769304D01*
X73294510Y-35999921D01*
X73294507Y-35999927D01*
X73292385Y-36003961D01*
X73290865Y-36008266D01*
X73290863Y-36008270D01*
X73204098Y-36253967D01*
X73202575Y-36258280D01*
X73150419Y-36522900D01*
X73150192Y-36527453D01*
X73150192Y-36527456D01*
X73140991Y-36712292D01*
X73137009Y-36792277D01*
X72258500Y-36792277D01*
X72258500Y-34134500D01*
X72278502Y-34066379D01*
X72332158Y-34019886D01*
X72384500Y-34008500D01*
X111615500Y-34008500D01*
X111683621Y-34028502D01*
G37*
%TD.AperFunction*%
%TA.AperFunction,Conductor*%
G36*
X106124640Y-72804866D02*
G01*
X106136582Y-72818526D01*
X106137274Y-72819656D01*
X106293204Y-72999667D01*
X106383158Y-73074348D01*
X106465535Y-73142739D01*
X106505170Y-73201642D01*
X106506668Y-73272622D01*
X106486887Y-73313279D01*
X106493825Y-73325964D01*
X107297189Y-74129329D01*
X107311132Y-74136942D01*
X107312966Y-74136811D01*
X107319580Y-74132560D01*
X108127331Y-73324808D01*
X108134348Y-73311957D01*
X108132815Y-73309853D01*
X108108865Y-73243018D01*
X108124851Y-73173845D01*
X108161480Y-73133076D01*
X108248020Y-73071347D01*
X108276560Y-73042906D01*
X108338931Y-73008990D01*
X108409738Y-73014178D01*
X108466499Y-73056823D01*
X108491194Y-73123387D01*
X108491500Y-73132157D01*
X108491500Y-73626870D01*
X108471498Y-73694991D01*
X108454595Y-73715966D01*
X107682021Y-74488539D01*
X107674408Y-74502482D01*
X107674539Y-74504316D01*
X107678790Y-74510930D01*
X108454595Y-75286734D01*
X108488620Y-75349047D01*
X108491500Y-75375830D01*
X108491500Y-78383629D01*
X108471498Y-78451750D01*
X108454595Y-78472724D01*
X107222724Y-79704595D01*
X107160412Y-79738621D01*
X107133629Y-79741500D01*
X106067069Y-79741500D01*
X106048121Y-79740067D01*
X106040780Y-79738950D01*
X106033883Y-79737901D01*
X106033881Y-79737901D01*
X106026651Y-79736801D01*
X106019359Y-79737394D01*
X106019356Y-79737394D01*
X105973982Y-79741085D01*
X105963767Y-79741500D01*
X105955707Y-79741500D01*
X105942417Y-79743049D01*
X105927493Y-79744789D01*
X105923118Y-79745222D01*
X105857661Y-79750546D01*
X105857658Y-79750547D01*
X105850363Y-79751140D01*
X105843399Y-79753396D01*
X105837440Y-79754587D01*
X105831585Y-79755971D01*
X105824319Y-79756818D01*
X105755673Y-79781735D01*
X105751545Y-79783152D01*
X105689064Y-79803393D01*
X105689062Y-79803394D01*
X105682101Y-79805649D01*
X105675846Y-79809445D01*
X105670372Y-79811951D01*
X105664942Y-79814670D01*
X105658063Y-79817167D01*
X105651943Y-79821180D01*
X105651942Y-79821180D01*
X105597024Y-79857186D01*
X105593320Y-79859523D01*
X105530893Y-79897405D01*
X105522516Y-79904803D01*
X105522492Y-79904776D01*
X105519500Y-79907429D01*
X105516267Y-79910132D01*
X105510148Y-79914144D01*
X105505116Y-79919456D01*
X105456872Y-79970383D01*
X105454494Y-79972825D01*
X104911089Y-80516230D01*
X104896677Y-80528616D01*
X104885082Y-80537149D01*
X104885077Y-80537154D01*
X104879182Y-80541492D01*
X104874443Y-80547070D01*
X104874440Y-80547073D01*
X104844965Y-80581768D01*
X104838035Y-80589284D01*
X104832340Y-80594979D01*
X104830060Y-80597861D01*
X104814719Y-80617251D01*
X104811928Y-80620655D01*
X104769409Y-80670703D01*
X104764667Y-80676285D01*
X104761339Y-80682801D01*
X104757972Y-80687850D01*
X104754805Y-80692979D01*
X104750266Y-80698716D01*
X104719345Y-80764875D01*
X104717442Y-80768769D01*
X104684231Y-80833808D01*
X104682492Y-80840916D01*
X104680393Y-80846559D01*
X104678476Y-80852322D01*
X104675378Y-80858950D01*
X104673888Y-80866112D01*
X104673888Y-80866113D01*
X104660514Y-80930412D01*
X104659544Y-80934696D01*
X104642192Y-81005610D01*
X104641500Y-81016764D01*
X104641464Y-81016762D01*
X104641225Y-81020755D01*
X104640851Y-81024947D01*
X104639360Y-81032115D01*
X104640308Y-81067157D01*
X104641454Y-81109521D01*
X104641500Y-81112928D01*
X104641500Y-81815500D01*
X104621498Y-81883621D01*
X104567842Y-81930114D01*
X104515500Y-81941500D01*
X104351866Y-81941500D01*
X104289684Y-81948255D01*
X104153295Y-81999385D01*
X104036739Y-82086739D01*
X103949385Y-82203295D01*
X103898255Y-82339684D01*
X103891500Y-82401866D01*
X103891500Y-83333629D01*
X103871498Y-83401750D01*
X103854595Y-83422724D01*
X101973595Y-85303724D01*
X101911283Y-85337750D01*
X101840468Y-85332685D01*
X101783632Y-85290138D01*
X101758821Y-85223618D01*
X101758500Y-85214629D01*
X101758500Y-78637721D01*
X101778502Y-78569600D01*
X101795405Y-78548626D01*
X104385289Y-75958742D01*
X104447601Y-75924716D01*
X104499505Y-75924367D01*
X104592857Y-75943360D01*
X104592865Y-75943361D01*
X104597928Y-75944391D01*
X104732121Y-75949312D01*
X104830760Y-75952929D01*
X104830764Y-75952929D01*
X104835924Y-75953118D01*
X104841044Y-75952462D01*
X104841046Y-75952462D01*
X105067023Y-75923514D01*
X105067024Y-75923514D01*
X105072151Y-75922857D01*
X105156803Y-75897460D01*
X105295316Y-75855904D01*
X105295317Y-75855903D01*
X105300262Y-75854420D01*
X105514133Y-75749645D01*
X105518336Y-75746647D01*
X105518341Y-75746644D01*
X105595155Y-75691853D01*
X106484326Y-75691853D01*
X106489607Y-75698908D01*
X106677821Y-75808891D01*
X106687108Y-75813341D01*
X106899861Y-75894583D01*
X106909763Y-75897460D01*
X107132911Y-75942860D01*
X107143163Y-75944083D01*
X107370738Y-75952427D01*
X107381024Y-75951960D01*
X107606915Y-75923023D01*
X107617001Y-75920880D01*
X107835128Y-75855438D01*
X107844723Y-75851678D01*
X108049237Y-75751487D01*
X108058083Y-75746213D01*
X108123631Y-75699458D01*
X108132032Y-75688758D01*
X108125045Y-75675606D01*
X107322811Y-74873371D01*
X107308868Y-74865758D01*
X107307034Y-74865889D01*
X107300420Y-74870140D01*
X106491083Y-75679478D01*
X106484326Y-75691853D01*
X105595155Y-75691853D01*
X105703816Y-75614346D01*
X105703818Y-75614344D01*
X105708020Y-75611347D01*
X105876716Y-75443239D01*
X105879730Y-75439045D01*
X105879739Y-75439034D01*
X105942170Y-75352152D01*
X105998164Y-75308504D01*
X106068868Y-75302058D01*
X106115626Y-75325519D01*
X106119976Y-75326240D01*
X106130387Y-75321752D01*
X106937979Y-74514161D01*
X106945592Y-74500218D01*
X106945461Y-74498384D01*
X106941210Y-74491770D01*
X106135220Y-73685781D01*
X106122803Y-73679001D01*
X106059899Y-73704049D01*
X105990210Y-73690485D01*
X105942360Y-73647038D01*
X105924216Y-73618992D01*
X105921406Y-73614648D01*
X105892661Y-73583057D01*
X105835485Y-73520222D01*
X105761124Y-73438500D01*
X105757073Y-73435301D01*
X105757069Y-73435297D01*
X105668584Y-73365417D01*
X105623347Y-73329691D01*
X105582285Y-73271775D01*
X105579053Y-73200852D01*
X105614678Y-73139441D01*
X105628271Y-73128232D01*
X105703814Y-73074348D01*
X105703821Y-73074342D01*
X105708020Y-73071347D01*
X105876716Y-72903239D01*
X105879915Y-72898788D01*
X105903818Y-72865522D01*
X105934979Y-72822157D01*
X105990972Y-72778510D01*
X106061676Y-72772064D01*
X106124640Y-72804866D01*
G37*
%TD.AperFunction*%
%TA.AperFunction,Conductor*%
G36*
X95687750Y-78444502D02*
G01*
X95708724Y-78461405D01*
X98304595Y-81057276D01*
X98338621Y-81119588D01*
X98341500Y-81146371D01*
X98341500Y-82965500D01*
X98321498Y-83033621D01*
X98267842Y-83080114D01*
X98215500Y-83091500D01*
X98051866Y-83091500D01*
X97989684Y-83098255D01*
X97853295Y-83149385D01*
X97736739Y-83236739D01*
X97649385Y-83353295D01*
X97598255Y-83489684D01*
X97591500Y-83551866D01*
X97591500Y-84214629D01*
X97571498Y-84282750D01*
X97517842Y-84329243D01*
X97447568Y-84339347D01*
X97382988Y-84309853D01*
X97376405Y-84303724D01*
X97170125Y-84097444D01*
X97139387Y-84047285D01*
X97086569Y-83884729D01*
X97084527Y-83878444D01*
X97054425Y-83826305D01*
X97018381Y-83763876D01*
X96989040Y-83713056D01*
X96928194Y-83645479D01*
X96865675Y-83576045D01*
X96865674Y-83576044D01*
X96861253Y-83571134D01*
X96706752Y-83458882D01*
X96700724Y-83456198D01*
X96700722Y-83456197D01*
X96538319Y-83383891D01*
X96538318Y-83383891D01*
X96532288Y-83381206D01*
X96438887Y-83361353D01*
X96351944Y-83342872D01*
X96351939Y-83342872D01*
X96345487Y-83341500D01*
X96154513Y-83341500D01*
X96148061Y-83342872D01*
X96148056Y-83342872D01*
X96061113Y-83361353D01*
X95967712Y-83381206D01*
X95961682Y-83383891D01*
X95961681Y-83383891D01*
X95799278Y-83456197D01*
X95799276Y-83456198D01*
X95793248Y-83458882D01*
X95638747Y-83571134D01*
X95634326Y-83576044D01*
X95634325Y-83576045D01*
X95571807Y-83645479D01*
X95510960Y-83713056D01*
X95481619Y-83763876D01*
X95430236Y-83812869D01*
X95360523Y-83826305D01*
X95294612Y-83799919D01*
X95253430Y-83742086D01*
X95246500Y-83700876D01*
X95246500Y-78837069D01*
X95247933Y-78818118D01*
X95247969Y-78817885D01*
X95251199Y-78796651D01*
X95246915Y-78743982D01*
X95246500Y-78733767D01*
X95246500Y-78725707D01*
X95243211Y-78697493D01*
X95242778Y-78693118D01*
X95237454Y-78627661D01*
X95237453Y-78627658D01*
X95236860Y-78620363D01*
X95234604Y-78613399D01*
X95233413Y-78607440D01*
X95232029Y-78601585D01*
X95231182Y-78594319D01*
X95228686Y-78587443D01*
X95227001Y-78580314D01*
X95230021Y-78579600D01*
X95226427Y-78522693D01*
X95260969Y-78460666D01*
X95323563Y-78427161D01*
X95349320Y-78424500D01*
X95619629Y-78424500D01*
X95687750Y-78444502D01*
G37*
%TD.AperFunction*%
%TD*%
M02*
