%TF.GenerationSoftware,KiCad,Pcbnew,(6.0.6)*%
%TF.CreationDate,2023-01-19T19:18:13-03:00*%
%TF.ProjectId,mod_rele,6d6f645f-7265-46c6-952e-6b696361645f,rev?*%
%TF.SameCoordinates,Original*%
%TF.FileFunction,Soldermask,Top*%
%TF.FilePolarity,Negative*%
%FSLAX46Y46*%
G04 Gerber Fmt 4.6, Leading zero omitted, Abs format (unit mm)*
G04 Created by KiCad (PCBNEW (6.0.6)) date 2023-01-19 19:18:13*
%MOMM*%
%LPD*%
G01*
G04 APERTURE LIST*
G04 Aperture macros list*
%AMRoundRect*
0 Rectangle with rounded corners*
0 $1 Rounding radius*
0 $2 $3 $4 $5 $6 $7 $8 $9 X,Y pos of 4 corners*
0 Add a 4 corners polygon primitive as box body*
4,1,4,$2,$3,$4,$5,$6,$7,$8,$9,$2,$3,0*
0 Add four circle primitives for the rounded corners*
1,1,$1+$1,$2,$3*
1,1,$1+$1,$4,$5*
1,1,$1+$1,$6,$7*
1,1,$1+$1,$8,$9*
0 Add four rect primitives between the rounded corners*
20,1,$1+$1,$2,$3,$4,$5,0*
20,1,$1+$1,$4,$5,$6,$7,0*
20,1,$1+$1,$6,$7,$8,$9,0*
20,1,$1+$1,$8,$9,$2,$3,0*%
G04 Aperture macros list end*
%ADD10C,2.600000*%
%ADD11R,2.600000X2.600000*%
%ADD12C,1.879600*%
%ADD13C,1.500000*%
%ADD14R,1.500000X1.500000*%
%ADD15C,1.600000*%
%ADD16R,1.600000X1.600000*%
%ADD17RoundRect,0.250000X0.337500X0.475000X-0.337500X0.475000X-0.337500X-0.475000X0.337500X-0.475000X0*%
%ADD18RoundRect,0.250000X-0.350000X-0.450000X0.350000X-0.450000X0.350000X0.450000X-0.350000X0.450000X0*%
%ADD19R,0.800000X1.900000*%
%ADD20R,2.000000X1.500000*%
%ADD21R,2.000000X3.800000*%
%ADD22C,2.700000*%
%ADD23C,2.500000*%
%ADD24C,3.000000*%
%ADD25RoundRect,0.250000X-0.450000X0.350000X-0.450000X-0.350000X0.450000X-0.350000X0.450000X0.350000X0*%
%ADD26RoundRect,0.250000X0.350000X0.450000X-0.350000X0.450000X-0.350000X-0.450000X0.350000X-0.450000X0*%
%ADD27R,1.800000X3.500000*%
%ADD28RoundRect,0.250000X-0.475000X0.337500X-0.475000X-0.337500X0.475000X-0.337500X0.475000X0.337500X0*%
G04 APERTURE END LIST*
D10*
%TO.C,J1*%
X82920000Y-39945000D03*
D11*
X88000000Y-39945000D03*
%TD*%
D12*
%TO.C,U2*%
X99690000Y-74501350D03*
X99690000Y-71961350D03*
X102230000Y-74501350D03*
X102230000Y-71961350D03*
X104770000Y-74501350D03*
X104770000Y-71961350D03*
X107310000Y-74501350D03*
X107310000Y-71961350D03*
%TD*%
D13*
%TO.C,PS1*%
X108800000Y-67000000D03*
X108800000Y-49000000D03*
X75200000Y-61000000D03*
D14*
X75200000Y-55000000D03*
%TD*%
D15*
%TO.C,C3*%
X91000000Y-95567621D03*
D16*
X91000000Y-93067621D03*
%TD*%
D17*
%TO.C,C2*%
X90402500Y-71374000D03*
X92477500Y-71374000D03*
%TD*%
D18*
%TO.C,R2*%
X97536000Y-77216000D03*
X95536000Y-77216000D03*
%TD*%
D19*
%TO.C,Q1*%
X91500000Y-79732000D03*
X90550000Y-76732000D03*
X92450000Y-76732000D03*
%TD*%
D20*
%TO.C,U1*%
X105400000Y-83200000D03*
D21*
X99100000Y-85500000D03*
D20*
X105400000Y-85500000D03*
X105400000Y-87800000D03*
%TD*%
D10*
%TO.C,J2*%
X95965000Y-39945000D03*
D11*
X101045000Y-39945000D03*
%TD*%
D22*
%TO.C,H4*%
X109000000Y-95250000D03*
%TD*%
D23*
%TO.C,K1*%
X74800000Y-87050000D03*
D24*
X74750000Y-74800000D03*
X86800000Y-74850000D03*
D23*
X86800000Y-87050000D03*
D24*
X80750000Y-89000000D03*
%TD*%
D25*
%TO.C,R1*%
X96000000Y-73250000D03*
X96000000Y-71250000D03*
%TD*%
D26*
%TO.C,R3*%
X90440000Y-73914000D03*
X92440000Y-73914000D03*
%TD*%
D27*
%TO.C,D1*%
X91500000Y-83352000D03*
X91500000Y-88352000D03*
%TD*%
D22*
%TO.C,H3*%
X109000000Y-36750000D03*
%TD*%
D28*
%TO.C,C1*%
X108250000Y-86537500D03*
X108250000Y-84462500D03*
%TD*%
D22*
%TO.C,H1*%
X75000000Y-95250000D03*
%TD*%
%TO.C,H2*%
X75000000Y-36750000D03*
%TD*%
M02*
