%TF.GenerationSoftware,KiCad,Pcbnew,(6.0.6)*%
%TF.CreationDate,2023-01-19T19:18:13-03:00*%
%TF.ProjectId,mod_rele,6d6f645f-7265-46c6-952e-6b696361645f,rev?*%
%TF.SameCoordinates,Original*%
%TF.FileFunction,Legend,Top*%
%TF.FilePolarity,Positive*%
%FSLAX46Y46*%
G04 Gerber Fmt 4.6, Leading zero omitted, Abs format (unit mm)*
G04 Created by KiCad (PCBNEW (6.0.6)) date 2023-01-19 19:18:13*
%MOMM*%
%LPD*%
G01*
G04 APERTURE LIST*
%ADD10C,0.100000*%
%ADD11C,0.150000*%
%ADD12C,0.120000*%
%ADD13C,0.152400*%
%ADD14C,0.200000*%
%ADD15C,0.127000*%
G04 APERTURE END LIST*
D10*
X95416666Y-34428571D02*
X95083333Y-34428571D01*
X95083333Y-34952380D02*
X95083333Y-33952380D01*
X95559523Y-33952380D01*
X97654761Y-33952380D02*
X97845238Y-33952380D01*
X97940476Y-34000000D01*
X98035714Y-34095238D01*
X98083333Y-34285714D01*
X98083333Y-34619047D01*
X98035714Y-34809523D01*
X97940476Y-34904761D01*
X97845238Y-34952380D01*
X97654761Y-34952380D01*
X97559523Y-34904761D01*
X97464285Y-34809523D01*
X97416666Y-34619047D01*
X97416666Y-34285714D01*
X97464285Y-34095238D01*
X97559523Y-34000000D01*
X97654761Y-33952380D01*
X98511904Y-33952380D02*
X98511904Y-34761904D01*
X98559523Y-34857142D01*
X98607142Y-34904761D01*
X98702380Y-34952380D01*
X98892857Y-34952380D01*
X98988095Y-34904761D01*
X99035714Y-34857142D01*
X99083333Y-34761904D01*
X99083333Y-33952380D01*
X99416666Y-33952380D02*
X99988095Y-33952380D01*
X99702380Y-34952380D02*
X99702380Y-33952380D01*
X101845238Y-34952380D02*
X101845238Y-33952380D01*
X102416666Y-34952380D01*
X102416666Y-33952380D01*
X82250000Y-34952380D02*
X82250000Y-33952380D01*
X82821428Y-34952380D01*
X82821428Y-33952380D01*
X84821428Y-34952380D02*
X84821428Y-33952380D01*
X85297619Y-34952380D02*
X85297619Y-33952380D01*
X85869047Y-34952380D01*
X85869047Y-33952380D01*
X88202380Y-34428571D02*
X87869047Y-34428571D01*
X87869047Y-34952380D02*
X87869047Y-33952380D01*
X88345238Y-33952380D01*
D11*
%TO.C,J1*%
X78916666Y-39702380D02*
X78916666Y-40416666D01*
X78869047Y-40559523D01*
X78773809Y-40654761D01*
X78630952Y-40702380D01*
X78535714Y-40702380D01*
X79916666Y-40702380D02*
X79345238Y-40702380D01*
X79630952Y-40702380D02*
X79630952Y-39702380D01*
X79535714Y-39845238D01*
X79440476Y-39940476D01*
X79345238Y-39988095D01*
%TO.C,U2*%
X104643095Y-76493730D02*
X104643095Y-77303254D01*
X104690714Y-77398492D01*
X104738333Y-77446111D01*
X104833571Y-77493730D01*
X105024047Y-77493730D01*
X105119285Y-77446111D01*
X105166904Y-77398492D01*
X105214523Y-77303254D01*
X105214523Y-76493730D01*
X105643095Y-76588969D02*
X105690714Y-76541350D01*
X105785952Y-76493730D01*
X106024047Y-76493730D01*
X106119285Y-76541350D01*
X106166904Y-76588969D01*
X106214523Y-76684207D01*
X106214523Y-76779445D01*
X106166904Y-76922302D01*
X105595476Y-77493730D01*
X106214523Y-77493730D01*
%TO.C,PS1*%
X74035714Y-45952380D02*
X74035714Y-44952380D01*
X74416666Y-44952380D01*
X74511904Y-45000000D01*
X74559523Y-45047619D01*
X74607142Y-45142857D01*
X74607142Y-45285714D01*
X74559523Y-45380952D01*
X74511904Y-45428571D01*
X74416666Y-45476190D01*
X74035714Y-45476190D01*
X74988095Y-45904761D02*
X75130952Y-45952380D01*
X75369047Y-45952380D01*
X75464285Y-45904761D01*
X75511904Y-45857142D01*
X75559523Y-45761904D01*
X75559523Y-45666666D01*
X75511904Y-45571428D01*
X75464285Y-45523809D01*
X75369047Y-45476190D01*
X75178571Y-45428571D01*
X75083333Y-45380952D01*
X75035714Y-45333333D01*
X74988095Y-45238095D01*
X74988095Y-45142857D01*
X75035714Y-45047619D01*
X75083333Y-45000000D01*
X75178571Y-44952380D01*
X75416666Y-44952380D01*
X75559523Y-45000000D01*
X76511904Y-45952380D02*
X75940476Y-45952380D01*
X76226190Y-45952380D02*
X76226190Y-44952380D01*
X76130952Y-45095238D01*
X76035714Y-45190476D01*
X75940476Y-45238095D01*
%TO.C,C3*%
X86583333Y-97357142D02*
X86535714Y-97404761D01*
X86392857Y-97452380D01*
X86297619Y-97452380D01*
X86154761Y-97404761D01*
X86059523Y-97309523D01*
X86011904Y-97214285D01*
X85964285Y-97023809D01*
X85964285Y-96880952D01*
X86011904Y-96690476D01*
X86059523Y-96595238D01*
X86154761Y-96500000D01*
X86297619Y-96452380D01*
X86392857Y-96452380D01*
X86535714Y-96500000D01*
X86583333Y-96547619D01*
X86916666Y-96452380D02*
X87535714Y-96452380D01*
X87202380Y-96833333D01*
X87345238Y-96833333D01*
X87440476Y-96880952D01*
X87488095Y-96928571D01*
X87535714Y-97023809D01*
X87535714Y-97261904D01*
X87488095Y-97357142D01*
X87440476Y-97404761D01*
X87345238Y-97452380D01*
X87059523Y-97452380D01*
X86964285Y-97404761D01*
X86916666Y-97357142D01*
%TO.C,C2*%
X88866666Y-70535714D02*
X88828571Y-70573809D01*
X88714285Y-70611904D01*
X88638095Y-70611904D01*
X88523809Y-70573809D01*
X88447619Y-70497619D01*
X88409523Y-70421428D01*
X88371428Y-70269047D01*
X88371428Y-70154761D01*
X88409523Y-70002380D01*
X88447619Y-69926190D01*
X88523809Y-69850000D01*
X88638095Y-69811904D01*
X88714285Y-69811904D01*
X88828571Y-69850000D01*
X88866666Y-69888095D01*
X89171428Y-69888095D02*
X89209523Y-69850000D01*
X89285714Y-69811904D01*
X89476190Y-69811904D01*
X89552380Y-69850000D01*
X89590476Y-69888095D01*
X89628571Y-69964285D01*
X89628571Y-70040476D01*
X89590476Y-70154761D01*
X89133333Y-70611904D01*
X89628571Y-70611904D01*
%TO.C,R2*%
X98833333Y-79202380D02*
X98500000Y-78726190D01*
X98261904Y-79202380D02*
X98261904Y-78202380D01*
X98642857Y-78202380D01*
X98738095Y-78250000D01*
X98785714Y-78297619D01*
X98833333Y-78392857D01*
X98833333Y-78535714D01*
X98785714Y-78630952D01*
X98738095Y-78678571D01*
X98642857Y-78726190D01*
X98261904Y-78726190D01*
X99214285Y-78297619D02*
X99261904Y-78250000D01*
X99357142Y-78202380D01*
X99595238Y-78202380D01*
X99690476Y-78250000D01*
X99738095Y-78297619D01*
X99785714Y-78392857D01*
X99785714Y-78488095D01*
X99738095Y-78630952D01*
X99166666Y-79202380D01*
X99785714Y-79202380D01*
%TO.C,Q1*%
X93154761Y-80297619D02*
X93059523Y-80250000D01*
X92964285Y-80154761D01*
X92821428Y-80011904D01*
X92726190Y-79964285D01*
X92630952Y-79964285D01*
X92678571Y-80202380D02*
X92583333Y-80154761D01*
X92488095Y-80059523D01*
X92440476Y-79869047D01*
X92440476Y-79535714D01*
X92488095Y-79345238D01*
X92583333Y-79250000D01*
X92678571Y-79202380D01*
X92869047Y-79202380D01*
X92964285Y-79250000D01*
X93059523Y-79345238D01*
X93107142Y-79535714D01*
X93107142Y-79869047D01*
X93059523Y-80059523D01*
X92964285Y-80154761D01*
X92869047Y-80202380D01*
X92678571Y-80202380D01*
X94059523Y-80202380D02*
X93488095Y-80202380D01*
X93773809Y-80202380D02*
X93773809Y-79202380D01*
X93678571Y-79345238D01*
X93583333Y-79440476D01*
X93488095Y-79488095D01*
%TO.C,U1*%
X102988095Y-89452380D02*
X102988095Y-90261904D01*
X103035714Y-90357142D01*
X103083333Y-90404761D01*
X103178571Y-90452380D01*
X103369047Y-90452380D01*
X103464285Y-90404761D01*
X103511904Y-90357142D01*
X103559523Y-90261904D01*
X103559523Y-89452380D01*
X104559523Y-90452380D02*
X103988095Y-90452380D01*
X104273809Y-90452380D02*
X104273809Y-89452380D01*
X104178571Y-89595238D01*
X104083333Y-89690476D01*
X103988095Y-89738095D01*
%TO.C,J2*%
X104416666Y-39452380D02*
X104416666Y-40166666D01*
X104369047Y-40309523D01*
X104273809Y-40404761D01*
X104130952Y-40452380D01*
X104035714Y-40452380D01*
X104845238Y-39547619D02*
X104892857Y-39500000D01*
X104988095Y-39452380D01*
X105226190Y-39452380D01*
X105321428Y-39500000D01*
X105369047Y-39547619D01*
X105416666Y-39642857D01*
X105416666Y-39738095D01*
X105369047Y-39880952D01*
X104797619Y-40452380D01*
X105416666Y-40452380D01*
%TO.C,H4*%
X104988095Y-93952380D02*
X104988095Y-92952380D01*
X104988095Y-93428571D02*
X105559523Y-93428571D01*
X105559523Y-93952380D02*
X105559523Y-92952380D01*
X106464285Y-93285714D02*
X106464285Y-93952380D01*
X106226190Y-92904761D02*
X105988095Y-93619047D01*
X106607142Y-93619047D01*
%TO.C,K1*%
X83511904Y-91702380D02*
X83511904Y-90702380D01*
X84083333Y-91702380D02*
X83654761Y-91130952D01*
X84083333Y-90702380D02*
X83511904Y-91273809D01*
X85035714Y-91702380D02*
X84464285Y-91702380D01*
X84750000Y-91702380D02*
X84750000Y-90702380D01*
X84654761Y-90845238D01*
X84559523Y-90940476D01*
X84464285Y-90988095D01*
%TO.C,R1*%
X94083333Y-70702380D02*
X93750000Y-70226190D01*
X93511904Y-70702380D02*
X93511904Y-69702380D01*
X93892857Y-69702380D01*
X93988095Y-69750000D01*
X94035714Y-69797619D01*
X94083333Y-69892857D01*
X94083333Y-70035714D01*
X94035714Y-70130952D01*
X93988095Y-70178571D01*
X93892857Y-70226190D01*
X93511904Y-70226190D01*
X95035714Y-70702380D02*
X94464285Y-70702380D01*
X94750000Y-70702380D02*
X94750000Y-69702380D01*
X94654761Y-69845238D01*
X94559523Y-69940476D01*
X94464285Y-69988095D01*
%TO.C,R3*%
X94083333Y-75202380D02*
X93750000Y-74726190D01*
X93511904Y-75202380D02*
X93511904Y-74202380D01*
X93892857Y-74202380D01*
X93988095Y-74250000D01*
X94035714Y-74297619D01*
X94083333Y-74392857D01*
X94083333Y-74535714D01*
X94035714Y-74630952D01*
X93988095Y-74678571D01*
X93892857Y-74726190D01*
X93511904Y-74726190D01*
X94416666Y-74202380D02*
X95035714Y-74202380D01*
X94702380Y-74583333D01*
X94845238Y-74583333D01*
X94940476Y-74630952D01*
X94988095Y-74678571D01*
X95035714Y-74773809D01*
X95035714Y-75011904D01*
X94988095Y-75107142D01*
X94940476Y-75154761D01*
X94845238Y-75202380D01*
X94559523Y-75202380D01*
X94464285Y-75154761D01*
X94416666Y-75107142D01*
%TO.C,D1*%
X93511904Y-87702380D02*
X93511904Y-86702380D01*
X93750000Y-86702380D01*
X93892857Y-86750000D01*
X93988095Y-86845238D01*
X94035714Y-86940476D01*
X94083333Y-87130952D01*
X94083333Y-87273809D01*
X94035714Y-87464285D01*
X93988095Y-87559523D01*
X93892857Y-87654761D01*
X93750000Y-87702380D01*
X93511904Y-87702380D01*
X95035714Y-87702380D02*
X94464285Y-87702380D01*
X94750000Y-87702380D02*
X94750000Y-86702380D01*
X94654761Y-86845238D01*
X94559523Y-86940476D01*
X94464285Y-86988095D01*
%TO.C,H3*%
X108988095Y-39952380D02*
X108988095Y-38952380D01*
X108988095Y-39428571D02*
X109559523Y-39428571D01*
X109559523Y-39952380D02*
X109559523Y-38952380D01*
X109940476Y-38952380D02*
X110559523Y-38952380D01*
X110226190Y-39333333D01*
X110369047Y-39333333D01*
X110464285Y-39380952D01*
X110511904Y-39428571D01*
X110559523Y-39523809D01*
X110559523Y-39761904D01*
X110511904Y-39857142D01*
X110464285Y-39904761D01*
X110369047Y-39952380D01*
X110083333Y-39952380D01*
X109988095Y-39904761D01*
X109940476Y-39857142D01*
%TO.C,C1*%
X110287142Y-85666666D02*
X110334761Y-85714285D01*
X110382380Y-85857142D01*
X110382380Y-85952380D01*
X110334761Y-86095238D01*
X110239523Y-86190476D01*
X110144285Y-86238095D01*
X109953809Y-86285714D01*
X109810952Y-86285714D01*
X109620476Y-86238095D01*
X109525238Y-86190476D01*
X109430000Y-86095238D01*
X109382380Y-85952380D01*
X109382380Y-85857142D01*
X109430000Y-85714285D01*
X109477619Y-85666666D01*
X110382380Y-84714285D02*
X110382380Y-85285714D01*
X110382380Y-85000000D02*
X109382380Y-85000000D01*
X109525238Y-85095238D01*
X109620476Y-85190476D01*
X109668095Y-85285714D01*
%TO.C,H1*%
X77238095Y-94702380D02*
X77238095Y-93702380D01*
X77238095Y-94178571D02*
X77809523Y-94178571D01*
X77809523Y-94702380D02*
X77809523Y-93702380D01*
X78809523Y-94702380D02*
X78238095Y-94702380D01*
X78523809Y-94702380D02*
X78523809Y-93702380D01*
X78428571Y-93845238D01*
X78333333Y-93940476D01*
X78238095Y-93988095D01*
%TO.C,H2*%
X73238095Y-40202380D02*
X73238095Y-39202380D01*
X73238095Y-39678571D02*
X73809523Y-39678571D01*
X73809523Y-40202380D02*
X73809523Y-39202380D01*
X74238095Y-39297619D02*
X74285714Y-39250000D01*
X74380952Y-39202380D01*
X74619047Y-39202380D01*
X74714285Y-39250000D01*
X74761904Y-39297619D01*
X74809523Y-39392857D01*
X74809523Y-39488095D01*
X74761904Y-39630952D01*
X74190476Y-40202380D01*
X74809523Y-40202380D01*
D12*
%TO.C,J1*%
X84600000Y-39945000D02*
G75*
G03*
X84600000Y-39945000I-1680000J0D01*
G01*
X87316000Y-41480000D02*
G75*
G03*
X88683042Y-41480427I684001J1534993D01*
G01*
X88684000Y-38410000D02*
G75*
G03*
X87971195Y-38264747I-683999J-1535001D01*
G01*
X89535000Y-40629000D02*
G75*
G03*
X89535427Y-39261958I-1534993J684001D01*
G01*
X88000000Y-38265000D02*
G75*
G03*
X87316682Y-38410244I0J-1680000D01*
G01*
X86464999Y-39261000D02*
G75*
G03*
X86464573Y-40628042I1535001J-684000D01*
G01*
X80320000Y-45206000D02*
X80320000Y-35285000D01*
X83954000Y-38706000D02*
X83989000Y-38671000D01*
X90600000Y-45206000D02*
X90600000Y-35285000D01*
X90600000Y-42246000D02*
X80320000Y-42246000D01*
X84147000Y-38922000D02*
X84194000Y-38876000D01*
X81645000Y-41014000D02*
X81692000Y-40968000D01*
X90840000Y-35785000D02*
X90840000Y-35045000D01*
X90600000Y-45206000D02*
X80320000Y-45206000D01*
X90600000Y-37345000D02*
X80320000Y-37345000D01*
X90600000Y-35845000D02*
X80320000Y-35845000D01*
X81850000Y-41220000D02*
X81885000Y-41184000D01*
X90840000Y-35045000D02*
X90340000Y-35045000D01*
X90600000Y-35285000D02*
X80320000Y-35285000D01*
D13*
%TO.C,U2*%
X107945000Y-70691350D02*
X106675000Y-70691350D01*
X105405000Y-70691350D02*
X104135000Y-70691350D01*
X102865000Y-70691350D02*
X101595000Y-70691350D01*
X100325000Y-70691350D02*
X99055000Y-70691350D01*
X98420000Y-75136350D02*
X98420000Y-71326350D01*
X99055000Y-75771350D02*
X98420000Y-75136350D01*
X100325000Y-75771350D02*
X99055000Y-75771350D01*
X100960000Y-75136350D02*
X100325000Y-75771350D01*
X101595000Y-75771350D02*
X100960000Y-75136350D01*
X102865000Y-75771350D02*
X101595000Y-75771350D01*
X103500000Y-75136350D02*
X102865000Y-75771350D01*
X104135000Y-75771350D02*
X103500000Y-75136350D01*
X105405000Y-75771350D02*
X104135000Y-75771350D01*
X106040000Y-75136350D02*
X105405000Y-75771350D01*
X106675000Y-75771350D02*
X106040000Y-75136350D01*
X107945000Y-75771350D02*
X106675000Y-75771350D01*
X108580000Y-75136350D02*
X107945000Y-75771350D01*
X108580000Y-71326350D02*
X108580000Y-75136350D01*
X99055000Y-70691350D02*
X98420000Y-71326350D01*
X100960000Y-71326350D02*
X100325000Y-70691350D01*
X101595000Y-70691350D02*
X100960000Y-71326350D01*
X103500000Y-71326350D02*
X102865000Y-70691350D01*
X104135000Y-70691350D02*
X103500000Y-71326350D01*
X106040000Y-71326350D02*
X105405000Y-70691350D01*
X106675000Y-70691350D02*
X106040000Y-71326350D01*
X108580000Y-71326350D02*
X107945000Y-70691350D01*
D14*
%TO.C,PS1*%
X72300000Y-54800000D02*
G75*
G03*
X72300000Y-54800000I-100000J0D01*
G01*
D15*
X111000000Y-46500000D02*
X73000000Y-46500000D01*
X111000000Y-69500000D02*
X111000000Y-46500000D01*
X73000000Y-69500000D02*
X111000000Y-69500000D01*
X73000000Y-46500000D02*
X73000000Y-69500000D01*
D12*
%TO.C,C3*%
X94270000Y-94317621D02*
G75*
G03*
X94270000Y-94317621I-3270000J0D01*
G01*
X94224000Y-94517621D02*
X87776000Y-94517621D01*
X93716000Y-96078621D02*
X92040000Y-96078621D01*
X89960000Y-96438621D02*
X88550000Y-96438621D01*
X89960000Y-94997621D02*
X87841000Y-94997621D01*
X93916000Y-95718621D02*
X92040000Y-95718621D01*
X94195000Y-94797621D02*
X92040000Y-94797621D01*
X89960000Y-95518621D02*
X87998000Y-95518621D01*
X94002000Y-95518621D02*
X92040000Y-95518621D01*
X94211000Y-94677621D02*
X92040000Y-94677621D01*
X94061000Y-95358621D02*
X92040000Y-95358621D01*
X94074000Y-95318621D02*
X92040000Y-95318621D01*
X93986000Y-95558621D02*
X92040000Y-95558621D01*
X93516000Y-96358621D02*
X92040000Y-96358621D01*
X94206000Y-94717621D02*
X92040000Y-94717621D01*
X89960000Y-96158621D02*
X88336000Y-96158621D01*
X93876000Y-95798621D02*
X92040000Y-95798621D01*
X89960000Y-94677621D02*
X87789000Y-94677621D01*
X93548000Y-96318621D02*
X92040000Y-96318621D01*
X89960000Y-96118621D02*
X88310000Y-96118621D01*
X89960000Y-96398621D02*
X88516000Y-96398621D01*
X94227000Y-94477621D02*
X87773000Y-94477621D01*
X89960000Y-95678621D02*
X88066000Y-95678621D01*
X94167000Y-94957621D02*
X92040000Y-94957621D01*
X93742000Y-96038621D02*
X92040000Y-96038621D01*
X89960000Y-96518621D02*
X88620000Y-96518621D01*
X89960000Y-94717621D02*
X87794000Y-94717621D01*
X92262000Y-97318621D02*
X89738000Y-97318621D01*
X92944000Y-96918621D02*
X89056000Y-96918621D01*
X93182000Y-96718621D02*
X88818000Y-96718621D01*
X89960000Y-95398621D02*
X87953000Y-95398621D01*
X89960000Y-96358621D02*
X88484000Y-96358621D01*
X93636000Y-96198621D02*
X92040000Y-96198621D01*
X92165000Y-97358621D02*
X89835000Y-97358621D01*
X89960000Y-95238621D02*
X87902000Y-95238621D01*
X94086000Y-95278621D02*
X92040000Y-95278621D01*
X89960000Y-94557621D02*
X87778000Y-94557621D01*
X93578000Y-96278621D02*
X92040000Y-96278621D01*
X89960000Y-95758621D02*
X88104000Y-95758621D01*
X93265000Y-96638621D02*
X88735000Y-96638621D01*
X93450000Y-96438621D02*
X92040000Y-96438621D01*
X94218000Y-94597621D02*
X92040000Y-94597621D01*
X94141000Y-95078621D02*
X92040000Y-95078621D01*
X89960000Y-95438621D02*
X87967000Y-95438621D01*
X94121000Y-95158621D02*
X92040000Y-95158621D01*
X93766000Y-95998621D02*
X92040000Y-95998621D01*
X89960000Y-95158621D02*
X87879000Y-95158621D01*
X94230000Y-94317621D02*
X87770000Y-94317621D01*
X94098000Y-95238621D02*
X92040000Y-95238621D01*
X94159000Y-94997621D02*
X92040000Y-94997621D01*
X94189000Y-94837621D02*
X92040000Y-94837621D01*
X89960000Y-95358621D02*
X87939000Y-95358621D01*
X93896000Y-95758621D02*
X92040000Y-95758621D01*
X89960000Y-94757621D02*
X87799000Y-94757621D01*
X91940000Y-97438621D02*
X90060000Y-97438621D01*
X92059000Y-97398621D02*
X89941000Y-97398621D01*
X94175000Y-94917621D02*
X92040000Y-94917621D01*
X92581000Y-97158621D02*
X89419000Y-97158621D01*
X93380000Y-96518621D02*
X92040000Y-96518621D01*
X92714000Y-97078621D02*
X89286000Y-97078621D01*
X89960000Y-95878621D02*
X88166000Y-95878621D01*
X93154000Y-91132380D02*
X92524000Y-91132380D01*
X89960000Y-95038621D02*
X87850000Y-95038621D01*
X94033000Y-95438621D02*
X92040000Y-95438621D01*
X89960000Y-96478621D02*
X88584000Y-96478621D01*
X89960000Y-96238621D02*
X88393000Y-96238621D01*
X94110000Y-95198621D02*
X92040000Y-95198621D01*
X89960000Y-94797621D02*
X87805000Y-94797621D01*
X89960000Y-95838621D02*
X88144000Y-95838621D01*
X94018000Y-95478621D02*
X92040000Y-95478621D01*
X89960000Y-96558621D02*
X88657000Y-96558621D01*
X93934000Y-95678621D02*
X92040000Y-95678621D01*
X94150000Y-95038621D02*
X92040000Y-95038621D01*
X92350000Y-97278621D02*
X89650000Y-97278621D01*
X89960000Y-95278621D02*
X87914000Y-95278621D01*
X93343000Y-96558621D02*
X92040000Y-96558621D01*
X89960000Y-95638621D02*
X88048000Y-95638621D01*
X93092000Y-96798621D02*
X88908000Y-96798621D01*
X93044000Y-96838621D02*
X88956000Y-96838621D01*
X89960000Y-95718621D02*
X88084000Y-95718621D01*
X89960000Y-95598621D02*
X88030000Y-95598621D01*
X89960000Y-95078621D02*
X87859000Y-95078621D01*
X93607000Y-96238621D02*
X92040000Y-96238621D01*
X93137000Y-96758621D02*
X88863000Y-96758621D01*
X89960000Y-95998621D02*
X88234000Y-95998621D01*
X93952000Y-95638621D02*
X92040000Y-95638621D01*
X93790000Y-95958621D02*
X92040000Y-95958621D01*
X94215000Y-94637621D02*
X92040000Y-94637621D01*
X93970000Y-95598621D02*
X92040000Y-95598621D01*
X89960000Y-94637621D02*
X87785000Y-94637621D01*
X89960000Y-96278621D02*
X88422000Y-96278621D01*
X89960000Y-96598621D02*
X88695000Y-96598621D01*
X91633000Y-97518621D02*
X90367000Y-97518621D01*
X89960000Y-96198621D02*
X88364000Y-96198621D01*
X92776000Y-97038621D02*
X89224000Y-97038621D01*
X93690000Y-96118621D02*
X92040000Y-96118621D01*
X93416000Y-96478621D02*
X92040000Y-96478621D01*
X94222000Y-94557621D02*
X92040000Y-94557621D01*
X89960000Y-95118621D02*
X87869000Y-95118621D01*
X93834000Y-95878621D02*
X92040000Y-95878621D01*
X94201000Y-94757621D02*
X92040000Y-94757621D01*
X92432000Y-97238621D02*
X89568000Y-97238621D01*
X93664000Y-96158621D02*
X92040000Y-96158621D01*
X89960000Y-94597621D02*
X87782000Y-94597621D01*
X89960000Y-94917621D02*
X87825000Y-94917621D01*
X92650000Y-97118621D02*
X89350000Y-97118621D01*
X93484000Y-96398621D02*
X92040000Y-96398621D01*
X89960000Y-95478621D02*
X87982000Y-95478621D01*
X93224000Y-96678621D02*
X88776000Y-96678621D01*
X92509000Y-97198621D02*
X89491000Y-97198621D01*
X89960000Y-94837621D02*
X87811000Y-94837621D01*
X89960000Y-96078621D02*
X88284000Y-96078621D01*
X93812000Y-95918621D02*
X92040000Y-95918621D01*
X89960000Y-95558621D02*
X88014000Y-95558621D01*
X89960000Y-94957621D02*
X87833000Y-94957621D01*
X91402000Y-97558621D02*
X90598000Y-97558621D01*
X89960000Y-96038621D02*
X88258000Y-96038621D01*
X92839000Y-90817380D02*
X92839000Y-91447380D01*
X89960000Y-95958621D02*
X88210000Y-95958621D01*
X94228000Y-94437621D02*
X87772000Y-94437621D01*
X91802000Y-97478621D02*
X90198000Y-97478621D01*
X94182000Y-94877621D02*
X92040000Y-94877621D01*
X93305000Y-96598621D02*
X92040000Y-96598621D01*
X93856000Y-95838621D02*
X92040000Y-95838621D01*
X89960000Y-95918621D02*
X88188000Y-95918621D01*
X89960000Y-94877621D02*
X87818000Y-94877621D01*
X92995000Y-96878621D02*
X89005000Y-96878621D01*
X92834000Y-96998621D02*
X89166000Y-96998621D01*
X94230000Y-94357621D02*
X87770000Y-94357621D01*
X89960000Y-95318621D02*
X87926000Y-95318621D01*
X89960000Y-95198621D02*
X87890000Y-95198621D01*
X94230000Y-94397621D02*
X87770000Y-94397621D01*
X94131000Y-95118621D02*
X92040000Y-95118621D01*
X92890000Y-96958621D02*
X89110000Y-96958621D01*
X94047000Y-95398621D02*
X92040000Y-95398621D01*
X89960000Y-95798621D02*
X88124000Y-95798621D01*
X89960000Y-96318621D02*
X88452000Y-96318621D01*
%TO.C,C2*%
X91701252Y-72109000D02*
X91178748Y-72109000D01*
X91701252Y-70639000D02*
X91178748Y-70639000D01*
%TO.C,R2*%
X96308936Y-76481000D02*
X96763064Y-76481000D01*
X96308936Y-77951000D02*
X96763064Y-77951000D01*
%TO.C,Q1*%
X93080000Y-78992000D02*
X93080000Y-75832000D01*
X89920000Y-78992000D02*
X89920000Y-77532000D01*
X89920000Y-78992000D02*
X90850000Y-78992000D01*
X93080000Y-78992000D02*
X92150000Y-78992000D01*
%TO.C,U1*%
X104100000Y-82090000D02*
X100340000Y-82090000D01*
X100340000Y-88910000D02*
X100340000Y-87650000D01*
X106350000Y-88910000D02*
X100340000Y-88910000D01*
X100340000Y-82090000D02*
X100340000Y-83350000D01*
%TO.C,J2*%
X97645000Y-39945000D02*
G75*
G03*
X97645000Y-39945000I-1680000J0D01*
G01*
X102580000Y-40629000D02*
G75*
G03*
X102580427Y-39261958I-1534993J684001D01*
G01*
X100361000Y-41480000D02*
G75*
G03*
X101728042Y-41480427I684001J1534993D01*
G01*
X101045000Y-38265000D02*
G75*
G03*
X100361682Y-38410244I0J-1680000D01*
G01*
X101729000Y-38410000D02*
G75*
G03*
X101016195Y-38264747I-683999J-1535001D01*
G01*
X99509999Y-39261000D02*
G75*
G03*
X99509573Y-40628042I1535001J-684000D01*
G01*
X96999000Y-38706000D02*
X97034000Y-38671000D01*
X93365000Y-45206000D02*
X93365000Y-35285000D01*
X103645000Y-35285000D02*
X93365000Y-35285000D01*
X103645000Y-45206000D02*
X103645000Y-35285000D01*
X103645000Y-42246000D02*
X93365000Y-42246000D01*
X103645000Y-37345000D02*
X93365000Y-37345000D01*
X103645000Y-35845000D02*
X93365000Y-35845000D01*
X103645000Y-45206000D02*
X93365000Y-45206000D01*
X97192000Y-38922000D02*
X97239000Y-38876000D01*
X103885000Y-35785000D02*
X103885000Y-35045000D01*
X94895000Y-41220000D02*
X94930000Y-41184000D01*
X94690000Y-41014000D02*
X94737000Y-40968000D01*
X103885000Y-35045000D02*
X103385000Y-35045000D01*
%TO.C,K1*%
X74800000Y-82950000D02*
X74800000Y-85450000D01*
X81950000Y-90400000D02*
X88550000Y-90400000D01*
X80800000Y-79550000D02*
X80800000Y-78050000D01*
X84950000Y-74850000D02*
X82500000Y-74850000D01*
X82600000Y-80950000D02*
X79000000Y-84950000D01*
X82600000Y-84950000D02*
X79000000Y-84950000D01*
X72950000Y-70600000D02*
X88550000Y-70600000D01*
X82600000Y-80950000D02*
X82600000Y-84950000D01*
X82600000Y-82950000D02*
X86800000Y-82950000D01*
X74800000Y-82950000D02*
X79000000Y-82950000D01*
X88550000Y-70600000D02*
X88550000Y-90400000D01*
X80800000Y-86350000D02*
X80800000Y-87150000D01*
X84400000Y-79550000D02*
X84400000Y-86350000D01*
X72950000Y-90400000D02*
X72950000Y-70600000D01*
X80800000Y-79550000D02*
X84400000Y-79550000D01*
X79000000Y-80950000D02*
X82600000Y-80950000D01*
X79000000Y-84950000D02*
X79000000Y-80950000D01*
X76550000Y-74850000D02*
X79050000Y-74850000D01*
X86800000Y-85450000D02*
X86800000Y-82950000D01*
X72950000Y-90400000D02*
X79550000Y-90400000D01*
X80800000Y-86350000D02*
X84400000Y-86350000D01*
X80800000Y-78050000D02*
X78300000Y-73450000D01*
%TO.C,R1*%
X96735000Y-72022936D02*
X96735000Y-72477064D01*
X95265000Y-72022936D02*
X95265000Y-72477064D01*
%TO.C,R3*%
X91667064Y-74649000D02*
X91212936Y-74649000D01*
X91667064Y-73179000D02*
X91212936Y-73179000D01*
%TO.C,D1*%
X89850000Y-90252000D02*
X89850000Y-83352000D01*
X89850000Y-90252000D02*
X93150000Y-90252000D01*
X93150000Y-90252000D02*
X93150000Y-83352000D01*
%TO.C,C1*%
X108985000Y-85238748D02*
X108985000Y-85761252D01*
X107515000Y-85238748D02*
X107515000Y-85761252D01*
%TD*%
M02*
